<svg width="29" height="29" viewBox="0 0 29 29" fill="none" xmlns="http://www.w3.org/2000/svg">
<path d="M26.3531 20.3762V23.9056C26.3544 24.2332 26.2873 24.5576 26.1561 24.8578C26.0248 25.158 25.8323 25.4275 25.5908 25.649C25.3494 25.8705 25.0644 26.0391 24.754 26.1441C24.4436 26.249 24.1147 26.288 23.7884 26.2585C20.1682 25.8652 16.6908 24.6281 13.6355 22.6468C10.7929 20.8405 8.38291 18.4305 6.57664 15.5879C4.58838 12.5188 3.35104 9.0244 2.96487 5.38794C2.93547 5.06261 2.97414 4.73472 3.0784 4.42515C3.18267 4.11557 3.35025 3.8311 3.57048 3.58985C3.79071 3.34859 4.05876 3.15583 4.35757 3.02385C4.65637 2.89186 4.97939 2.82354 5.30605 2.82323H8.83546C9.40641 2.81761 9.95992 3.0198 10.3928 3.3921C10.8257 3.7644 11.1085 4.28141 11.1884 4.84676C11.3374 5.97625 11.6136 7.08527 12.0119 8.15265C12.1702 8.57373 12.2045 9.03137 12.1106 9.47133C12.0168 9.91129 11.7988 10.3151 11.4825 10.635L9.9884 12.1291C11.6632 15.0745 14.1019 17.5132 17.0472 19.1879L18.5413 17.6938C18.8612 17.3775 19.2651 17.1595 19.705 17.0657C20.145 16.9719 20.6026 17.0061 21.0237 17.1644C22.0911 17.5627 23.2001 17.839 24.3296 17.9879C24.9011 18.0686 25.423 18.3564 25.7961 18.7968C26.1692 19.2371 26.3674 19.7992 26.3531 20.3762Z" stroke="black" stroke-width="2" stroke-linecap="round" stroke-linejoin="round"/>
</svg>
