<svg width="72" height="29" viewBox="0 0 72 29" fill="none" xmlns="http://www.w3.org/2000/svg">
<path d="M33.5802 14.1794V22.3871H30.9583V2.11769H37.9122C38.7422 2.10048 39.5675 2.24667 40.3404 2.54785C41.1132 2.84903 41.8184 3.29922 42.4151 3.87245C43.0179 4.41087 43.4976 5.07119 43.822 5.80903C44.1465 6.54687 44.3081 7.34513 44.2961 8.15016C44.3134 8.95949 44.1542 9.76296 43.8295 10.5055C43.5049 11.248 43.0224 11.9121 42.4151 12.4521C41.1991 13.6036 39.6982 14.1788 37.9122 14.1778H33.5802V14.1794ZM33.5802 4.61316V11.6888H37.9773C38.4594 11.703 38.9391 11.6171 39.3858 11.4366C39.8325 11.2562 40.2364 10.9851 40.5716 10.6408C40.905 10.3188 41.1701 9.93376 41.3511 9.50833C41.5321 9.0829 41.6253 8.62574 41.6253 8.1639C41.6253 7.70206 41.5321 7.24491 41.3511 6.81948C41.1701 6.39405 40.905 6.00898 40.5716 5.68704C40.2406 5.33545 39.8381 5.05775 39.3909 4.87233C38.9436 4.68691 38.4618 4.59802 37.9773 4.61154H33.5802V4.61316Z" fill="#5F6368"/>
<path d="M50.3379 8.06604C52.2759 8.06604 53.8057 8.58034 54.9272 9.60893C56.0487 10.6375 56.6089 12.0478 56.6079 13.8397V22.3871H54.0999V20.4625H53.9859C52.9002 22.0474 51.4562 22.8399 49.6539 22.8399C48.1155 22.8399 46.8284 22.3871 45.7926 21.4814C45.2956 21.0657 44.8982 20.5451 44.6294 19.9576C44.3606 19.37 44.2272 18.7303 44.239 18.0851C44.239 16.65 44.7851 15.5088 45.8773 14.6613C46.9695 13.8139 48.4276 13.3891 50.2516 13.3869C51.8085 13.3869 53.0907 13.6699 54.0983 14.236V13.6408C54.1012 13.2009 54.0056 12.7659 53.8183 12.3673C53.6309 11.9687 53.3567 11.6165 53.0153 11.3362C52.3219 10.715 51.4183 10.376 50.4845 10.3868C49.0199 10.3868 47.8609 11.0003 47.0075 12.2273L44.6982 10.7831C45.9685 8.97172 47.8484 8.06604 50.3379 8.06604ZM46.9456 18.1417C46.9439 18.4731 47.0219 18.8001 47.1732 19.0955C47.3244 19.3909 47.5446 19.6461 47.8153 19.8399C48.3952 20.2928 49.1149 20.5328 49.8526 20.5191C50.959 20.5173 52.0196 20.0799 52.8019 19.3029C53.6705 18.491 54.1048 17.5385 54.1048 16.4452C53.2872 15.7983 52.1472 15.4748 50.6848 15.4748C49.6197 15.4748 48.7316 15.7298 48.0205 16.2398C47.3023 16.7573 46.9456 17.3864 46.9456 18.1417Z" fill="#5F6368"/>
<path d="M71.0044 8.51886L62.2493 28.5004H59.5426L62.7916 21.5089L57.0347 8.51886H59.8846L64.0456 18.4813H64.1026L68.1495 8.51886H71.0044Z" fill="#5F6368"/>
<path d="M22.9849 12.4101C22.9859 11.6165 22.9183 10.8244 22.783 10.0424H11.7251V14.5271H18.0585C17.9289 15.2434 17.6546 15.9262 17.2521 16.5343C16.8497 17.1425 16.3273 17.6634 15.7167 18.0657V20.9768H19.4965C21.7097 18.9503 22.9849 15.9535 22.9849 12.4101Z" fill="#4285F4"/>
<path d="M11.725 23.7892C14.8893 23.7892 17.5536 22.7574 19.4965 20.9784L15.7166 18.0673C14.6645 18.7757 13.3096 19.18 11.725 19.18C8.66659 19.18 6.07068 17.1325 5.1424 14.3734H1.24854V17.3735C2.22447 19.302 3.72097 20.9233 5.57094 22.0562C7.42092 23.1891 9.55157 23.7891 11.725 23.7892Z" fill="#34A853"/>
<path d="M5.14243 14.3734C4.65169 12.9276 4.65169 11.362 5.14243 9.9162V6.91614H1.24857C0.427573 8.53852 0 10.3291 0 12.1448C0 13.9605 0.427573 15.7511 1.24857 17.3735L5.14243 14.3734Z" fill="#FBBC04"/>
<path d="M11.725 5.10965C13.3972 5.08252 15.013 5.70995 16.2231 6.85632L19.5697 3.5328C17.4476 1.55337 14.6362 0.46663 11.725 0.500398C9.55157 0.500496 7.42092 1.1005 5.57094 2.23342C3.72097 3.36634 2.22447 4.98758 1.24854 6.91615L5.1424 9.91621C6.07068 7.15713 8.66659 5.10965 11.725 5.10965Z" fill="#EA4335"/>
</svg>
