<svg width="66" height="39" viewBox="0 0 66 39" fill="none" xmlns="http://www.w3.org/2000/svg">
<path d="M65.4043 19.5C65.4043 30.2 56.7043 39 45.9043 39C35.2043 39 26.4043 30.2 26.4043 19.5C26.4043 8.8 35.1043 0 45.8043 0C56.7043 0 65.4043 8.8 65.4043 19.5Z" fill="#F9B50B"/>
<path d="M39.3043 19.6C39.3043 18.2 39.1043 16.8 38.9043 15.5H26.9043C27.0043 14.8 27.2043 14.2 27.4043 13.4H38.1043C37.9043 12.7 37.6043 12 37.3043 11.3H28.2043C28.5043 10.6 28.9043 10 29.3043 9.2H36.2043C35.8043 8.5 35.3043 7.8 34.7043 7.1H30.9043C31.5043 6.4 32.1043 5.8 32.9043 5.1C29.5043 1.9 24.9043 0 19.8043 0C9.2043 0.3 0.404297 8.8 0.404297 19.5C0.404297 30.2 9.1043 39 19.9043 39C25.0043 39 29.5043 37 33.0043 33.9C33.7043 33.3 34.3043 32.6 35.0043 31.8H31.0043C30.5043 31.2 30.0043 30.5 29.6043 29.8H36.4043C36.8043 29.2 37.2043 28.5 37.5043 27.7H28.4043C28.1043 27.1 27.8043 26.4 27.6043 25.6H38.3043C38.9043 23.8 39.3043 21.8 39.3043 19.6Z" fill="#C8191C"/>
<path d="M26.8042 24.5L27.1042 22.7C27.0042 22.7 26.8042 22.8 26.6042 22.8C25.9042 22.8 25.8042 22.4 25.9042 22.2L26.5042 18.6H27.6042L27.9042 16.6H26.9042L27.1042 15.4H25.0042C25.0042 15.4 23.8042 22.2 23.8042 23C23.8042 24.2 24.5042 24.8 25.5042 24.8C26.1042 24.8 26.6042 24.6 26.8042 24.5Z" fill="white"/>
<path d="M27.5044 21.2C27.5044 24.1 29.5044 24.8 31.1044 24.8C32.6044 24.8 33.3044 24.5 33.3044 24.5L33.7044 22.5C33.7044 22.5 32.6044 23 31.5044 23C29.2044 23 29.6044 21.3 29.6044 21.3H33.8044C33.8044 21.3 34.1044 20 34.1044 19.4C34.1044 18.1 33.4044 16.4 31.1044 16.4C29.1044 16.3 27.5044 18.6 27.5044 21.2ZM31.1044 18.2C32.2044 18.2 32.0044 19.5 32.0044 19.6H29.7044C29.8044 19.5 30.0044 18.2 31.1044 18.2Z" fill="white"/>
<path d="M44.2044 24.5L44.6044 22.2C44.6044 22.2 43.6044 22.7 42.8044 22.7C41.4044 22.7 40.7044 21.6 40.7044 20.3C40.7044 17.8 41.9044 16.5 43.4044 16.5C44.4044 16.5 45.3044 17.1 45.3044 17.1L45.6044 14.9C45.6044 14.9 44.4044 14.4 43.2044 14.4C40.8044 14.4 38.5044 16.5 38.5044 20.4C38.5044 23 39.7044 24.7 42.2044 24.7C43.1044 24.8 44.2044 24.5 44.2044 24.5Z" fill="white"/>
<path d="M15.5042 16.3C14.1042 16.3 13.0042 16.7 13.0042 16.7L12.7042 18.5C12.7042 18.5 13.6042 18.1 15.0042 18.1C15.7042 18.1 16.3042 18.2 16.3042 18.8C16.3042 19.2 16.2042 19.3 16.2042 19.3H15.3042C13.5042 19.3 11.6042 20 11.6042 22.4C11.6042 24.3 12.8042 24.7 13.6042 24.7C15.0042 24.7 15.7042 23.8 15.8042 23.8L15.7042 24.6H17.4042L18.2042 18.9C18.2042 16.4 16.2042 16.3 15.5042 16.3ZM15.9042 20.9C15.9042 21.2 15.7042 22.9 14.5042 22.9C13.9042 22.9 13.7042 22.4 13.7042 22.1C13.7042 21.6 14.0042 20.9 15.6042 20.9C15.8042 20.9 15.9042 20.9 15.9042 20.9Z" fill="white"/>
<path d="M20.2043 24.7C20.7043 24.7 23.3043 24.8 23.3043 22C23.3043 19.4 20.8043 19.9 20.8043 18.9C20.8043 18.4 21.2043 18.2 21.9043 18.2C22.2043 18.2 23.3043 18.3 23.3043 18.3L23.6043 16.4C23.6043 16.4 22.9043 16.2 21.6043 16.2C20.1043 16.2 18.5043 16.8 18.5043 18.9C18.5043 21.3 21.1043 21.1 21.1043 22C21.1043 22.6 20.4043 22.7 19.9043 22.7C19.0043 22.7 18.0043 22.4 18.0043 22.4L17.7043 24.3C17.9043 24.5 18.5043 24.7 20.2043 24.7Z" fill="white"/>
<path d="M61.4044 14.7L61.0044 17.5C61.0044 17.5 60.2044 16.5 59.0044 16.5C57.1044 16.5 55.5044 18.8 55.5044 21.5C55.5044 23.2 56.3044 24.9 58.1044 24.9C59.3044 24.9 60.1044 24.1 60.1044 24.1L60.0044 24.8H62.1044L63.6044 14.9L61.4044 14.7ZM60.4044 20.1C60.4044 21.2 59.9044 22.7 58.7044 22.7C58.0044 22.7 57.6044 22.1 57.6044 21C57.6044 19.3 58.3044 18.3 59.3044 18.3C60.0044 18.4 60.4044 18.9 60.4044 20.1Z" fill="white"/>
<path d="M4.20435 24.6L5.40435 17.2L5.60435 24.6H7.00435L9.70435 17.2L8.60435 24.6H10.8043L12.5043 14.7H9.10435L7.00435 20.8L6.90435 14.7H3.90435L2.20435 24.6H4.20435Z" fill="white"/>
<path d="M36.2043 24.6C36.8043 21.2 36.9043 18.4 38.4043 18.9C38.6043 17.6 38.9043 17 39.1043 16.5H38.7043C37.8043 16.5 37.0043 17.7 37.0043 17.7L37.2043 16.6H35.2043L33.9043 24.6H36.2043Z" fill="white"/>
<path d="M49.0042 16.3C47.6042 16.3 46.5042 16.7 46.5042 16.7L46.2042 18.5C46.2042 18.5 47.1042 18.1 48.5042 18.1C49.2042 18.1 49.8042 18.2 49.8042 18.8C49.8042 19.2 49.7042 19.3 49.7042 19.3H48.8042C47.0042 19.3 45.1042 20 45.1042 22.4C45.1042 24.3 46.3042 24.7 47.1042 24.7C48.5042 24.7 49.2042 23.8 49.3042 23.8L49.2042 24.6H51.1042L51.9042 18.9C51.9042 16.4 49.7042 16.3 49.0042 16.3ZM49.5042 20.9C49.5042 21.2 49.3042 22.9 48.1042 22.9C47.5042 22.9 47.3042 22.4 47.3042 22.1C47.3042 21.6 47.6042 20.9 49.2042 20.9C49.4042 20.9 49.4042 20.9 49.5042 20.9Z" fill="white"/>
<path d="M53.5043 24.6C54.1043 21.2 54.2043 18.4 55.7043 18.9C55.9043 17.6 56.2043 17 56.4043 16.5H56.0043C55.1043 16.5 54.3043 17.7 54.3043 17.7L54.5043 16.6H52.5043L51.2043 24.6H53.5043Z" fill="white"/>
</svg>
