<svg width="54" height="16" viewBox="0 0 54 16" fill="none" xmlns="http://www.w3.org/2000/svg">
<path d="M47.9999 0.322693H37.7C38.3 3.72269 41.6 6.9227 45.2 6.9227H53.4C53.5 6.6227 53.4999 6.12269 53.4999 5.82269C53.4999 2.82269 50.9999 0.322693 47.9999 0.322693Z" fill="url(#paint0_linear_39_13743)"/>
<path d="M38.6001 7.52271V15.8227H43.6001V11.4227H48.0001C50.4001 11.4227 52.5001 9.72271 53.2001 7.52271H38.6001Z" fill="#4FAD50"/>
<path d="M21 0.322693V15.7227H25.4C25.4 15.7227 26.5 15.7227 27.1 14.6227C30.1 8.7227 31 6.9227 31 6.9227H31.6V15.7227H36.6V0.322693H32.2C32.2 0.322693 31.1 0.422699 30.5 1.4227C28 6.5227 26.6 9.1227 26.6 9.1227H26V0.322693H21Z" fill="#4FAD50"/>
<path d="M0 15.8227V0.422729H5C5 0.422729 6.40001 0.422726 7.20001 2.62273C9.20001 8.42273 9.40002 9.22273 9.40002 9.22273C9.40002 9.22273 9.80001 7.82273 11.6 2.62273C12.4 0.422726 13.8 0.422729 13.8 0.422729H18.8V15.8227H13.8V7.52274H13.2L10.4 15.8227H8.20001L5.40002 7.52274H4.80002V15.8227H0Z" fill="#4FAD50"/>
<defs>
<linearGradient id="paint0_linear_39_13743" x1="37.6822" y1="3.67" x2="53.4645" y2="3.67" gradientUnits="userSpaceOnUse">
<stop stop-color="#27B1E6"/>
<stop offset="1" stop-color="#148ACA"/>
</linearGradient>
</defs>
</svg>
