<svg width="42" height="43" viewBox="0 0 42 43" fill="none" xmlns="http://www.w3.org/2000/svg">
<path d="M33.1657 26.5C33.8657 26.8 34.1657 27.8 34.1657 28.3C34.2657 29.1 34.0657 29.5 33.7657 29.5C33.4657 29.5 33.0657 29.2 32.6657 28.5C32.2657 27.8 32.0657 27.1 32.2657 26.7C32.5657 26.5 32.8657 26.4 33.1657 26.5Z" fill="#F28A1A"/>
<path d="M29.0655 29.6C29.4655 29.6 29.9655 29.8 30.4655 30.2C31.2655 30.9 31.5655 31.7 31.1655 32.3C30.9655 32.6 30.4655 32.8 30.0655 32.8C29.5655 32.8 29.0655 32.6 28.7655 32.3C27.9655 31.6 27.7655 30.6 28.2655 30C28.3655 29.8 28.6655 29.6 29.0655 29.6Z" fill="#F28A1A"/>
<path d="M19.5656 37.5C9.16562 37.5 0.765625 29.1 0.765625 18.8C0.765625 8.5 9.16562 0 19.5656 0C29.9656 0 38.3656 8.4 38.3656 18.8C38.3656 22.3 37.3656 25.6 35.7656 28.4C35.6656 28.5 35.5656 28.5 35.5656 28.3C34.8656 23.7 32.0656 21.2 28.0656 20.4C27.6656 20.3 27.6656 20.1 28.1656 20.1C29.4656 20 31.1656 20 32.1656 20.2C32.2656 19.7 32.2656 19.2 32.2656 18.8C32.2656 12 26.6656 6.4 19.8656 6.4C13.0656 6.4 7.46562 12 7.46562 18.8C7.46562 25.6 13.0656 31.2 19.8656 31.2H20.4656C20.2656 30.1 20.1656 29 20.2656 27.8C20.2656 27 20.4656 26.9 20.7656 27.5C22.4656 30.5 24.9656 33.1 29.7656 34.2C33.6656 35.1 37.5656 36.1 41.8656 41.4C42.2656 41.9 41.6656 42.4 41.2656 42C36.9656 38.2 33.0656 36.9 29.4656 36.9C24.9656 37 22.2656 37.5 19.5656 37.5Z" fill="#F28A1A"/>
</svg>
