<svg width="69" height="21" viewBox="0 0 69 21" fill="none" xmlns="http://www.w3.org/2000/svg">
<path d="M63.8043 0.299988H59.5043C58.2043 0.299988 57.2043 0.699988 56.6043 1.99999L48.4043 20.7H54.2043C54.2043 20.7 55.2043 18.2 55.4043 17.6C56.0043 17.6 61.7043 17.6 62.5043 17.6C62.7043 18.3 63.2043 20.6 63.2043 20.6H68.4043L63.8043 0.299988ZM57.0043 13.4C57.5043 12.2 59.2043 7.69999 59.2043 7.69999C59.2043 7.79999 59.7043 6.49999 59.9043 5.79999L60.3043 7.59999C60.3043 7.59999 61.4043 12.5 61.6043 13.5H57.0043V13.4Z" fill="#3362AB"/>
<path d="M48.8043 14C48.8043 18.2 45.0043 21 39.1043 21C36.6043 21 34.2043 20.5 32.9043 19.9L33.7043 15.3L34.4043 15.6C36.2043 16.4 37.4043 16.7 39.6043 16.7C41.2043 16.7 42.9043 16.1 42.9043 14.7C42.9043 13.8 42.2043 13.2 40.0043 12.2C37.9043 11.2 35.1043 9.6 35.1043 6.7C35.1043 2.7 39.0043 0 44.5043 0C46.6043 0 48.4043 0.4 49.5043 0.9L48.7043 5.3L48.3043 4.9C47.3043 4.5 46.0043 4.1 44.1043 4.1C42.0043 4.2 41.0043 5.1 41.0043 5.9C41.0043 6.8 42.2043 7.5 44.1043 8.4C47.3043 9.9 48.8043 11.6 48.8043 14Z" fill="#3362AB"/>
<path d="M0.00439453 0.499976L0.104395 0.0999756H8.70439C9.90439 0.0999756 10.8044 0.499976 11.1044 1.79998L13.0044 10.8C11.1044 5.99998 6.70439 2.09998 0.00439453 0.499976Z" fill="#F9B50B"/>
<path d="M25.1044 0.300012L16.4044 20.6H10.5044L5.50439 3.60001C9.10439 5.90001 12.1044 9.50001 13.2044 12L13.8044 14.1L19.2044 0.200012H25.1044V0.300012Z" fill="#3362AB"/>
<path d="M27.4043 0.200012H32.9043L29.4043 20.6H23.9043L27.4043 0.200012Z" fill="#3362AB"/>
</svg>
