<svg width="43" height="42" viewBox="0 0 43 42" fill="none" xmlns="http://www.w3.org/2000/svg">
<path d="M27.3656 20.2727L22.8656 15.3727L17.8656 19.7727L22.3656 24.7727L27.3656 20.2727Z" fill="#137ABE"/>
<path d="M14.2656 11.3727L18.7656 16.2727L23.7656 11.8727L19.2656 6.97268L14.2656 11.3727Z" fill="#137ABE"/>
<path d="M30.8656 28.7727L26.3656 23.8727L21.3656 28.3727L25.8656 33.2727L30.8656 28.7727Z" fill="#137ABE"/>
<path d="M25.6656 36.9727L17.4656 27.8727L19.7656 25.8727L13.9656 19.4727L16.2656 17.4727L10.4656 11.0727L19.5656 2.97268L22.4656 6.07268L27.4656 1.77268L30.3656 4.77268L32.2656 3.07268C31.8656 2.87268 31.3656 2.57268 30.9656 2.37268C28.0656 1.17268 24.9656 0.372681 21.6656 0.372681C10.1656 0.372681 0.765625 9.67268 0.765625 21.0727C0.765625 32.4727 10.1656 41.7727 21.7656 41.7727C25.5656 41.7727 29.0656 40.7727 32.0656 39.0727C33.0656 38.4727 33.9656 37.8727 34.8656 37.2727L30.6656 32.5727L25.6656 36.9727Z" fill="#137ABE"/>
<path d="M23.4656 8.97268L26.7656 12.6727L30.5656 9.37268L27.1656 5.67268L23.4656 8.97268Z" fill="#137ABE"/>
<path d="M33.9656 16.7727L30.5656 13.0727L26.8656 16.4727L30.2656 20.0727L33.9656 16.7727Z" fill="#137ABE"/>
<path d="M37.1656 24.5727L33.7656 20.8727L30.0656 24.1727L33.4656 27.9727L37.1656 24.5727Z" fill="#137ABE"/>
<path d="M37.3656 12.3727L34.8656 14.5727L37.1656 17.0727L39.5656 14.8727L37.3656 12.3727Z" fill="#137ABE"/>
<path d="M38.0656 21.8727L40.2656 24.3727L42.7656 22.1727L40.4656 19.6727L38.0656 21.8727Z" fill="#137ABE"/>
<path d="M31.6656 7.27268L33.9656 9.77268L36.3656 7.57268L34.1656 5.07268L31.6656 7.27268Z" fill="#137ABE"/>
<path d="M33.3656 31.6727L36.7656 35.3727L40.4656 32.0727L37.0656 28.3727L33.3656 31.6727Z" fill="#137ABE"/>
</svg>
