<svg width="39" height="37" viewBox="0 0 39 37" fill="none" xmlns="http://www.w3.org/2000/svg">
<path d="M38.7 14.7376C38.5 13.5376 37.4 12.7376 35.9 12.7376C35.4 12.7376 35 12.7376 34.5 12.7376C33.6 12.6376 33.4 12.9376 33.4 13.6376C33.4 17.1376 33.4 20.5376 33.4 24.0376C33.4 25.8376 31.6 27.7376 29.5 28.1376C22.9 29.6376 16.3 31.0376 9.69998 32.5376C8.99998 32.7376 8.19999 32.7376 7.39999 32.7376C7.09999 32.7376 6.6 32.5376 6.5 32.2376C6.4 32.0376 6.69999 31.6376 6.89999 31.4376C7.19999 31.2376 7.6 31.0376 8 30.8376C9.2 30.4376 10.5 30.0376 11.7 29.6376C16.6 28.0376 21.5 26.4376 26.4 24.7376C28.6 24.0376 29.8 22.5376 29.8 20.6376C29.9 14.6376 29.8 8.53756 29.8 2.53756C29.8 1.53756 29.3 0.737565 28.2 0.337565C26.9 -0.162435 25.7 0.237559 24.6 0.737559C17.6 4.03756 10.7 7.33757 3.69998 10.6376C1.69998 11.6376 0.5 13.0376 0.5 15.0376C0.5 20.7376 0.5 26.4376 0.5 32.1376C0.5 32.4376 0.499976 32.7376 0.599976 32.9376C1.29998 34.8376 3.1 36.0376 5.5 36.0376C10.4 36.0376 15.3 36.0376 20.2 36.0376C25.1 36.0376 29.9 36.0376 34.8 36.0376C35.9 36.0376 36.8 35.8376 37.6 35.1376C38.6 34.3376 38.6 33.2376 38.6 32.2376C38.6 26.6376 38.6 21.1376 38.6 15.5376C38.8 15.4376 38.8 15.0376 38.7 14.7376ZM18.3 12.9376C18.8 11.6376 19.9 10.8376 21.5 10.6376C22.6 10.5376 23.5 11.1376 23.7 12.1376C23.9 13.6376 22.1 15.4376 20.2 15.4376C18.7 15.4376 17.8 14.3376 18.3 12.9376Z" fill="#E47418"/>
</svg>
