<svg width="500" height="500" viewBox="0 0 500 500" fill="none" xmlns="http://www.w3.org/2000/svg">
<path d="M47.48 209.13L98.11 208.89L148.74 208.8L250 208.63L351.26 208.8L401.89 208.89L452.52 209.13L401.89 209.38L351.26 209.47L250 209.63L148.74 209.46L98.11 209.38L47.48 209.13Z" fill="#EBEBEB"/>
<path d="M47.48 243.72L98.11 243.47L148.74 243.39L250 243.22L351.26 243.38L401.89 243.47L452.52 243.72L401.89 243.96L351.26 244.05L250 244.22L148.74 244.05L98.11 243.96L47.48 243.72Z" fill="#EBEBEB"/>
<path d="M47.48 174.58L98.11 174.34L148.74 174.25L250 174.08L351.26 174.25L401.89 174.34L452.52 174.58L401.89 174.82L351.26 174.91L250 175.08L148.74 174.91L98.11 174.82L47.48 174.58Z" fill="#EBEBEB"/>
<path d="M47.48 278.3L98.11 278.06L148.74 277.97L250 277.8L351.26 277.97L401.89 278.06L452.52 278.3L401.89 278.55L351.26 278.63L250 278.8L148.74 278.63L98.11 278.55L47.48 278.3Z" fill="#EBEBEB"/>
<path d="M47.48 312.89L98.11 312.64L148.74 312.55L250 312.39L351.26 312.55L401.89 312.64L452.52 312.89L401.89 313.13L351.26 313.22L250 313.38L148.74 313.22L98.11 313.13L47.48 312.89Z" fill="#EBEBEB"/>
<path d="M47.48 347.47L98.11 347.23L148.74 347.14L250 346.97L351.26 347.14L401.89 347.23L452.52 347.47L401.89 347.71L351.26 347.8L250 347.97L148.74 347.8L98.11 347.71L47.48 347.47Z" fill="#EBEBEB"/>
<path d="M284.58 139.55L284.83 169.62L284.92 199.7L285.08 259.84L284.92 319.98L284.83 350.06L284.58 380.13L284.34 350.06L284.25 319.98L284.08 259.84L284.25 199.7L284.34 169.62L284.58 139.55Z" fill="#EBEBEB"/>
<path d="M250 139.55L250.24 169.62L250.33 199.7L250.5 259.84L250.33 319.98L250.25 350.06L250 380.13L249.75 350.06L249.67 319.98L249.5 259.84L249.67 199.7L249.76 169.62L250 139.55Z" fill="#EBEBEB"/>
<path d="M215.42 139.55L215.66 169.62L215.75 199.7L215.91 259.84L215.75 319.98L215.66 350.06L215.42 380.13L215.17 350.06L215.08 319.98L214.92 259.84L215.08 199.7L215.17 169.62L215.42 139.55Z" fill="#EBEBEB"/>
<path d="M180.83 139.55L181.07 169.62L181.16 199.7L181.33 259.84L181.16 319.98L181.08 350.06L180.83 380.13L180.59 350.06L180.5 319.98L180.33 259.84L180.5 199.7L180.59 169.62L180.83 139.55Z" fill="#EBEBEB"/>
<path d="M388.34 139.55L388.58 169.62L388.67 199.7L388.84 259.84L388.67 319.98L388.58 350.06L388.34 380.13L388.09 350.06L388 319.98L387.84 259.84L388.01 199.7L388.09 169.62L388.34 139.55Z" fill="#EBEBEB"/>
<path d="M353.75 139.55L354 169.62L354.08 199.7L354.25 259.84L354.08 319.98L354 350.06L353.75 380.13L353.51 350.06L353.42 319.98L353.25 259.84L353.42 199.7L353.51 169.62L353.75 139.55Z" fill="#EBEBEB"/>
<path d="M319.17 139.55L319.41 169.62L319.5 199.7L319.67 259.84L319.5 319.98L319.41 350.06L319.17 380.13L318.92 350.06L318.84 319.98L318.67 259.84L318.84 199.7L318.93 169.62L319.17 139.55Z" fill="#EBEBEB"/>
<path d="M422.92 139.55L423.16 169.62L423.25 199.7L423.42 259.84L423.25 319.98L423.17 350.06L422.92 380.13L422.68 350.06L422.59 319.98L422.42 259.84L422.59 199.7L422.68 169.62L422.92 139.55Z" fill="#EBEBEB"/>
<path d="M388.34 139.55L388.58 169.62L388.67 199.7L388.84 259.84L388.67 319.98L388.58 350.06L388.34 380.13L388.09 350.06L388 319.98L387.84 259.84L388.01 199.7L388.09 169.62L388.34 139.55Z" fill="#EBEBEB"/>
<path d="M146.25 139.55L146.49 169.62L146.58 199.7L146.75 259.84L146.58 319.98L146.49 350.06L146.25 380.13L146 350.06L145.91 319.98L145.75 259.84L145.92 199.7L146 169.62L146.25 139.55Z" fill="#EBEBEB"/>
<path d="M111.66 139.55L111.91 169.62L111.99 199.7L112.16 259.84L112 319.98L111.91 350.06L111.66 380.13L111.42 350.06L111.33 319.98L111.16 259.84L111.33 199.7L111.42 169.62L111.66 139.55Z" fill="#EBEBEB"/>
<path d="M77.08 139.55L77.32 169.62L77.41 199.7L77.58 259.84L77.41 319.98L77.32 350.06L77.08 380.13L76.83 350.06L76.75 319.98L76.58 259.84L76.75 199.7L76.83 169.62L77.08 139.55Z" fill="#EBEBEB"/>
<path d="M206.74 57.71H46.74V70.02H206.74V57.71Z" fill="#EBEBEB"/>
<path d="M187.21 183.93C185.772 183.858 184.365 183.488 183.078 182.844C181.79 182.2 180.65 181.297 179.73 180.19C175.42 175.49 173.13 167.29 173.73 158.78C174.15 153.03 176.83 145.64 179.42 138.5C182.01 131.36 184.53 124.42 184.59 119.68L185.3 63.68H188.73V64.99H186.61L185.92 119.68C185.85 124.68 183.34 131.58 180.67 138.93C178.11 145.99 175.47 153.28 175.06 158.86C174.46 167.02 176.62 174.86 180.7 179.28C181.498 180.257 182.491 181.056 183.615 181.628C184.74 182.199 185.971 182.53 187.23 182.6L187.21 183.93Z" fill="#EBEBEB"/>
<path d="M190.26 183.42C189.298 183.765 188.282 183.938 187.26 183.93V182.62C188.519 182.58 189.757 182.279 190.895 181.737C192.032 181.195 193.045 180.423 193.87 179.47C198.06 175.13 200.42 167.37 200.03 159.2C199.77 153.61 197.31 146.25 194.93 139.13C192.45 131.71 190.12 124.71 190.18 119.75L190.88 65.07H188.76V63.76H192.18L191.47 119.76C191.41 124.5 193.71 131.4 196.15 138.7C198.59 146 201.05 153.36 201.32 159.13C201.73 167.64 199.23 175.78 194.8 180.37C193.542 181.723 191.988 182.766 190.26 183.42Z" fill="#EBEBEB"/>
<path d="M187.21 183.93C186.504 183.891 185.814 183.706 185.184 183.385C184.554 183.065 183.997 182.617 183.55 182.07C179.89 178.17 177.78 168.84 178.31 158.86C178.61 153.13 180.38 145.75 182.1 138.61C183.82 131.47 185.51 124.47 185.57 119.69L186.28 63.69H188.75V65H187.6L186.9 119.69C186.83 124.61 185.17 131.55 183.4 138.89C181.69 145.98 179.93 153.3 179.64 158.89C179.14 168.4 181.15 177.55 184.52 181.15C184.854 181.562 185.268 181.902 185.737 182.15C186.207 182.398 186.721 182.547 187.25 182.59L187.21 183.93Z" fill="#EBEBEB"/>
<path d="M188.66 183.69C188.196 183.859 187.704 183.94 187.21 183.93H186.56L188.09 63.72H191.21L190.5 119.72C190.44 124.49 191.91 131.4 193.5 138.72C195.09 146.04 196.62 153.33 196.77 159.06C197.04 169.06 194.7 178.33 190.94 182.14C190.311 182.827 189.53 183.357 188.66 183.69ZM187.89 182.55C188.698 182.322 189.426 181.872 189.99 181.25C193.45 177.74 195.7 168.64 195.44 159.13C195.29 153.51 193.72 146.13 192.19 139.02C190.62 131.64 189.12 124.66 189.19 119.74L189.89 65.05H189.39L187.89 182.55Z" fill="#EBEBEB"/>
<path d="M183.15 61.1L182.59 105.31L193.84 105.45L194.41 60.99L183.15 61.1Z" fill="#A6A6A6"/>
<path d="M129.12 92.65H124.37V152.69H129.12V92.65Z" fill="#EBEBEB"/>
<path d="M139.6 150.07H113.88L112.57 186H140.92L139.6 150.07ZM121.35 181.74H118.68V155.2H121.35V181.74ZM128.07 181.74H125.42V155.2H128.07V181.74ZM134.79 181.74H132.13V155.2H134.79V181.74Z" fill="#EBEBEB"/>
<path d="M121.92 61.1L121.35 105.31L132.61 105.45L133.18 60.99L121.92 61.1Z" fill="#A6A6A6"/>
<path d="M67.39 120.88V92.12H59.91V179.91H96V120.91L67.39 120.88ZM88.74 131.22C88.3143 131.22 87.8982 131.094 87.5445 130.857C87.1907 130.62 86.9151 130.284 86.7527 129.89C86.5903 129.497 86.5483 129.064 86.632 128.647C86.7158 128.23 86.9216 127.846 87.2233 127.546C87.5249 127.246 87.909 127.042 88.3267 126.96C88.7444 126.878 89.177 126.922 89.5697 127.087C89.9624 127.251 90.2975 127.528 90.5325 127.883C90.7675 128.238 90.892 128.654 90.89 129.08C90.89 129.362 90.8343 129.641 90.7261 129.901C90.618 130.162 90.4594 130.398 90.2596 130.597C90.0599 130.796 89.8228 130.953 89.562 131.06C89.3012 131.167 89.0218 131.221 88.74 131.22Z" fill="#EBEBEB"/>
<path d="M58.86 61.1L58.29 105.31L69.55 105.45L70.12 60.99L58.86 61.1Z" fill="#A6A6A6"/>
<path d="M295.35 179.72H458.02L463.26 57.71H290.11L295.35 179.72Z" fill="#EBEBEB"/>
<path d="M373.23 168.51H307.44L303.15 69.51H373.23V168.51ZM308.4 167.51H372.23V70.51H304.23L308.4 167.51Z" fill="#DBDBDB"/>
<path d="M367.29 135.74H360.46V100H367.29V135.74ZM361.46 134.74H366.29V101H361.46V134.74Z" fill="#DBDBDB"/>
<path d="M445.93 168.51H380.14V69.51H450.22L445.93 168.51ZM381.14 167.51H445L449.2 70.51H381.2L381.14 167.51Z" fill="#DBDBDB"/>
<path d="M392.91 135.74H386.08V100H392.91V135.74ZM387.08 134.74H391.91V101H387.08V134.74Z" fill="#DBDBDB"/>
<path d="M250 443.24C360.28 443.24 449.68 437.308 449.68 429.99C449.68 422.672 360.28 416.74 250 416.74C139.72 416.74 50.32 422.672 50.32 429.99C50.32 437.308 139.72 443.24 250 443.24Z" fill="#EBEBEB"/>
<path d="M44.21 382.94L95.66 382.7L147.1 382.61L250 382.44L352.89 382.61L404.34 382.7L455.79 382.94L404.34 383.19L352.89 383.27L250 383.44L147.1 383.27L95.66 383.18L44.21 382.94Z" fill="#263238"/>
<path d="M215.13 210.88C209.13 208.08 191.76 209 184.43 216.26C177.1 223.52 174.51 237.33 177.03 239.26C179.55 241.19 191.86 242.86 201.17 240.12C210.48 237.38 218.1 212.27 215.13 210.88Z" fill="#263238"/>
<path d="M215.14 210.93C215.36 210.93 215.46 210.58 215.22 210.52C209.7 209.15 203.33 209.71 197.7 210.06C193.15 210.35 188.44 210.84 184.35 212.98C182.386 213.979 180.662 215.393 179.296 217.122C177.931 218.852 176.956 220.857 176.44 223C175.18 227.86 174.56 233.94 176.01 238.81C176.01 238.95 176.3 238.97 176.29 238.81C175.78 228.99 176.05 217.19 186.64 212.92C195.63 209.3 205.76 210.89 215.14 210.93Z" fill="#263238"/>
<path d="M178.48 237.08C172.77 236.56 156.01 243.93 151.25 253.96C146.49 263.99 151.61 281.48 154.08 283.21C156.55 284.94 171.08 277.54 176.7 270.99C180.47 266.62 179.64 260.36 179.7 254.33C179.8 245.44 179.37 237.16 178.48 237.08Z" fill="#263238"/>
<path d="M180.32 270.4C184.32 260.01 180.62 248.01 179.1 237.48C179.1 237.37 178.9 237.38 178.9 237.48C178.9 247.25 182.63 256.86 180.63 266.64C179.44 272.45 176.17 277.64 170.63 280.17C165.82 282.33 160.32 282.59 155.15 283.23C154.81 283.23 154.92 283.78 155.25 283.75C165.48 282.76 176.16 281.13 180.32 270.4Z" fill="#263238"/>
<path d="M177.06 237.81C177.37 237.73 177.28 237.25 176.97 237.32C168.25 239.32 157.54 242.66 151.54 249.72C145.05 257.37 147.63 267.45 149.97 276.17C149.97 276.28 150.17 276.25 150.14 276.17C147.89 267.34 145.82 256.56 152.89 249.27C159 243 168.81 239.81 177.06 237.81Z" fill="#263238"/>
<path d="M154.77 283.07C157.77 286.07 161.15 293.93 160.08 301.58C158.25 314.68 163.71 313.7 176.27 321.27C186.88 327.66 185.27 341.27 177.18 345.72C177.18 345.72 183.18 338.91 176.69 332.6C168.89 325.05 144.69 328.15 138.22 311.77C129.87 290.57 154.77 283.07 154.77 283.07Z" fill="#263238"/>
<path d="M157.86 290.35C157.76 290.14 158.13 289.96 158.24 290.18C159.301 292.233 159.979 294.463 160.24 296.76C160.58 299.76 159.74 302.63 159.87 305.62C160.21 313.22 168.53 315.57 174.37 317.86C182.2 320.94 187.12 327.86 184.97 336.45C184.963 336.477 184.946 336.499 184.923 336.513C184.9 336.527 184.872 336.532 184.845 336.525C184.818 336.518 184.796 336.501 184.782 336.478C184.768 336.455 184.763 336.426 184.77 336.4C185.409 333.744 185.308 330.964 184.478 328.362C183.647 325.759 182.119 323.435 180.06 321.64C176 318.19 170.39 317.58 165.89 314.89C162.82 313.04 159.95 310.59 159.42 306.89C159.305 304.828 159.406 302.761 159.72 300.72C159.991 297.161 159.351 293.592 157.86 290.35Z" fill="#263238"/>
<path d="M152.19 283.92C152.29 283.92 152.36 284.03 152.27 284.07C146.33 287.13 140.11 290.13 136.75 296.27C133.14 302.88 134.56 311.08 138.75 317.08C143.46 323.79 150.83 323.59 158.18 324.41C163.5 325.01 168.8 326.01 173.18 329.27C173.31 329.37 173.18 329.59 173.01 329.51C165.66 325.19 157.66 325.27 149.48 324.09C142.8 323.09 138.48 319.35 135.94 313.09C130.36 299.41 139.79 288.7 152.19 283.92Z" fill="#263238"/>
<path d="M211.55 204C210.29 201.37 206.23 203.39 207.5 206C208.77 208.61 212.82 206.62 211.55 204Z" fill="#FFC727"/>
<path d="M212.44 208.11C211.17 205.49 207.11 207.51 208.38 210.11C209.65 212.71 213.71 210.75 212.44 208.11Z" fill="#FFC727"/>
<path d="M214 212.06C212.73 209.43 208.67 211.45 209.94 214.06C211.21 216.67 215.31 214.7 214 212.06Z" fill="#FFC727"/>
<path d="M216.09 215.66C214.82 213.03 210.76 215.05 212.03 217.66C213.3 220.27 217.35 218.3 216.09 215.66Z" fill="#FFC727"/>
<path d="M218.78 218.93C217.51 216.3 213.46 218.32 214.72 220.93C215.98 223.54 220.05 221.56 218.78 218.93Z" fill="#FFC727"/>
<path d="M221.9 221.56C220.63 218.93 216.57 220.95 217.84 223.56C219.11 226.17 223.17 224.19 221.9 221.56Z" fill="#FFC727"/>
<path d="M232.49 257.5C250.18 278.5 264.89 305.31 272.72 311.78C276.82 315.17 336.09 320.05 342.82 321.34C353.08 323.34 337.82 372.16 330.88 370.26C326.38 369.03 259.35 363.73 246.74 349.63C237.04 338.77 221.54 291.85 217.36 271.2C212.72 248.26 225.43 249.12 232.49 257.5Z" fill="#EFB7AF"/>
<path d="M326.32 319.19C346.72 315.01 369.21 313.38 389.03 322.34C391.258 323.274 393.105 324.934 394.27 327.05C403.27 330.91 404.1 336.3 404.1 336.3C411.34 342.44 411.47 348.07 411.47 348.07C411.47 348.07 421.93 352.72 420.17 359.51C418.22 367.13 403.91 359.11 393.35 359.51C369.14 360.45 334.99 368.51 328.04 369.51L326.32 319.19Z" fill="#EFB7AF"/>
<path d="M367.29 342.67C374.42 342.54 381.42 342.22 388.53 343.06C396.33 343.97 403.69 346.16 411.23 348.2C411.277 348.213 411.327 348.207 411.37 348.184C411.413 348.162 411.445 348.123 411.461 348.077C411.476 348.031 411.473 347.98 411.453 347.936C411.432 347.892 411.395 347.858 411.35 347.84C398.29 341.99 381.35 340.14 367.28 342.35C366.94 342.4 366.93 342.68 367.29 342.67Z" fill="#263238"/>
<path d="M364.6 328.14C371.55 328.4 383.75 328.93 404.02 336.51C404.08 336.51 404.15 336.43 404.08 336.4C391.57 329.72 378.66 327.15 364.62 327.81C364.18 327.83 364.14 328.13 364.6 328.14Z" fill="#263238"/>
<path d="M363.31 320.31C375.1 321.19 382.42 323.24 394.21 327.09C394.28 327.09 394.34 327 394.26 326.97C381.32 321.19 375.97 320.56 363.26 319.9C362.84 319.88 362.85 320.27 363.31 320.31Z" fill="#263238"/>
<path d="M361.22 358.84C358.22 360.36 358.96 361.96 364.87 363.17C370.78 364.38 395.19 364.17 394.55 372.69C393.91 381.21 359.45 381.03 349.77 378.26C340.09 375.49 325.39 367.61 325.39 367.61C332.1 366.3 348.08 361.57 361.22 358.84Z" fill="#EFB7AF"/>
<path d="M320.4 315L312.28 372.24C312.28 372.24 251.4 362.24 241.39 350.89C231.38 339.54 221 294.17 216 271.34C211 248.51 223.66 241.25 237.8 260.17C251.94 279.09 268.1 307.96 271.8 309.64C275.5 311.32 320.4 315 320.4 315Z" fill="#EBEBEB"/>
<path d="M327.53 314.39C327.39 314.07 310.1 311.18 310.1 311.18C310.1 311.18 294.7 338.79 294.74 342.09C294.78 345.39 294.56 370.46 294.82 370.77C295.08 371.08 315.87 376.39 316.29 375.77C316.71 375.15 317.94 348.17 318 346.1C318.06 344.03 327.53 314.39 327.53 314.39Z" fill="#FFC727"/>
<path d="M296.29 369.22C277.52 365.42 248.08 358.43 241.39 350.85C231.39 339.53 221.01 294.17 216.02 271.34C213.48 259.7 215.52 252.11 220.02 249.98C230.66 266.24 274.16 332.76 296.29 369.22Z" fill="#C7C7C7"/>
<path d="M241 382.94L239.05 347.15C239.05 347.15 257.92 328.94 255.22 311.15C253.86 302.15 239.73 263.92 229.05 250.15C219.05 237.24 197.74 241.74 188.77 246.97C154.25 267.1 116.49 316.43 93.86 382.97L241 382.94Z" fill="#EBEBEB"/>
<path d="M195.94 247.32C196.171 249.845 196.764 252.324 197.7 254.68C198.606 257.035 199.777 259.28 201.19 261.37C204.038 265.513 207.629 269.094 211.78 271.93C215.946 274.737 220.457 276.995 225.2 278.65L226.99 279.26L227.88 279.56H227.93C227.93 279.56 227.93 279.56 228.21 279.69C228.324 279.771 228.422 279.873 228.5 279.99C228.565 280.078 228.621 280.172 228.67 280.27L228.92 280.73C229.51 281.92 230 283.09 230.48 284.29C231.48 286.67 232.3 289.07 233.11 291.5C234.733 296.361 236.069 301.313 237.11 306.33C238.179 311.363 238.775 316.486 238.89 321.63C239.069 326.856 238.269 332.069 236.53 337C235.611 339.486 234.279 341.798 232.59 343.84C230.88 345.894 228.784 347.593 226.42 348.84L226.88 348.18C226.44 351.09 226 354 225.51 356.9L224.08 365.61C223.62 368.51 223.08 371.41 222.59 374.31C222.1 377.21 221.59 380.1 221 382.99C221.27 380.06 221.6 377.14 221.92 374.21C222.24 371.28 222.56 368.36 222.92 365.44L223.99 356.68C224.33 353.76 224.72 350.85 225.13 347.94L225.19 347.5L225.59 347.28C227.737 346.141 229.64 344.592 231.19 342.72C232.732 340.822 233.945 338.679 234.78 336.38C236.382 331.669 237.094 326.701 236.88 321.73C236.65 311.73 234.43 301.73 231.37 292.14C230.603 289.733 229.76 287.357 228.84 285.01C228.38 283.84 227.89 282.67 227.36 281.58L227.16 281.19L227.08 281.06C227.08 281.06 227.02 281.06 227.22 281.19C227.42 281.32 227.4 281.26 227.39 281.27H227.33L226.42 280.95L224.61 280.31C219.768 278.491 215.19 276.033 211 273C206.801 269.99 203.233 266.185 200.5 261.8C199.156 259.599 198.072 257.25 197.27 254.8C196.444 252.39 195.995 249.867 195.94 247.32Z" fill="#263238"/>
<path d="M195.28 281.07C193.1 289.61 190.81 298.12 188.51 306.62L181.51 332.1L174.26 357.52L170.56 370.2L166.75 382.86L170.08 370.07L173.52 357.31L180.52 331.83L187.77 306.42C190.23 298 192.7 289.5 195.28 281.07Z" fill="#263238"/>
<path d="M201.36 295C201.36 295.609 201.179 296.205 200.841 296.711C200.503 297.218 200.021 297.612 199.459 297.846C198.896 298.079 198.277 298.14 197.679 298.021C197.082 297.902 196.533 297.609 196.102 297.178C195.671 296.747 195.378 296.198 195.259 295.601C195.14 295.003 195.201 294.384 195.434 293.821C195.668 293.259 196.062 292.778 196.569 292.439C197.075 292.101 197.671 291.92 198.28 291.92C199.097 291.92 199.88 292.245 200.458 292.822C201.036 293.4 201.36 294.183 201.36 295Z" fill="#263238"/>
<path d="M230.78 296.58C230.78 297.189 230.599 297.785 230.261 298.291C229.922 298.798 229.441 299.192 228.879 299.426C228.316 299.659 227.697 299.72 227.099 299.601C226.502 299.482 225.953 299.189 225.522 298.758C225.091 298.327 224.798 297.778 224.679 297.181C224.56 296.583 224.621 295.964 224.854 295.401C225.088 294.839 225.482 294.358 225.989 294.019C226.495 293.681 227.091 293.5 227.7 293.5C228.517 293.5 229.3 293.824 229.878 294.402C230.455 294.98 230.78 295.763 230.78 296.58Z" fill="#263238"/>
<path d="M192.2 321.98C193.901 321.98 195.28 320.601 195.28 318.9C195.28 317.199 193.901 315.82 192.2 315.82C190.499 315.82 189.12 317.199 189.12 318.9C189.12 320.601 190.499 321.98 192.2 321.98Z" fill="#263238"/>
<path d="M188.71 343.26C188.71 343.869 188.529 344.465 188.191 344.971C187.853 345.478 187.371 345.872 186.809 346.106C186.246 346.339 185.627 346.4 185.029 346.281C184.432 346.162 183.883 345.869 183.452 345.438C183.021 345.007 182.728 344.458 182.609 343.861C182.49 343.263 182.551 342.644 182.784 342.081C183.018 341.519 183.412 341.038 183.919 340.699C184.425 340.361 185.021 340.18 185.63 340.18C186.447 340.18 187.23 340.505 187.808 341.082C188.386 341.66 188.71 342.443 188.71 343.26Z" fill="#263238"/>
<path d="M178.87 374.39C180.571 374.39 181.95 373.011 181.95 371.31C181.95 369.609 180.571 368.23 178.87 368.23C177.169 368.23 175.79 369.609 175.79 371.31C175.79 373.011 177.169 374.39 178.87 374.39Z" fill="#263238"/>
<path d="M225.88 323.61C227.581 323.61 228.96 322.231 228.96 320.53C228.96 318.829 227.581 317.45 225.88 317.45C224.179 317.45 222.8 318.829 222.8 320.53C222.8 322.231 224.179 323.61 225.88 323.61Z" fill="#263238"/>
<path d="M215.91 375.89C217.611 375.89 218.99 374.511 218.99 372.81C218.99 371.109 217.611 369.73 215.91 369.73C214.209 369.73 212.83 371.109 212.83 372.81C212.83 374.511 214.209 375.89 215.91 375.89Z" fill="#263238"/>
<path d="M219.72 349.42C221.421 349.42 222.8 348.041 222.8 346.34C222.8 344.639 221.421 343.26 219.72 343.26C218.019 343.26 216.64 344.639 216.64 346.34C216.64 348.041 218.019 349.42 219.72 349.42Z" fill="#263238"/>
<path d="M254.65 308.91C253.359 304.172 251.629 299.565 249.48 295.15C249.16 294.43 248.83 293.72 248.48 293.01C248.452 291.789 248.288 290.575 247.99 289.39C247.683 288.077 247.254 286.794 246.71 285.56C246.71 285.49 246.56 285.56 246.58 285.56C246.95 286.82 247.29 288.1 247.58 289.39C247.75 290.22 247.87 291.04 248 291.87C247.31 290.34 246.63 288.81 245.92 287.28C245.3 285.96 244.69 284.65 244.08 283.33C243.47 282.01 242.8 280.62 242.2 279.26C242.2 279.2 242.06 279.26 242.09 279.26C243.09 281.6 243.95 283.98 244.87 286.34C245.79 288.7 246.69 290.99 247.63 293.34C249.597 297.76 251.323 302.283 252.8 306.89C254.101 311.421 254.259 316.203 253.26 320.81C252.205 325.306 250.479 329.618 248.14 333.6C246.83 335.92 245.31 338.11 243.84 340.35C242.37 342.59 240.75 344.7 239.36 346.96C239.354 346.978 239.354 346.998 239.36 347.016C239.366 347.035 239.377 347.051 239.393 347.062C239.409 347.073 239.428 347.079 239.447 347.078C239.466 347.078 239.485 347.072 239.5 347.06C241.21 345.33 242.71 343.42 244.27 341.57C245.796 339.717 247.218 337.781 248.53 335.77C251.22 331.826 253.246 327.468 254.53 322.87C255.724 318.298 255.765 313.502 254.65 308.91Z" fill="#263238"/>
<path d="M181.6 247C157.22 256 77.84 298.68 74.21 320.53C71.51 336.77 86.74 347.24 103.53 345.91C118.14 344.75 171.25 287.55 185.95 271.41C200 256 205.55 238.23 181.6 247Z" fill="#C95F50"/>
<path d="M181.6 247C157.22 256 77.84 298.68 74.21 320.53C71.51 336.77 86.74 347.24 103.53 345.91C118.14 344.75 171.25 287.55 185.95 271.41C200 256 205.55 238.23 181.6 247Z" fill="#EBEBEB"/>
<path d="M182.48 276.16C182.57 276.04 182.42 275.88 182.31 276C178.56 280.06 174.77 284.09 170.91 288.05C167.05 292.01 163.25 296.05 159.37 300C151.65 307.88 143.703 315.523 135.53 322.93C133.24 325.01 130.92 327.04 128.61 329.09C126.3 331.14 123.86 333.15 121.61 335.28C121.54 335.34 121.61 335.45 121.71 335.4C123.98 333.82 126.15 332.06 128.32 330.33C130.49 328.6 132.59 326.88 134.69 325.1C138.89 321.54 143.05 317.94 147.1 314.21C151.15 310.48 155.23 306.58 159.18 302.64C162.39 299.45 165.55 296.2 168.6 292.85C169.16 292.44 169.72 292.04 170.27 291.62C171.38 290.76 172.48 289.88 173.59 289C175.75 287.29 177.78 285.42 179.9 283.66C180.03 283.55 179.84 283.32 179.71 283.42C177.54 285.13 175.3 286.74 173.17 288.49L170.51 290.71C174.64 286 178.63 281.1 182.48 276.16Z" fill="#263238"/>
<path d="M228.79 252.45C228.79 252.45 223.26 270.97 219.84 270.11C209.31 267.46 202.92 249.42 203.08 246.99C203.08 246.37 208.93 232.52 213.48 221.76C216.4 214.84 218.8 209.21 218.8 209.21L239.58 233.33L229.51 251.17L228.79 252.45Z" fill="#EFB7AF"/>
<path d="M239.58 233.33L229.51 251.17C224.928 247.666 221.135 243.236 218.378 238.169C215.621 233.102 213.963 227.511 213.51 221.76C216.43 214.84 218.83 209.21 218.83 209.21L221.5 212.11L239.58 233.33Z" fill="#263238"/>
<path d="M275.62 218.4C262 251.67 240.53 247.27 233.36 244.32C226.85 241.65 205.02 231.72 215.13 197.21C225.24 162.7 245.02 158.52 260.24 163.85C275.46 169.18 289.25 185.12 275.62 218.4Z" fill="#EFB7AF"/>
<path d="M271.56 210.82C270.865 210.348 270.197 209.837 269.56 209.29C268.8 208.841 268.206 208.156 267.87 207.34C267.815 207.062 267.854 206.774 267.981 206.521C268.108 206.267 268.315 206.063 268.57 205.94C269.109 205.771 269.683 205.749 270.233 205.876C270.783 206.002 271.289 206.273 271.7 206.66C272.651 207.318 273.324 208.305 273.59 209.43C273.631 209.685 273.599 209.946 273.497 210.183C273.395 210.42 273.229 210.623 273.016 210.769C272.803 210.914 272.553 210.997 272.295 211.006C272.038 211.015 271.783 210.95 271.56 210.82Z" fill="#263238"/>
<path d="M248.75 203.21C249.414 203.702 250.105 204.156 250.82 204.57C251.484 205.159 252.324 205.511 253.21 205.57C253.489 205.535 253.749 205.407 253.948 205.208C254.147 205.009 254.275 204.749 254.31 204.47C254.301 203.905 254.142 203.352 253.848 202.868C253.555 202.385 253.138 201.988 252.64 201.72C251.712 201.029 250.562 200.705 249.41 200.81C249.149 200.849 248.905 200.962 248.707 201.137C248.51 201.312 248.367 201.54 248.297 201.795C248.227 202.049 248.233 202.318 248.313 202.57C248.394 202.821 248.545 203.043 248.75 203.21Z" fill="#263238"/>
<path d="M250.93 211.08C250.93 210.99 250.71 211.08 250.67 211.2C249.67 213.45 248.23 215.87 245.88 215.67C245.81 215.67 245.76 215.78 245.88 215.81C248.45 216.6 250.38 213.37 250.93 211.08Z" fill="#263238"/>
<path d="M250 207.84C246.56 205.91 242.95 212.94 246.14 214.73C249.33 216.52 252.92 209.46 250 207.84Z" fill="#263238"/>
<path d="M248.46 207.51C247.64 207.59 246.68 207.98 245.9 207.68C245.12 207.38 244.73 206.25 244.54 205.26C244.54 205.15 244.42 205.18 244.37 205.26C243.66 206.59 243.47 208.26 244.81 209.18C246.15 210.1 247.59 209.34 248.63 208.18C248.82 208 248.79 207.47 248.46 207.51Z" fill="#263238"/>
<path d="M263.34 216.76C263.4 216.69 263.45 216.95 263.41 217.04C262.2 219.17 261.18 221.82 262.77 223.56C262.82 223.62 262.77 223.72 262.69 223.68C260.47 222.09 261.86 218.59 263.34 216.76Z" fill="#263238"/>
<path d="M266.46 215.51C270.09 217.07 266.7 224.21 263.34 222.76C259.98 221.31 263.42 214.2 266.46 215.51Z" fill="#263238"/>
<path d="M267.73 216.68C268.11 217.33 268.34 218.28 269 218.68C269.66 219.08 270.7 218.6 271.55 218.1C271.64 218.04 271.66 218.1 271.62 218.23C271.01 219.61 269.89 220.82 268.45 220.46C267.01 220.1 266.82 218.54 267.14 217.03C267.2 216.72 267.57 216.42 267.73 216.68Z" fill="#263238"/>
<path d="M241.68 228C241.9 228.79 242.02 229.76 242.75 230.27C243.552 230.7 244.433 230.962 245.34 231.04C245.361 231.04 245.382 231.048 245.397 231.063C245.412 231.078 245.42 231.099 245.42 231.12C245.42 231.141 245.412 231.162 245.397 231.177C245.382 231.192 245.361 231.2 245.34 231.2C244.799 231.446 244.201 231.539 243.611 231.47C243.021 231.402 242.46 231.173 241.99 230.81C241.62 230.452 241.365 229.991 241.258 229.487C241.151 228.982 241.197 228.458 241.39 227.98C241.46 227.84 241.65 227.89 241.68 228Z" fill="#263238"/>
<path d="M254.79 224.65C254.79 224.65 253.61 228.15 252.84 229.65C252.77 229.79 252.36 229.65 251.84 229.44C251.84 229.44 251.84 229.44 251.78 229.44C250.335 229.022 249.033 228.214 248.017 227.104C247.001 225.994 246.31 224.626 246.02 223.15C246.015 223.108 246.026 223.066 246.049 223.031C246.073 222.995 246.108 222.97 246.148 222.958C246.189 222.946 246.232 222.948 246.271 222.965C246.31 222.982 246.341 223.012 246.36 223.05C247.65 225.381 249.666 227.228 252.1 228.31C252.42 227.94 253.92 222.25 254.17 222.31C255.316 223.013 256.362 223.868 257.28 224.85C259.95 217.63 261.44 210.05 264.2 202.91C264.222 202.859 264.261 202.817 264.311 202.792C264.36 202.767 264.417 202.76 264.471 202.771C264.525 202.783 264.574 202.813 264.608 202.857C264.643 202.9 264.661 202.954 264.66 203.01C263.66 211.07 260.77 219.44 258.21 226.96C257.87 228 255.27 225.22 254.79 224.65Z" fill="#263238"/>
<path d="M251.4 228.39C250.045 229.182 248.509 229.612 246.94 229.64C246.086 229.625 245.258 229.346 244.57 228.84C243.07 227.72 243.65 226.17 244.49 224.98C244.945 224.351 245.472 223.777 246.06 223.27C247.247 225.504 249.118 227.298 251.4 228.39Z" fill="#263238"/>
<path d="M246.94 229.64C246.086 229.625 245.258 229.346 244.57 228.84C243.07 227.72 243.65 226.17 244.49 224.98C246.21 225.89 247.49 227.83 246.94 229.64Z" fill="#FF9CBD"/>
<path d="M270.2 176.45C270.2 176.45 269.09 181.98 265.66 184.7C258.66 190.28 250.78 184.06 246.37 185.47C242.23 186.8 240.48 192.87 236.61 194.33C231.25 196.33 227.16 192.54 225.35 194.78C223.54 197.02 217.94 204.21 214.23 203.65C210.52 203.09 221.89 142.59 263.02 164.8C263.02 164.8 269.93 165.27 276.66 174.13C284.09 183.92 280.44 202.23 280.44 202.23C280.44 202.23 280.34 201.9 279.52 199.94C278.37 197.16 278.4 195.12 277.52 193.24C276.08 190.24 274.46 190.35 272.9 187.39C270.49 182.89 270.2 176.45 270.2 176.45Z" fill="#263238"/>
<path d="M270.7 173.81C270.329 176.209 269.685 178.557 268.78 180.81C268.016 183.064 266.654 185.069 264.84 186.61C262.863 187.859 260.501 188.349 258.19 187.99C255.83 187.75 253.53 186.88 250.97 186.69C249.643 186.579 248.311 186.835 247.12 187.43C246.016 188.104 245.06 188.996 244.31 190.05C242.81 191.98 241.31 193.88 239.14 194.71C238.05 195.142 236.878 195.331 235.707 195.264C234.536 195.197 233.394 194.874 232.36 194.32C230.24 193.32 228.2 191.55 225.68 191.47C228.18 191.76 229.97 193.57 232.1 194.82C233.199 195.468 234.426 195.868 235.695 195.992C236.965 196.117 238.246 195.962 239.45 195.54C241.97 194.73 243.63 192.54 245.12 190.71C245.801 189.78 246.657 188.992 247.64 188.39C248.659 187.921 249.784 187.731 250.9 187.84C253.22 187.97 255.57 188.84 258.08 189.04C259.345 189.175 260.623 189.114 261.87 188.86C263.154 188.656 264.364 188.122 265.38 187.31C267.248 185.609 268.611 183.425 269.32 181C270.055 178.664 270.518 176.252 270.7 173.81Z" fill="#263238"/>
<path d="M270.57 176.12C269.998 178.33 269.729 180.608 269.77 182.89C269.741 185.263 270.416 187.591 271.71 189.58C272.41 190.5 273.197 191.35 274.06 192.12C274.803 192.838 275.333 193.749 275.59 194.75C275.677 195.891 275.881 197.021 276.2 198.12C276.607 199.203 277.257 200.178 278.1 200.97C277.457 200.067 276.996 199.048 276.74 197.97C276.546 196.871 276.455 195.756 276.47 194.64C276.284 193.417 275.717 192.283 274.85 191.4C274.049 190.646 273.317 189.823 272.66 188.94C271.483 187.115 270.794 185.018 270.66 182.85C270.479 180.611 270.449 178.363 270.57 176.12Z" fill="#263238"/>
<path d="M219.37 201.93C219.37 201.93 217.53 188.36 211.72 188.52C205.91 188.68 203.72 205.85 208.01 210.52C208.519 211.164 209.153 211.697 209.874 212.089C210.595 212.481 211.388 212.722 212.205 212.799C213.022 212.876 213.846 212.786 214.627 212.535C215.408 212.284 216.13 211.878 216.75 211.34L219.37 201.93Z" fill="#EFB7AF"/>
<path d="M211.21 193.46C211.13 193.41 211.05 193.52 211.11 193.59C214.06 197.01 214.25 201.48 213.78 205.77C213.38 203.77 212.26 202.29 209.73 202.66C209.6 202.66 209.61 202.88 209.73 202.91C210.486 203.036 211.185 203.392 211.732 203.928C212.28 204.465 212.649 205.157 212.79 205.91C213.007 207.188 213.084 208.485 213.02 209.78C213.02 210.2 213.72 210.33 213.79 209.88C213.79 209.88 213.79 209.81 213.79 209.78C216.34 205.11 216.07 196.56 211.21 193.46Z" fill="#263238"/>
<path d="M211.74 210.69C211.622 210.91 211.441 211.09 211.22 211.207C210.999 211.323 210.748 211.372 210.5 211.346C210.251 211.32 210.016 211.221 209.824 211.061C209.632 210.901 209.492 210.688 209.422 210.448C209.351 210.209 209.354 209.953 209.428 209.715C209.503 209.477 209.647 209.266 209.842 209.11C210.037 208.954 210.274 208.859 210.523 208.837C210.772 208.816 211.021 208.869 211.24 208.99C211.385 209.068 211.513 209.175 211.616 209.303C211.72 209.431 211.797 209.578 211.843 209.736C211.89 209.894 211.905 210.06 211.887 210.223C211.869 210.387 211.819 210.546 211.74 210.69Z" fill="white"/>
<path d="M209.7 207.09C209.597 207.273 209.426 207.409 209.224 207.467C209.022 207.525 208.805 207.501 208.62 207.4C208.484 207.324 208.374 207.209 208.303 207.07C208.232 206.931 208.204 206.774 208.222 206.62C208.24 206.465 208.304 206.319 208.404 206.2C208.505 206.081 208.639 205.995 208.789 205.952C208.939 205.909 209.098 205.911 209.246 205.958C209.395 206.006 209.526 206.096 209.624 206.217C209.721 206.339 209.78 206.487 209.794 206.642C209.807 206.797 209.775 206.953 209.7 207.09Z" fill="white"/>
<path d="M213.89 181.19C213.59 180.78 204.33 163.3 202.94 161.63C201.55 159.96 188.74 159.63 187.29 153.81C185.84 147.99 186.98 136.93 194.29 133.1C201.6 129.27 209.14 128.55 209.73 127.89C210.32 127.23 210.25 110.63 220.79 106.73C231.33 102.83 242.79 118.63 243.53 118.73C244.27 118.83 249.6 110.27 256.84 110.88C264.08 111.49 269.23 123.7 271.07 123.88C272.91 124.06 279.27 121.48 285.82 128.18C292.37 134.88 286.43 149.36 284.12 150.9C281.81 152.44 280.71 171.49 280.71 171.49L213.89 181.19Z" fill="#EBEBEB"/>
<path d="M221.4 174.77C220.759 174.026 220.251 173.177 219.9 172.26C219.47 171.35 219.03 170.45 218.56 169.56C217.603 167.781 216.51 166.079 215.29 164.47C214.35 163.18 213.2 161.75 211.59 161.31C211.016 161.192 210.424 161.19 209.849 161.303C209.274 161.417 208.727 161.643 208.24 161.97C207.973 162.288 207.726 162.622 207.5 162.97C207.42 163.06 207.59 163.19 207.65 163.08C207.887 162.62 208.286 162.264 208.77 162.08C209.165 161.947 209.575 161.863 209.99 161.83C210.873 161.795 211.739 162.087 212.42 162.65C213.674 163.796 214.723 165.149 215.52 166.65C216.46 168.11 217.407 169.57 218.36 171.03C219.21 172.36 219.9 174.09 221.23 175.03C221.34 175 221.5 174.88 221.4 174.77Z" fill="#C7C7C7"/>
<path d="M225.41 175C223.57 171.3 221.72 167.59 219.85 163.9C217.817 160.225 216.21 156.33 215.06 152.29C215.06 152.17 214.85 152.2 214.88 152.29C215.695 156.422 216.977 160.447 218.7 164.29C220.582 168.074 222.762 171.702 225.22 175.14C225.239 175.165 225.266 175.182 225.297 175.187C225.328 175.191 225.36 175.184 225.385 175.165C225.41 175.146 225.427 175.119 225.432 175.088C225.436 175.057 225.429 175.025 225.41 175Z" fill="#C7C7C7"/>
<path d="M236.08 170C235.02 166.62 233.61 163.33 232.24 160.06C231.045 157.176 229.475 154.463 227.57 151.99C227.5 151.9 227.36 151.99 227.43 152.11C229.2 154.75 230.11 157.84 231.3 160.77C232.59 163.97 233.88 167.21 235.47 170.28C235.515 170.347 235.582 170.396 235.66 170.418C235.738 170.44 235.821 170.433 235.894 170.399C235.967 170.366 236.026 170.307 236.061 170.234C236.095 170.161 236.102 170.078 236.08 170Z" fill="#C7C7C7"/>
<path d="M255.1 142.27C254.711 141.904 254.246 141.628 253.739 141.462C253.231 141.296 252.693 141.244 252.163 141.31C251.633 141.376 251.124 141.558 250.672 141.843C250.22 142.128 249.837 142.51 249.55 142.96C248.07 145.21 248.08 148.38 248.08 150.96C248.068 153.777 248.404 156.585 249.08 159.32C249.869 162.407 251.063 165.376 252.63 168.15C252.643 168.17 252.663 168.184 252.685 168.19C252.708 168.197 252.732 168.195 252.754 168.186C252.775 168.176 252.793 168.159 252.803 168.138C252.813 168.117 252.816 168.093 252.81 168.07C250.895 163.455 249.825 158.533 249.65 153.54C249.53 151.085 249.64 148.624 249.98 146.19C250.26 144.19 251.83 140.98 254.4 142.32C256.81 143.57 257.02 146.95 258.4 149.03C258.4 149.03 258.51 149.03 258.47 148.97C257.14 146.81 257.08 144.08 255.1 142.27Z" fill="#C7C7C7"/>
<path d="M279.3 144.44C276.224 147.237 274.172 150.982 273.47 155.08C273.036 157.344 272.835 159.646 272.87 161.95C272.777 164.332 272.921 166.717 273.3 169.07C273.307 169.09 273.319 169.107 273.336 169.12C273.353 169.132 273.374 169.139 273.395 169.139C273.416 169.139 273.437 169.132 273.454 169.12C273.471 169.107 273.483 169.09 273.49 169.07C273.76 166.85 273.49 164.57 273.76 162.35C273.952 160.105 274.317 157.879 274.85 155.69C275.347 153.769 275.985 151.887 276.76 150.06C277.543 148.207 278.519 146.44 279.67 144.79C279.83 144.56 279.53 144.24 279.3 144.44Z" fill="#C7C7C7"/>
<path d="M267.27 158C267.074 154.426 266.627 150.871 265.93 147.36C265.918 147.288 265.878 147.224 265.819 147.182C265.76 147.14 265.687 147.123 265.615 147.135C265.543 147.147 265.479 147.187 265.437 147.246C265.395 147.305 265.378 147.378 265.39 147.45C265.75 150.97 265.9 154.52 266.04 158.05C266.18 161.58 266.1 165.05 266.47 168.56C266.477 168.58 266.489 168.597 266.506 168.61C266.523 168.622 266.544 168.629 266.565 168.629C266.586 168.629 266.607 168.622 266.624 168.61C266.641 168.597 266.653 168.58 266.66 168.56C267.323 165.082 267.528 161.532 267.27 158Z" fill="#C7C7C7"/>
<path d="M215.66 189.78C216.4 187.43 242.49 168.32 280.07 181.4C281.19 181.79 283.51 166.09 281.69 164.48C279.87 162.87 229.28 151.48 209.92 176.81C208.61 178.53 215.66 189.78 215.66 189.78Z" fill="#FFC727"/>
<path d="M206.3 238.88C206.3 236.5 194.3 245.51 194.14 247.11C193.98 248.71 200 274.23 220.4 277.48C223.08 277.9 230.47 262.73 230.8 260.04C231.13 257.35 228.8 252.45 228.8 252.45C228.8 252.45 222.41 265.45 220.39 265.57C218.37 265.69 206 253.46 206.3 238.88Z" fill="#FFC727"/>
<path d="M78.7 335.63C66.58 320.43 84.99 306.52 98.56 307.09C130.4 308.44 185.3 319.75 210.09 334.45C218.09 339.18 216.19 391.4 206.33 390.4C188.82 388.63 103.29 366.48 78.7 335.63Z" fill="#EFB7AF"/>
<path d="M189.23 333.85C193.23 332.79 216.89 321.22 224.66 320.37C232.43 319.52 259.47 326.53 265.38 329.73C271.29 332.93 287.38 351.73 288.71 357.59C289.71 362.29 280.39 365.79 269.71 357.43C259.71 349.62 257.71 347.26 254.3 345.75C250.89 344.24 237.01 345.64 234.89 350.65C233.64 353.65 236.89 362.18 242.17 364.46C247.45 366.74 253.44 363.94 261.17 365.06C268.9 366.18 274.94 371.92 273.94 374.68C272.28 379.25 268.85 377.53 257.94 380.1C250.94 381.76 241.87 386.2 228.94 389.91C215.22 393.86 194.74 388.04 194.74 388.04L189.23 333.85Z" fill="#EFB7AF"/>
<path d="M278.5 375.25C278.5 375.25 278.34 369.1 275.18 366.38C272.516 363.922 269.004 362.589 265.38 362.66C261.55 362.57 255.89 363.3 255.03 362.27C256.01 363.487 256.818 364.833 257.43 366.27C258.184 368.196 259.122 370.044 260.23 371.79C264.09 376.95 269.23 377.88 271.6 377.52C273.97 377.16 277.73 375.12 278.5 375.25Z" fill="#455A64"/>
<path d="M227 318.94C236.53 318.34 256 320.39 267.7 327.94C275.61 333.05 281.52 366.18 276.33 368.88C271.14 371.58 268.08 367.41 264.33 360.69C262.95 358.24 258.54 343.2 254.56 343C248.84 342.7 233.86 347.94 233.86 347.94L227 318.94Z" fill="#EFB7AF"/>
<path d="M277.66 367C280.46 360.33 278.29 351.75 275.59 343.61C275.59 343.48 275.35 343.53 275.39 343.66C276.07 345.74 278.97 360.11 277.53 366.99C277.51 367 277.64 367 277.66 367Z" fill="#263238"/>
<path d="M227 318.94C236.53 318.34 256 320.39 267.7 327.94C275.61 333.05 274.47 363.51 269.28 366.2C264.09 368.89 259.34 363.2 256.81 354.85C255.99 352.16 255.81 341.29 251.81 341.08C246.09 340.78 231.98 340.16 231.98 340.16L227 318.94Z" fill="#EFB7AF"/>
<path d="M259.55 361.36C257.88 358.59 257.35 354.62 257 351.45C256.7 348.68 256.65 345.54 255.18 343.08C254.573 341.972 253.622 341.091 252.47 340.57C251.206 340.176 249.883 340.003 248.56 340.06C247.05 340.01 245.56 340.06 244.03 340.06C242.5 340.06 242.03 340.15 240.47 340.23C239.84 340.23 239.93 340.69 240.62 340.67C243.131 340.611 245.642 340.788 248.12 341.2C249.446 341.271 250.754 341.54 252 342C252.595 342.308 253.122 342.732 253.549 343.247C253.977 343.763 254.297 344.359 254.49 345C255.42 347.64 255.38 350.57 256.07 353.28C256.76 355.99 257.59 359.35 259.4 361.5C259.46 361.61 259.62 361.47 259.55 361.36Z" fill="#263238"/>
<path d="M273.26 361.64C274.47 358.48 274.6 354.78 274.57 351.43C274.512 347.883 274.178 344.345 273.57 340.85C273.27 339.05 272.92 337.26 272.52 335.48C272.289 333.734 271.755 332.042 270.94 330.48C268.31 326.48 262.64 324.99 260.64 324.18C260.52 324.18 260.42 324.31 260.54 324.36C262.17 325.05 267.54 327.21 269.22 329.62C270.191 331.16 270.825 332.888 271.08 334.69C271.39 336.24 271.7 337.79 271.98 339.34C273.09 345.67 273.81 352.5 272.58 358.86C271.9 362.39 270.15 365.86 266.39 366.73C266.26 366.73 266.3 366.95 266.39 366.95C269.56 367.09 272.21 364.39 273.26 361.64Z" fill="#263238"/>
<path d="M216.91 322.31C221.01 321.11 234.8 312.77 240.43 311.75C246.06 310.73 267.83 309.66 271.69 314.95C276.54 321.59 259.93 325.26 252.57 326.21C245.21 327.16 238.09 334.65 238.09 334.65L216.91 322.31Z" fill="#EFB7AF"/>
<path d="M264 323.81C261.541 324.019 259.095 324.352 256.67 324.81C254.335 325.09 252.025 325.548 249.76 326.18C247.55 326.91 241.9 330.92 241.11 331.75C237.47 335.57 230.36 344.17 222.47 351.47C219.453 354.194 216.119 356.544 212.54 358.47C211.64 358.95 211.17 359.59 212.54 359.01C225.73 353.51 239.49 335.32 242.18 332.76C244.643 330.578 247.434 328.796 250.45 327.48C254.89 326 259.59 325.48 264.05 324.03C264.27 324.06 264.18 323.79 264 323.81Z" fill="#263238"/>
<path d="M185.59 319.49L173.49 352.94L169.67 385.11C169.67 385.11 70.05 352.18 74.67 324.25C76.22 314.83 86.2 302.86 107.43 303.7C128.66 304.54 185.59 319.49 185.59 319.49Z" fill="#EBEBEB"/>
<path d="M185.81 320.32C183.66 319.54 181.56 318.67 179.39 317.94C177.22 317.21 175.15 316.53 173.01 315.87C168.72 314.55 164.34 313.4 160.01 312.33C151.37 310.224 142.629 308.555 133.82 307.33C130.65 306.05 127.35 305.07 124.13 303.94C124.03 303.94 124 304.05 124.13 304.09C126.76 305.09 129.37 306.15 132.02 307.09C130.02 306.82 127.94 306.55 125.89 306.32C123.41 306.04 120.89 305.95 118.44 305.72C118.35 305.72 118.33 305.87 118.44 305.88C120.64 306.16 122.83 306.59 125.02 306.96C127.21 307.33 129.5 307.66 131.73 308.04C136.17 308.8 140.59 309.62 145 310.53C153.77 312.35 162.53 314.35 171.17 316.76C173.58 317.43 176.01 318.05 178.43 318.76C180.85 319.47 183.36 320.04 185.8 320.76C186 320.84 186.07 320.42 185.81 320.32Z" fill="#263238"/>
<path d="M167.18 384.07C163.04 382.52 158.95 380.81 154.83 379.22C150.71 377.63 146.52 375.96 142.42 374.22C134.18 370.71 126.08 366.89 117.96 363.13C113.25 360.95 108.45 358.96 103.75 356.78C103.63 356.78 103.52 356.91 103.65 356.97C105.71 357.97 107.75 359.12 109.79 360.21C111.83 361.3 113.85 362.27 115.86 363.33C119.86 365.45 124.01 367.44 128.11 369.44C136.154 373.38 144.395 376.905 152.8 380C157.5 381.72 162.28 383.11 167.1 384.44C167.31 384.45 167.37 384.14 167.18 384.07Z" fill="#263238"/>
<path d="M187.86 319.47C187.74 319.11 169.86 314.32 169.86 314.32C169.86 314.32 151.54 344.06 151.32 347.78C151.1 351.5 148.83 379.78 149.08 380.09C149.33 380.4 170.61 388.29 171.08 387.68C171.55 387.07 175.08 356.73 175.28 354.4C175.48 352.07 187.86 319.47 187.86 319.47Z" fill="#FFC727"/>
<path d="M324.18 424.09C323.81 424.34 317.11 428.65 313.23 430.09C307.58 432.18 283.32 433.45 276.3 433.45C269.28 433.45 245.01 432.18 239.36 430.09C235.48 428.64 228.78 424.33 228.36 424.09C228.9 424.2 246.36 427.79 276.25 427.79C306.14 427.79 323.64 424.2 324.18 424.09Z" fill="#C7C7C7"/>
<path d="M276.3 429.94C319.218 429.94 354.01 422.396 354.01 413.09C354.01 403.784 319.218 396.24 276.3 396.24C233.382 396.24 198.59 403.784 198.59 413.09C198.59 422.396 233.382 429.94 276.3 429.94Z" fill="#DBDBDB"/>
<path d="M276.3 420.69C304.682 420.69 327.69 416.495 327.69 411.32C327.69 406.145 304.682 401.95 276.3 401.95C247.918 401.95 224.91 406.145 224.91 411.32C224.91 416.495 247.918 420.69 276.3 420.69Z" fill="#C7C7C7"/>
<path d="M276.3 418.63C297.679 418.63 315.01 415.648 315.01 411.97C315.01 408.292 297.679 405.31 276.3 405.31C254.921 405.31 237.59 408.292 237.59 411.97C237.59 415.648 254.921 418.63 276.3 418.63Z" fill="#FFC727"/>
<path opacity="0.1" d="M276.3 418.63C297.679 418.63 315.01 415.648 315.01 411.97C315.01 408.292 297.679 405.31 276.3 405.31C254.921 405.31 237.59 408.292 237.59 411.97C237.59 415.648 254.921 418.63 276.3 418.63Z" fill="black"/>
<path d="M303.06 410.36C293.06 413.67 281.29 414.16 276.3 414.16C271.31 414.16 259.5 413.67 249.53 410.36L251.2 393.6H301.39L303.06 410.36Z" fill="#FFC727"/>
<path d="M276.3 397.45C290.162 397.45 301.4 395.726 301.4 393.6C301.4 391.474 290.162 389.75 276.3 389.75C262.438 389.75 251.2 391.474 251.2 393.6C251.2 395.726 262.438 397.45 276.3 397.45Z" fill="#FFC727"/>
<path opacity="0.1" d="M301.33 393.86H301.4C301.4 393.86 300.28 396.86 298.78 396.96C297.86 397.05 296.88 396.32 296.23 397.6C295.58 398.88 298.04 403.88 295.69 403.88C293.34 403.88 294.82 399.69 294.46 398.8C294.308 398.339 293.995 397.95 293.577 397.703C293.159 397.457 292.667 397.37 292.19 397.46C291.24 397.71 289.92 400.02 288.45 399.29C286.98 398.56 285.65 398.8 285.2 399.66C284.75 400.52 286.2 402.88 284.32 402.93C282.44 402.98 285.06 398.93 282.59 398.34C280.97 397.96 280.15 399.34 278.42 399.41C276.69 399.48 276.03 398.41 274.42 398.52C272.81 398.63 272.52 400.85 270.69 400.85C269.27 400.85 268.69 398.52 267.8 398.59C266.91 398.66 266.27 399.59 264.66 399.38C263.05 399.17 262.94 397.83 261.48 397.46C260.4 397.18 259.1 397.37 258.75 398.12C258.01 399.74 259.53 403.88 257.63 403.88C255.73 403.88 256.46 400.88 256.51 399.32C256.56 397.76 256 396 254.51 395.51L254.23 395.43C253.54 395.3 253.04 396.82 251.91 396.25C251.4 395.99 251.21 393.86 251.21 393.86H251.27C251.232 393.778 251.212 393.69 251.21 393.6C251.21 391.47 262.44 389.75 276.31 389.75C290.18 389.75 301.41 391.47 301.41 393.6C301.401 393.691 301.374 393.78 301.33 393.86Z" fill="black"/>
<path d="M252.07 393.4C256.06 394.183 260.089 394.754 264.14 395.11L267.14 395.36L270.14 395.56C272.14 395.63 274.2 395.71 276.23 395.68C278.26 395.65 280.28 395.63 282.31 395.58C284.34 395.53 286.36 395.34 288.38 395.13C289.38 395.02 290.38 394.96 291.38 394.82L294.38 394.4C296.38 394.17 298.38 393.7 300.38 393.4C299.38 393.67 298.38 393.93 297.38 394.18C296.38 394.43 295.38 394.7 294.38 394.88L291.38 395.45C290.38 395.63 289.38 395.74 288.38 395.89C284.325 396.423 280.24 396.687 276.15 396.68C272.057 396.664 267.97 396.397 263.91 395.88C261.91 395.6 259.86 395.28 257.86 394.88C255.86 394.48 254 394 252.07 393.4Z" fill="#FFC727"/>
<path d="M284.44 378.73C284.44 378.73 282.15 380.44 282 381.63C281.87 382.63 280.42 381.76 280.45 380.52C280.464 380.215 280.557 379.918 280.72 379.66C281.811 379.485 282.818 378.97 283.6 378.19C283.682 378.194 283.763 378.211 283.84 378.24C283.969 378.274 284.09 378.335 284.193 378.42C284.297 378.504 284.381 378.61 284.44 378.73Z" fill="#455A64"/>
<path d="M284.44 378.73C284.44 378.73 282.15 380.44 282 381.63C281.87 382.63 280.42 381.76 280.45 380.52C280.701 380.549 280.956 380.521 281.195 380.438C281.434 380.355 281.651 380.219 281.83 380.04C282.46 379.56 283.83 379.16 283.83 378.24C283.961 378.272 284.084 378.333 284.189 378.418C284.294 378.502 284.38 378.609 284.44 378.73Z" fill="#37474F"/>
<path d="M280.27 381.08C279.973 380.76 279.732 380.391 279.56 379.99L279.51 379.89C279.129 379.158 278.97 378.331 279.05 377.51C279.29 376.83 281.05 376.11 281.44 376.12C281.83 376.13 281.26 377.06 280.94 378.12C280.62 379.18 280.47 379.98 280.94 380.51C281.87 381.67 284.29 381.15 284.94 381.34C285.485 381.477 285.991 381.737 286.42 382.1C286.443 382.133 286.46 382.171 286.47 382.21C286.48 382.42 283.83 384.55 280.27 381.08Z" fill="#455A64"/>
<path d="M280.27 381.08C279.973 380.76 279.732 380.391 279.56 379.99C280.076 380.505 280.675 380.931 281.33 381.25C282.344 381.793 283.497 382.019 284.64 381.9C285.231 381.789 285.841 381.848 286.4 382.07C286.423 382.103 286.44 382.141 286.45 382.18C286.48 382.42 283.83 384.55 280.27 381.08Z" fill="#37474F"/>
<path d="M286.65 384.46C286.345 384.69 285.995 384.854 285.623 384.94C285.251 385.026 284.865 385.033 284.49 384.96C283.768 384.794 283.089 384.478 282.498 384.031C281.907 383.585 281.417 383.019 281.06 382.37C280.66 381.64 278.44 380.11 277.49 378.94L277.44 378.88C277.247 378.666 277.115 378.403 277.06 378.12C276.96 376.99 278.14 375.44 278.52 375.6C278.71 375.69 278.7 376.12 278.68 376.66C278.64 377.198 278.691 377.739 278.83 378.26C279.469 379.62 280.43 380.805 281.63 381.71C283.69 383.46 286.63 384.15 286.7 384.34C286.71 384.37 286.7 384.41 286.65 384.46Z" fill="#455A64"/>
<path d="M286.65 384.46C286.345 384.69 285.995 384.854 285.623 384.94C285.251 385.026 284.865 385.033 284.49 384.96C283.768 384.794 283.089 384.478 282.498 384.031C281.907 383.585 281.417 383.019 281.06 382.37C280.66 381.64 278.44 380.11 277.49 378.94C278.91 380.23 280.63 381.14 282.06 382.42C282.711 383.134 283.491 383.718 284.36 384.14C285.085 384.434 285.872 384.544 286.65 384.46Z" fill="#37474F"/>
<path d="M278.15 392.74C275.748 393.185 273.289 393.236 270.87 392.89C270.364 392.82 269.865 392.703 269.38 392.54C269.18 392.48 268.993 392.382 268.83 392.25C268.14 391.61 267.7 390.02 268.13 386.46C268.56 382.9 271.27 379.13 274.31 378.73C275.261 378.638 276.219 378.771 277.109 379.118C277.998 379.466 278.794 380.018 279.43 380.73L279.69 381.02C279.84 381.127 280.001 381.218 280.17 381.29C281.4 381.88 284.5 383.29 284.61 386.29C284.75 389.92 282 392 278.15 392.74Z" fill="#C95F50"/>
<path d="M277.35 381.17C277.28 381.07 277.09 381.12 277 381.17C276.91 381.22 276.73 381.31 276.73 381.45C276.728 381.486 276.736 381.523 276.754 381.555C276.771 381.587 276.798 381.613 276.83 381.63C276.863 381.652 276.901 381.663 276.94 381.663C276.979 381.663 277.017 381.652 277.05 381.63C277.167 381.561 277.267 381.465 277.34 381.35C277.349 381.304 277.349 381.256 277.34 381.21L277.35 381.17Z" fill="#FFC727"/>
<path d="M275.3 379.53C275.264 379.486 275.218 379.45 275.166 379.428C275.114 379.405 275.057 379.396 275 379.4C274.88 379.4 274.75 379.49 274.75 379.63C274.755 379.659 274.765 379.687 274.781 379.712C274.797 379.737 274.818 379.758 274.842 379.775C274.866 379.792 274.893 379.804 274.922 379.81C274.951 379.816 274.981 379.816 275.01 379.81C275.072 379.808 275.132 379.792 275.187 379.765C275.243 379.737 275.291 379.698 275.33 379.65C275.339 379.641 275.346 379.631 275.35 379.618C275.354 379.606 275.354 379.593 275.351 379.581C275.348 379.569 275.342 379.557 275.333 379.548C275.324 379.539 275.312 379.533 275.3 379.53Z" fill="#FFC727"/>
<path d="M274.74 381.26C274.744 381.244 274.744 381.226 274.74 381.21C274.634 381.17 274.516 381.17 274.41 381.21C274.32 381.26 274.22 381.35 274.24 381.46C274.244 381.489 274.254 381.516 274.271 381.54C274.287 381.564 274.308 381.584 274.333 381.599C274.358 381.613 274.386 381.622 274.415 381.624C274.444 381.626 274.473 381.621 274.5 381.61C274.618 381.57 274.722 381.497 274.8 381.4C274.806 381.373 274.803 381.345 274.793 381.32C274.782 381.295 274.763 381.274 274.74 381.26Z" fill="#FFC727"/>
<path d="M274.74 383.92C274.74 383.92 274.74 383.86 274.74 383.84C274.74 383.82 274.48 383.84 274.39 383.84C274.3 383.84 274.12 384.07 274.16 384.21C274.2 384.35 274.4 384.37 274.52 384.29C274.644 384.213 274.733 384.091 274.77 383.95C274.762 383.939 274.751 383.928 274.74 383.92Z" fill="#FFC727"/>
<path d="M272.14 384.37C272.127 384.361 272.111 384.356 272.095 384.356C272.079 384.356 272.063 384.361 272.05 384.37C272 384.365 271.949 384.371 271.901 384.386C271.853 384.401 271.808 384.427 271.77 384.46C271.726 384.492 271.69 384.534 271.666 384.583C271.642 384.632 271.629 384.686 271.63 384.74C271.631 384.765 271.639 384.79 271.652 384.812C271.664 384.834 271.682 384.853 271.704 384.867C271.725 384.88 271.75 384.889 271.775 384.891C271.801 384.893 271.826 384.89 271.85 384.88C271.947 384.836 272.029 384.767 272.09 384.68C272.12 384.58 272.22 384.44 272.14 384.37Z" fill="#FFC727"/>
<path d="M272.94 387.27C272.938 387.251 272.928 387.233 272.913 387.22C272.899 387.207 272.88 387.2 272.86 387.2C272.856 387.188 272.85 387.178 272.841 387.169C272.832 387.161 272.822 387.154 272.81 387.15C272.57 387.15 272.29 387.52 272.43 387.73C272.57 387.94 272.69 387.73 272.78 387.73C272.837 387.668 272.88 387.596 272.908 387.517C272.935 387.438 272.946 387.354 272.94 387.27Z" fill="#FFC727"/>
<path d="M275.69 386.8C275.697 386.781 275.697 386.759 275.69 386.74C275.57 386.63 275.42 386.74 275.32 386.81C275.22 386.88 275.09 387.05 275.17 387.19C275.22 387.237 275.286 387.263 275.355 387.263C275.424 387.263 275.49 387.237 275.54 387.19C275.596 387.143 275.639 387.083 275.666 387.014C275.692 386.946 275.7 386.872 275.69 386.8Z" fill="#FFC727"/>
<path d="M269.49 384.89C269.49 384.84 269.49 384.78 269.43 384.77C269.355 384.757 269.278 384.773 269.213 384.813C269.148 384.854 269.101 384.917 269.08 384.99C269.03 385.12 268.92 385.32 269.08 385.43C269.24 385.54 269.35 385.43 269.42 385.29C269.491 385.17 269.516 385.027 269.49 384.89Z" fill="#FFC727"/>
<path d="M270.34 388.12C270.346 388.097 270.346 388.073 270.34 388.05C270.27 387.93 270.11 387.97 270.03 388.05C269.979 388.106 269.94 388.173 269.916 388.245C269.892 388.318 269.883 388.394 269.89 388.47C269.897 388.5 269.911 388.528 269.933 388.551C269.954 388.573 269.981 388.589 270.011 388.597C270.041 388.606 270.072 388.606 270.102 388.597C270.132 388.589 270.159 388.573 270.18 388.55C270.287 388.433 270.345 388.279 270.34 388.12Z" fill="#FFC727"/>
<path d="M277.35 383.71C277.14 383.71 276.82 383.93 276.95 384.14C276.986 384.186 277.038 384.217 277.095 384.226C277.153 384.235 277.212 384.223 277.26 384.19C277.308 384.151 277.349 384.103 277.38 384.05C277.423 383.992 277.464 383.932 277.5 383.87C277.509 383.849 277.512 383.825 277.508 383.802C277.503 383.779 277.493 383.758 277.477 383.741C277.461 383.724 277.441 383.712 277.418 383.707C277.396 383.701 277.372 383.702 277.35 383.71Z" fill="#FFC727"/>
<path d="M279.8 382.78C279.8 382.71 279.67 382.68 279.63 382.78C279.547 382.824 279.478 382.89 279.43 382.97C279.38 383.06 279.35 383.2 279.43 383.27C279.51 383.34 279.86 382.94 279.8 382.78Z" fill="#FFC727"/>
<path d="M282.68 384.22C282.686 384.077 282.636 383.937 282.54 383.83C282.54 383.78 282.42 383.83 282.38 383.83C282.369 383.825 282.357 383.822 282.345 383.822C282.333 383.822 282.321 383.825 282.31 383.83C282.275 383.878 282.252 383.935 282.243 383.994C282.234 384.053 282.24 384.113 282.26 384.17C282.26 384.28 282.37 384.41 282.49 384.42C282.61 384.43 282.68 384.34 282.68 384.22Z" fill="#FFC727"/>
<path d="M284.11 386.94C284.11 386.81 284.05 386.62 283.89 386.62C283.875 386.621 283.86 386.626 283.848 386.635C283.835 386.644 283.826 386.656 283.82 386.67C283.761 386.734 283.718 386.81 283.693 386.893C283.669 386.977 283.665 387.065 283.68 387.15C283.68 387.28 283.84 387.41 283.98 387.31C284.069 387.208 284.116 387.075 284.11 386.94Z" fill="#FFC727"/>
<path d="M281 385.72C280.992 385.708 280.981 385.697 280.968 385.69C280.954 385.683 280.94 385.68 280.925 385.68C280.91 385.68 280.896 385.683 280.882 385.69C280.869 385.697 280.858 385.708 280.85 385.72C280.731 385.805 280.641 385.923 280.59 386.06C280.573 386.089 280.562 386.12 280.557 386.153C280.553 386.186 280.556 386.22 280.565 386.252C280.574 386.284 280.59 386.314 280.612 386.339C280.633 386.365 280.66 386.385 280.69 386.4C281 386.53 281.09 385.9 281 385.72Z" fill="#FFC727"/>
<path d="M278.31 386.05C278.182 386.097 278.071 386.181 277.99 386.29C277.944 386.343 277.913 386.406 277.897 386.474C277.881 386.542 277.882 386.613 277.9 386.68C277.97 386.84 278.16 386.8 278.26 386.68C278.347 386.544 278.402 386.39 278.42 386.23C278.444 386.215 278.461 386.192 278.468 386.165C278.474 386.138 278.47 386.109 278.455 386.085C278.44 386.061 278.417 386.044 278.39 386.037C278.363 386.031 278.334 386.035 278.31 386.05Z" fill="#FFC727"/>
<path d="M282 387.88C281.997 387.859 281.989 387.84 281.975 387.824C281.962 387.808 281.944 387.796 281.924 387.79C281.904 387.783 281.883 387.783 281.863 387.788C281.842 387.794 281.824 387.805 281.81 387.82C281.691 387.868 281.589 387.952 281.52 388.06C281.477 388.106 281.453 388.167 281.453 388.23C281.453 388.293 281.477 388.354 281.52 388.4C281.83 388.62 282 388.06 282 387.88Z" fill="#FFC727"/>
<path d="M282.06 390.38C282.016 390.35 281.963 390.334 281.91 390.334C281.857 390.334 281.804 390.35 281.76 390.38C281.708 390.413 281.665 390.459 281.636 390.513C281.606 390.567 281.59 390.628 281.59 390.69C281.59 390.85 281.78 390.89 281.91 390.83C282.036 390.757 282.134 390.644 282.19 390.51C282.192 390.493 282.189 390.475 282.183 390.458C282.177 390.442 282.168 390.427 282.155 390.415C282.143 390.402 282.128 390.393 282.112 390.387C282.095 390.381 282.077 390.378 282.06 390.38Z" fill="#FFC727"/>
<path d="M279.29 391.38C279.29 391.28 279.11 391.28 279.02 391.3C278.93 391.32 278.77 391.41 278.75 391.54C278.73 391.67 278.91 391.75 279.04 391.74C279.11 391.733 279.178 391.71 279.237 391.671C279.296 391.633 279.345 391.581 279.38 391.52C279.387 391.505 279.389 391.488 279.388 391.472C279.387 391.456 279.381 391.44 279.372 391.426C279.364 391.412 279.351 391.401 279.337 391.393C279.323 391.385 279.306 391.38 279.29 391.38Z" fill="#FFC727"/>
<path d="M279.59 389C279.595 388.984 279.595 388.966 279.59 388.95C279.59 388.95 279.59 388.85 279.53 388.86C279.401 388.867 279.278 388.916 279.18 389C279.1 389.07 279 389.19 279.04 389.31C279.08 389.43 279.62 389.24 279.59 389Z" fill="#FFC727"/>
<path d="M276.72 389.42C276.58 389.415 276.443 389.465 276.34 389.56C276.25 389.64 276.13 389.79 276.25 389.9C276.37 390.01 276.88 389.75 276.91 389.53C276.94 389.31 276.79 389.36 276.72 389.42Z" fill="#FFC727"/>
<path d="M276.53 391.78V391.72C276.48 391.685 276.423 391.66 276.362 391.648C276.302 391.636 276.24 391.637 276.18 391.65C276.06 391.65 275.93 391.79 275.94 391.92C275.95 392.05 276.14 392.08 276.26 392.05C276.38 392.02 276.53 391.92 276.53 391.78Z" fill="#FFC727"/>
<path d="M274 389.65C273.987 389.641 273.971 389.636 273.955 389.636C273.939 389.636 273.923 389.641 273.91 389.65C273.902 389.646 273.894 389.643 273.885 389.643C273.876 389.643 273.868 389.646 273.86 389.65C273.796 389.654 273.734 389.672 273.677 389.701C273.621 389.73 273.571 389.771 273.53 389.82C273.486 389.868 273.462 389.93 273.462 389.995C273.462 390.06 273.486 390.122 273.53 390.17C273.71 390.32 274.07 389.87 274 389.65Z" fill="#FFC727"/>
<path d="M273.53 392C273.53 392 273.53 391.94 273.53 391.93C273.53 391.81 273.35 391.8 273.26 391.82C273.17 391.84 273 391.95 273.01 392.08C273.02 392.21 273.17 392.27 273.29 392.25C273.41 392.23 273.54 392.13 273.53 392Z" fill="#FFC727"/>
<path d="M271.21 392.05C271.21 392.05 270.99 392.05 270.9 392.05C270.81 392.05 270.67 392.15 270.74 392.27C270.81 392.39 270.92 392.36 271.01 392.34C271.1 392.32 271.24 392.29 271.27 392.18C271.279 392.168 271.285 392.154 271.287 392.14C271.289 392.125 271.286 392.11 271.28 392.096C271.274 392.083 271.264 392.071 271.252 392.063C271.239 392.055 271.225 392.05 271.21 392.05Z" fill="#FFC727"/>
<path d="M271.37 390.21C271.255 390.228 271.149 390.285 271.07 390.37C271.05 390.389 271.035 390.411 271.024 390.436C271.013 390.461 271.008 390.488 271.008 390.515C271.008 390.542 271.013 390.569 271.024 390.594C271.035 390.619 271.05 390.641 271.07 390.66C271.17 390.75 271.28 390.66 271.35 390.6C271.42 390.54 271.44 390.33 271.37 390.21Z" fill="#FFC727"/>
<path d="M268.84 390C268.831 389.989 268.819 389.981 268.806 389.975C268.793 389.969 268.779 389.966 268.765 389.966C268.751 389.966 268.737 389.969 268.724 389.975C268.711 389.981 268.699 389.989 268.69 390C268.69 390 268.61 390 268.6 390C268.544 390.109 268.51 390.228 268.5 390.35C268.5 390.45 268.58 390.56 268.69 390.54C268.8 390.52 269 390.17 268.84 390Z" fill="#FFC727"/>
<g opacity="0.2">
<path d="M275.85 387.23C275.7 387.33 275.58 387.46 275.43 387.54C275.345 387.58 275.254 387.607 275.16 387.62C275.08 387.62 275.02 387.62 274.95 387.62V387.67C275 387.86 275.32 387.8 275.46 387.75C275.678 387.671 275.862 387.519 275.98 387.32C276 387.26 275.9 387.19 275.85 387.23Z" fill="white"/>
<path d="M278.65 386.66C278.646 386.652 278.64 386.644 278.632 386.639C278.624 386.634 278.614 386.632 278.605 386.632C278.596 386.632 278.586 386.634 278.578 386.639C278.571 386.644 278.564 386.652 278.56 386.66C278.44 386.76 278.41 386.93 278.31 387.05C278.254 387.119 278.182 387.174 278.1 387.209C278.018 387.244 277.929 387.258 277.84 387.25C277.827 387.255 277.816 387.264 277.808 387.276C277.8 387.287 277.796 387.301 277.796 387.315C277.796 387.329 277.8 387.343 277.808 387.354C277.816 387.366 277.827 387.375 277.84 387.38C277.939 387.428 278.05 387.445 278.159 387.428C278.268 387.412 278.369 387.364 278.45 387.29C278.55 387.14 278.73 386.86 278.65 386.66Z" fill="white"/>
<path d="M278.79 386.29H278.71C278.71 386.29 278.71 386.44 278.78 386.4C278.792 386.385 278.8 386.366 278.802 386.346C278.803 386.327 278.799 386.307 278.79 386.29Z" fill="white"/>
<path d="M274.19 390.08C274.07 390.15 273.97 390.25 273.84 390.31C273.703 390.348 273.562 390.372 273.42 390.38C273.399 390.38 273.378 390.388 273.363 390.403C273.348 390.418 273.34 390.439 273.34 390.46C273.34 390.481 273.348 390.502 273.363 390.517C273.378 390.532 273.399 390.54 273.42 390.54C273.599 390.611 273.797 390.617 273.98 390.557C274.163 390.496 274.319 390.374 274.42 390.21C274.39 390.11 274.28 390 274.19 390.08Z" fill="white"/>
<path d="M272.39 384.84C272.389 384.827 272.386 384.815 272.379 384.804C272.373 384.793 272.364 384.783 272.353 384.777C272.342 384.77 272.33 384.766 272.317 384.764C272.305 384.763 272.292 384.765 272.28 384.77C272.18 384.83 272.12 384.94 272.03 385.01C271.983 385.061 271.923 385.1 271.856 385.121C271.789 385.142 271.718 385.145 271.65 385.13C271.635 385.118 271.617 385.112 271.598 385.114C271.579 385.116 271.562 385.125 271.55 385.14C271.538 385.155 271.532 385.173 271.534 385.192C271.536 385.211 271.545 385.228 271.56 385.24C271.75 385.57 272.43 385.15 272.39 384.84Z" fill="white"/>
<path d="M270.5 388.54C270.31 388.66 270.13 388.91 269.87 388.78C269.8 388.78 269.73 388.85 269.8 388.9C269.94 388.978 270.105 388.998 270.259 388.957C270.414 388.916 270.547 388.817 270.63 388.68C270.641 388.661 270.645 388.64 270.643 388.619C270.64 388.598 270.631 388.578 270.617 388.562C270.602 388.546 270.583 388.536 270.562 388.532C270.541 388.528 270.519 388.531 270.5 388.54Z" fill="white"/>
<path d="M272.76 388.07C272.721 388.06 272.679 388.06 272.64 388.07C272.64 388.07 272.56 388.07 272.52 388.07C272.512 388.074 272.504 388.08 272.499 388.088C272.494 388.096 272.492 388.106 272.492 388.115C272.492 388.124 272.494 388.134 272.499 388.141C272.504 388.149 272.512 388.156 272.52 388.16C272.542 388.185 272.57 388.203 272.602 388.214C272.634 388.225 272.667 388.227 272.7 388.22C272.733 388.224 272.766 388.216 272.793 388.197C272.821 388.179 272.841 388.152 272.85 388.12C272.85 388.11 272.847 388.099 272.841 388.091C272.836 388.082 272.828 388.074 272.819 388.069C272.81 388.064 272.8 388.062 272.79 388.062C272.779 388.062 272.769 388.065 272.76 388.07Z" fill="white"/>
<path d="M273.2 387.86C273.201 387.843 273.197 387.826 273.188 387.812C273.179 387.797 273.166 387.786 273.15 387.78C273.08 387.78 273.03 387.85 273.07 387.91C273.11 387.97 273.21 387.91 273.21 387.91L273.2 387.86Z" fill="white"/>
<path d="M275.06 384.16C274.94 384.24 274.89 384.39 274.81 384.5C274.753 384.578 274.674 384.636 274.583 384.669C274.492 384.701 274.393 384.705 274.3 384.68C274.25 384.68 274.21 384.73 274.3 384.76C274.384 384.794 274.476 384.807 274.566 384.798C274.657 384.789 274.744 384.759 274.82 384.71C275.009 384.608 275.155 384.441 275.23 384.24C275.2 384.17 275.11 384.11 275.06 384.16Z" fill="white"/>
<path d="M277.58 384.2C277.48 384.27 277.42 384.39 277.32 384.46C277.26 384.503 277.189 384.526 277.115 384.526C277.041 384.526 276.97 384.503 276.91 384.46C276.86 384.46 276.81 384.51 276.85 384.55C276.915 384.594 276.992 384.618 277.07 384.618C277.149 384.618 277.225 384.594 277.29 384.55C277.449 384.475 277.574 384.343 277.64 384.18C277.64 384.18 277.61 384.17 277.58 384.2Z" fill="white"/>
<path d="M279.9 383.37H279.82C279.74 383.42 279.69 383.49 279.6 383.52C279.512 383.545 279.418 383.545 279.33 383.52C279.33 383.52 279.26 383.57 279.33 383.59C279.381 383.631 279.442 383.658 279.507 383.669C279.572 383.679 279.638 383.673 279.7 383.65C279.77 383.6 279.91 383.5 279.9 383.37Z" fill="white"/>
<path d="M280 383C279.94 383 279.92 383.08 280 383.09C280.07 383.1 280.08 383 280 383Z" fill="white"/>
<path d="M277.29 381.74C277.166 381.811 277.019 381.832 276.88 381.8C276.872 381.805 276.865 381.813 276.86 381.822C276.856 381.83 276.853 381.84 276.853 381.85C276.853 381.86 276.856 381.87 276.86 381.878C276.865 381.887 276.872 381.894 276.88 381.9C276.964 381.956 277.065 381.981 277.166 381.97C277.267 381.959 277.36 381.913 277.43 381.84C277.45 381.78 277.36 381.7 277.29 381.74Z" fill="white"/>
<path d="M277.7 381.67C277.699 381.655 277.694 381.64 277.685 381.628C277.676 381.615 277.664 381.606 277.65 381.6C277.59 381.6 277.54 381.67 277.58 381.72C277.587 381.732 277.597 381.743 277.609 381.75C277.622 381.757 277.636 381.761 277.65 381.761C277.664 381.761 277.678 381.757 277.691 381.75C277.703 381.743 277.713 381.732 277.72 381.72L277.7 381.67Z" fill="white"/>
<path d="M281.08 386.43C281.025 386.516 280.95 386.587 280.861 386.638C280.772 386.689 280.672 386.717 280.57 386.72C280.559 386.725 280.55 386.732 280.544 386.742C280.537 386.752 280.534 386.763 280.534 386.775C280.534 386.787 280.537 386.798 280.544 386.808C280.55 386.818 280.559 386.825 280.57 386.83C280.633 386.85 280.7 386.855 280.766 386.846C280.831 386.836 280.894 386.813 280.949 386.776C281.005 386.74 281.052 386.692 281.086 386.636C281.121 386.579 281.143 386.516 281.15 386.45C281.15 386.45 281.1 386.4 281.08 386.43Z" fill="white"/>
<path d="M281.24 386.07C281.227 386.07 281.214 386.075 281.205 386.085C281.195 386.094 281.19 386.107 281.19 386.12C281.19 386.133 281.195 386.146 281.205 386.155C281.214 386.165 281.227 386.17 281.24 386.17C281.28 386.18 281.3 386.08 281.24 386.07Z" fill="white"/>
<path d="M279.61 389.4C279.522 389.496 279.409 389.566 279.283 389.601C279.158 389.636 279.025 389.636 278.9 389.6C278.84 389.6 278.79 389.67 278.9 389.7C279.046 389.776 279.215 389.794 279.375 389.752C279.534 389.709 279.671 389.609 279.76 389.47C279.76 389.4 279.66 389.35 279.61 389.4Z" fill="white"/>
<path d="M281.81 388.5C281.71 388.57 281.6 388.69 281.47 388.64C281.34 388.59 281.37 388.69 281.47 388.72C281.552 388.753 281.642 388.758 281.727 388.735C281.812 388.711 281.887 388.66 281.94 388.59C282 388.54 281.87 388.47 281.81 388.5Z" fill="white"/>
<path d="M276.7 390C276.61 390.042 276.516 390.076 276.42 390.1C276.311 390.118 276.198 390.101 276.1 390.05C276.05 390.05 276.01 390.1 276.05 390.14C276.09 390.18 276.65 390.35 276.78 390.09C276.784 390.078 276.784 390.066 276.782 390.054C276.779 390.042 276.774 390.031 276.766 390.022C276.758 390.013 276.747 390.006 276.736 390.002C276.724 389.998 276.712 389.998 276.7 390Z" fill="white"/>
<path d="M271.33 390.8C271.265 390.854 271.184 390.886 271.1 390.89C271.015 390.883 270.932 390.856 270.86 390.81C270.86 390.81 270.79 390.81 270.81 390.87C270.848 390.912 270.894 390.947 270.945 390.97C270.997 390.993 271.053 391.005 271.11 391.005C271.167 391.005 271.223 390.993 271.275 390.97C271.326 390.947 271.372 390.912 271.41 390.87C271.45 390.84 271.39 390.76 271.33 390.8Z" fill="white"/>
<path d="M271.17 392.43L270.94 392.54C270.857 392.55 270.773 392.55 270.69 392.54C270.69 392.54 270.63 392.6 270.69 392.62C270.786 392.648 270.888 392.648 270.984 392.619C271.079 392.591 271.165 392.536 271.23 392.46C271.23 392.46 271.21 392.41 271.17 392.43Z" fill="white"/>
<path d="M282.48 384.76C282.42 384.76 282.38 384.76 282.32 384.76C282.26 384.76 282.26 384.76 282.32 384.82C282.342 384.845 282.37 384.865 282.401 384.877C282.433 384.889 282.467 384.894 282.5 384.89C282.5 384.89 282.53 384.77 282.48 384.76Z" fill="white"/>
</g>
<path d="M445.81 379.43V422.15C445.81 425.21 444.67 427.7 443.28 427.7H426.84H410.38C408.99 427.7 407.86 425.24 407.86 422.18V379.43C407.86 376.37 408.99 373.91 410.38 373.91H411.9V369.91H426.84H441.76V373.91H443.28C444.67 373.91 445.81 376.37 445.81 379.43Z" fill="#FFC727"/>
<path d="M442.8 363.33H410.83V370.52H442.8V363.33Z" fill="#37474F"/>
<path d="M445.8 388.49H407.86V415.48H445.8V388.49Z" fill="#EBEBEB"/>
<path d="M403.65 420.17C403.65 425.77 401.55 427.7 400.48 427.71H382.24C381.17 427.71 379.06 425.79 379.05 420.19C379.05 413.55 383.8 409.56 383.79 405.93C383.79 403.56 381.51 396.22 382.49 396.22H400.14C401.14 396.22 398.86 403.57 398.86 405.94C398.87 409.56 403.64 413.53 403.65 420.17Z" fill="#C7C7C7"/>
<path d="M383.826 391.314L398.716 391.293C399.286 391.292 399.833 391.518 400.237 391.92C400.641 392.323 400.868 392.87 400.869 393.44L400.875 397.81C400.875 397.85 400.859 397.888 400.831 397.916C400.803 397.944 400.765 397.96 400.725 397.96L381.845 397.986C381.805 397.987 381.767 397.971 381.739 397.943C381.711 397.915 381.695 397.876 381.695 397.837L381.689 393.467C381.688 392.898 381.913 392.352 382.313 391.949C382.713 391.546 383.257 391.317 383.826 391.314Z" fill="#37474F"/>
<path d="M176.71 423.41C176.518 424.945 176.011 426.423 175.219 427.752C174.427 429.081 173.369 430.231 172.11 431.13C166.73 435.39 157.75 437.2 148.68 435.86C142.54 434.96 134.83 431.51 127.37 428.17C119.91 424.83 112.67 421.58 107.6 421.17L47.6 416L47.92 412.32L49.32 412.44L49.12 414.71L107.72 419.76C113.03 420.22 120.28 423.47 127.95 426.9C135.32 430.2 142.95 433.61 148.88 434.49C157.58 435.77 166.15 434.07 171.23 430.05C172.338 429.267 173.273 428.263 173.975 427.101C174.677 425.94 175.132 424.645 175.31 423.3L176.71 423.41Z" fill="#A6A6A6"/>
<path d="M176.4 420.1C176.696 421.177 176.801 422.297 176.71 423.41L175.31 423.28C175.364 421.925 175.137 420.573 174.643 419.31C174.149 418.047 173.399 416.899 172.44 415.94C168.12 411.11 159.98 407.94 151.19 407.74C145.19 407.59 137.09 409.65 129.26 411.64C121.12 413.71 113.42 415.64 108.11 415.21L49.52 410.21L49.32 412.47L47.92 412.35L48.23 408.68L108.23 413.85C113.3 414.29 120.89 412.36 128.92 410.32C136.95 408.28 145.02 406.23 151.23 406.39C160.39 406.62 168.92 409.94 173.5 415.05C174.839 416.49 175.831 418.218 176.4 420.1Z" fill="#A6A6A6"/>
<path d="M176.71 423.41C176.609 424.163 176.355 424.887 175.963 425.537C175.57 426.187 175.049 426.75 174.43 427.19C169.96 430.8 159.78 432.33 149.11 430.98C143 430.21 135.22 427.73 127.7 425.32C120.18 422.91 112.8 420.56 107.7 420.12L47.7 414.94L47.93 412.3L49.33 412.42L49.22 413.66L107.82 418.66C113.09 419.12 120.4 421.45 128.14 423.93C135.6 426.31 143.31 428.78 149.3 429.54C159.45 430.82 169.42 429.38 173.55 426.04C174.022 425.718 174.422 425.302 174.727 424.819C175.031 424.335 175.233 423.795 175.32 423.23L176.71 423.41Z" fill="#A6A6A6"/>
<path d="M176.56 421.83C176.704 422.343 176.755 422.879 176.71 423.41L176.65 424.11L47.85 413L48.14 409.65L108.14 414.82C113.26 415.27 120.78 414.22 128.74 413.12C136.7 412.02 144.66 410.92 150.82 411.21C161.56 411.71 171.32 414.95 175.11 419.28C175.78 420.009 176.276 420.881 176.56 421.83ZM175.28 422.57C175.099 421.686 174.673 420.872 174.05 420.22C170.55 416.22 160.97 413.1 150.75 412.63C144.75 412.34 136.7 413.45 128.94 414.53C120.94 415.64 113.29 416.69 108.02 416.24L49.43 411.19V411.72L175.28 422.57Z" fill="#A6A6A6"/>
<path d="M44.66 418.1L92.02 422.18L93.06 410.12L45.43 406.01L44.66 418.1Z" fill="#37474F"/>
<path d="M371.17 164.5C370.496 170.977 368.034 177.139 364.061 182.298C360.088 187.457 354.759 191.41 348.669 193.716C342.579 196.022 335.968 196.589 329.574 195.356C323.18 194.122 317.255 191.136 312.46 186.73L294.88 189.31L303.68 174.11C301.664 169.163 300.802 163.822 301.159 158.492C301.517 153.162 303.086 147.983 305.745 143.351C308.405 138.718 312.086 134.752 316.508 131.756C320.931 128.759 325.978 126.81 331.267 126.057C336.556 125.304 341.946 125.766 347.029 127.41C352.112 129.053 356.754 131.833 360.601 135.54C364.448 139.246 367.4 143.781 369.231 148.799C371.062 153.817 371.726 159.187 371.17 164.5Z" fill="white"/>
<path d="M371.17 164.5C370.493 170.976 368.039 177.14 364.08 182.31C362.148 184.922 359.824 187.219 357.19 189.12C354.598 191.083 351.744 192.672 348.71 193.84C345.676 195.026 342.492 195.787 339.25 196.1C337.627 196.24 335.997 196.27 334.37 196.19C332.739 196.15 331.114 195.98 329.51 195.68C323.028 194.494 317.005 191.522 312.12 187.1L312.54 187.23L295 189.92L293.73 190.12L294.37 189L303.12 173.77V174.37C301.058 169.333 300.18 163.889 300.554 158.459C300.929 153.028 302.546 147.757 305.28 143.05C308.017 138.364 311.777 134.358 316.28 131.33C320.783 128.33 325.915 126.404 331.28 125.7C336.61 124.965 342.038 125.465 347.144 127.161C352.25 128.857 356.898 131.703 360.73 135.48C364.551 139.213 367.476 143.764 369.285 148.79C371.093 153.817 371.738 159.188 371.17 164.5ZM371.17 164.5C371.728 159.21 371.064 153.863 369.229 148.87C367.395 143.877 364.439 139.371 360.59 135.7C356.74 132.03 352.099 129.291 347.025 127.696C341.95 126.101 336.578 125.692 331.32 126.5C326.11 127.282 321.148 129.241 316.81 132.23C312.516 135.245 308.929 139.159 306.3 143.7C303.702 148.253 302.177 153.339 301.84 158.57C301.512 163.794 302.356 169.024 304.31 173.88L304.44 174.19L304.27 174.48L295.42 189.65L294.79 188.72L312.39 186.26H312.63L312.81 186.43C317.514 190.791 323.337 193.758 329.63 195C331.202 195.323 332.797 195.517 334.4 195.58C336.001 195.69 337.609 195.69 339.21 195.58C342.417 195.328 345.574 194.631 348.59 193.51C351.627 192.414 354.485 190.874 357.07 188.94C359.702 187.061 362.032 184.792 363.98 182.21C367.962 177.082 370.451 170.953 371.17 164.5Z" fill="#263238"/>
<path d="M351.12 167.47C347.176 172.749 342.142 177.118 336.36 180.28C330.58 177.115 325.547 172.747 321.6 167.47C316.41 160.59 316.66 149.83 324.1 147.47C332.32 144.89 336.36 157.27 336.36 157.27C336.36 157.27 340.46 144.81 348.63 147.47C356 149.91 356.32 160.59 351.12 167.47Z" fill="#FFC727"/>
</svg>
