<svg width="54" height="57" viewBox="0 0 54 57" fill="none" xmlns="http://www.w3.org/2000/svg">
<ellipse cx="33" cy="40" rx="14" ry="13" fill="#E49145"/>
<ellipse cx="37" cy="26.5" rx="7" ry="6.5" fill="#E45B45"/>
<path d="M40.9574 32.9689C38.8012 31.2797 36.2716 30.4183 33.9804 29.8333V27.6308C35.7161 25.8563 37.0596 23.7281 37.743 21.5932H38.0032C40.3682 21.5932 42.2923 19.6736 42.2923 17.3142V15.9827C42.2923 14.356 40.968 13.0325 39.3404 13.0325H38.2418V11.9496C38.2419 5.36055 32.3016 0 25 0C17.6983 0 11.7581 5.36055 11.7581 11.9495V13.0324H10.6594C9.03181 13.0324 7.70759 14.3559 7.70759 15.9826V17.3141C7.70759 19.6735 9.63035 21.5931 11.9939 21.5931H12.2574C12.9407 23.726 14.283 25.8529 16.0168 27.6269V29.8333C13.7263 30.4185 11.1975 31.2799 9.04216 32.9688C5.98435 35.3649 4.43396 38.859 4.43396 43.3541V49.0234C4.43396 49.5628 4.87126 50 5.41052 50H44.5895C45.1288 50 45.5661 49.5628 45.5661 49.0234V43.3543C45.5661 38.8591 44.0155 35.3649 40.9574 32.9689ZM23.2272 34.7625V31.8433C23.8315 31.9737 24.4157 32.0411 24.9993 32.0411C25.5833 32.0411 26.168 31.9735 26.7728 31.8428V34.635C26.7611 34.6772 26.7526 34.7198 26.7468 34.7625H23.2272ZM17.9699 35.6403V29.3453C19.0028 30.1214 20.1169 30.7674 21.2741 31.2337V34.2468L17.9699 35.6403ZM28.7259 31.2329C29.8821 30.767 30.9953 30.1221 32.0273 29.3474V35.6438L28.7259 34.2603V31.2329ZM40.3391 15.9827V17.3142C40.3391 18.538 39.3847 19.5434 38.1782 19.6328C38.2197 19.2857 38.2419 18.9414 38.2419 18.6014V14.9855H39.3405C39.8818 14.9856 40.3391 15.4422 40.3391 15.9827ZM25 1.95312C31.2246 1.95312 36.2887 6.4375 36.2887 11.9495V12.9901C33.2998 12.7175 32.291 11.1531 31.0449 9.21973C30.882 8.96699 30.6117 8.80332 30.3122 8.77617C30.0128 8.74912 29.7174 8.86133 29.5118 9.08076C26.1135 12.7046 21.7588 12.524 14.5437 12.2243C14.27 12.213 13.9925 12.2015 13.7114 12.19V11.9494C13.7112 6.4375 18.7754 1.95312 25 1.95312ZM9.66082 17.3142V15.9827C9.66082 15.4329 10.1089 14.9856 10.6595 14.9856H11.7582V18.6015C11.7582 18.9415 11.7803 19.2859 11.8219 19.6331C10.6155 19.5449 9.66082 18.539 9.66082 17.3142ZM13.7112 14.1449C13.9644 14.1553 14.2153 14.1656 14.4625 14.1759C21.4298 14.465 26.2015 14.6633 30.058 11.2695C31.2645 13.013 32.862 14.6822 36.2886 14.9479V18.6014C36.2886 22.7314 32.2824 27.8385 27.7149 29.5307C25.7063 30.2754 24.2812 30.2741 22.2693 29.5256C17.7102 27.8288 13.7111 22.724 13.7111 18.6015V14.1449H13.7112ZM16.4533 37.9258C16.6158 38.0336 16.804 38.0886 16.9933 38.0886C17.1218 38.0886 17.2509 38.0632 17.3727 38.0118L21.7817 36.1522C22.1137 36.4985 22.58 36.7155 23.0968 36.7155H24.0234V42.5376C24.0234 43.077 24.4607 43.5142 25 43.5142C25.5392 43.5142 25.9765 43.077 25.9765 42.5376V36.7155H26.9031C27.4154 36.7155 27.8782 36.5025 28.2096 36.1615L32.6264 38.0126C32.7477 38.0635 32.8761 38.0885 33.0038 38.0885C33.1935 38.0885 33.3821 38.0332 33.5447 37.925C33.8169 37.7439 33.9804 37.4388 33.9804 37.1119V31.8556C35.3329 32.2271 36.6661 32.6927 37.8894 33.3271V48.0469H12.1105V33.327C13.3331 32.6929 14.6653 32.2274 16.0168 31.856V37.1121C16.0168 37.4393 16.1806 37.7448 16.4533 37.9258ZM6.38699 43.3543C6.38699 39.0518 7.92019 36.3543 10.1573 34.5789V48.0469H6.38699V43.3543ZM43.613 48.0469H39.8427V34.579C42.0799 36.3544 43.613 39.0519 43.613 43.3542V48.0469Z" fill="black"/>
<path d="M19.6233 19.3759C20.1625 19.3759 20.5999 18.9387 20.5999 18.3993V17.3142C20.5999 16.7748 20.1625 16.3376 19.6233 16.3376C19.084 16.3376 18.6467 16.7748 18.6467 17.3142V18.3993C18.6467 18.9387 19.084 19.3759 19.6233 19.3759Z" fill="black"/>
<path d="M30.3766 19.3759C30.9158 19.3759 31.3531 18.9387 31.3531 18.3993V17.3142C31.3531 16.7748 30.9158 16.3376 30.3766 16.3376C29.8373 16.3376 29.4 16.7748 29.4 17.3142V18.3993C29.4 18.9387 29.8372 19.3759 30.3766 19.3759Z" fill="black"/>
<path d="M22.6025 25.4682C23.3521 26.0781 24.161 26.3794 25 26.3629C25.0214 26.3633 25.0427 26.3635 25.0641 26.3635C25.8824 26.3635 26.6669 26.0625 27.3974 25.4682C27.8158 25.1277 27.879 24.5127 27.5385 24.0943C27.1981 23.6759 26.5828 23.6128 26.1647 23.9532C25.7745 24.2707 25.3983 24.4197 25.0264 24.4099C25.0086 24.4094 24.9914 24.4094 24.9736 24.4099C24.5996 24.4194 24.2253 24.2707 23.8353 23.9532C23.4172 23.6128 22.802 23.676 22.4615 24.0943C22.1211 24.5127 22.1841 25.1278 22.6025 25.4682Z" fill="black"/>
<path d="M14.7184 43.5369C14.7184 44.0763 15.1557 44.5135 15.6949 44.5135H19.6235C20.1627 44.5135 20.6 44.0763 20.6 43.5369C20.6 42.9976 20.1627 42.5603 19.6235 42.5603H15.6949C15.1556 42.5603 14.7184 42.9976 14.7184 43.5369Z" fill="black"/>
</svg>
