<svg width="54" height="57" viewBox="0 0 54 57" fill="none" xmlns="http://www.w3.org/2000/svg">
<ellipse cx="33" cy="40" rx="14" ry="13" fill="#E49145"/>
<ellipse cx="37" cy="26.5" rx="7" ry="6.5" fill="#E45B45"/>
<g clip-path="url(#clip0_39_11294)">
<path d="M36.8075 3.92578H36.2484C35.7945 1.71856 33.8334 0.053421 31.4898 0.053421C29.145 0.053421 27.1828 1.71856 26.7286 3.92578H24.5308C24.0766 1.71856 22.1144 0.053421 19.7695 0.053421C17.4261 0.053421 15.4649 1.71856 15.0109 3.92578H12.8105C12.3566 1.71856 10.3955 0.053421 8.05195 0.053421C5.70713 0.053421 3.74492 1.71856 3.29072 3.92578H2.73438C1.22666 3.92578 0 5.15059 0 6.65616V47.2161C0 48.7217 1.22666 49.9465 2.73438 49.9465H36.8075C38.3152 49.9465 39.5419 48.7217 39.5419 47.2161V6.65616C39.5419 5.15059 38.3153 3.92578 36.8075 3.92578ZM1.95312 14.546H37.5888V17.465H1.95312V14.546ZM31.4899 2.00655C32.7479 2.00655 33.8212 2.80811 34.224 3.92578H28.7533C29.1564 2.80811 30.2309 2.00655 31.4899 2.00655ZM19.7695 2.00655C21.0286 2.00655 22.103 2.80811 22.5062 3.92578H17.0354C17.4384 2.80811 18.5117 2.00655 19.7695 2.00655ZM8.05195 2.00655C9.30986 2.00655 10.3832 2.80811 10.786 3.92578H5.31533C5.71855 2.80811 6.79287 2.00655 8.05195 2.00655ZM2.73438 5.87891H3.29062C3.74453 8.0876 5.70693 9.75391 8.05195 9.75391C8.59121 9.75391 9.02852 9.3167 9.02852 8.77735C9.02852 8.23799 8.59121 7.80078 8.05195 7.80078C6.79248 7.80078 5.71797 6.99795 5.31504 5.87881H15.0109C15.4646 8.0876 17.4259 9.75391 19.7696 9.75391C20.3089 9.75391 20.7462 9.3167 20.7462 8.77735C20.7462 8.23799 20.3089 7.80078 19.7696 7.80078C18.5113 7.80078 17.4378 6.99795 17.0353 5.87881H26.7286C27.1826 8.0876 29.145 9.75391 31.49 9.75391C32.0293 9.75391 32.4666 9.3167 32.4666 8.77735C32.4666 8.23799 32.0293 7.80078 31.49 7.80078C30.2306 7.80078 29.1561 6.99795 28.7531 5.87881H36.8077C37.2313 5.87881 37.589 6.23477 37.589 6.65606V12.5928H1.95312V6.65616C1.95312 6.23487 2.31094 5.87891 2.73438 5.87891ZM36.8075 47.9935H2.73438C2.31094 47.9935 1.95312 47.6375 1.95312 47.2162V19.4182H37.5888V47.2161C37.5888 47.6375 37.2311 47.9935 36.8075 47.9935Z" fill="black"/>
<path d="M49.9499 17.4978L46.916 8.38867C46.7832 7.98975 46.4099 7.7207 45.9895 7.7207C45.569 7.7207 45.1957 7.98994 45.063 8.38897L42.0319 17.498C41.9988 17.5975 41.9819 17.7016 41.9819 17.8063V48.97C41.9819 49.5094 42.4192 49.9466 42.9585 49.9466H49.0234C49.5627 49.9466 50 49.5094 50 48.97V17.8063C50 17.7015 49.9831 17.5973 49.9499 17.4978ZM43.9351 18.7829H48.0469V41.6519H43.9351V18.7829ZM45.99 11.789L47.6689 16.8298H44.3127L45.99 11.789ZM43.9351 47.9935V43.605H48.0469V47.9935H43.9351Z" fill="black"/>
<path d="M11.1939 29.5599H6.69006C6.15081 29.5599 5.7135 29.9971 5.7135 30.5364C5.7135 31.0758 6.15081 31.513 6.69006 31.513H11.1939C11.7331 31.513 12.1704 31.0758 12.1704 30.5364C12.1704 29.9971 11.7331 29.5599 11.1939 29.5599Z" fill="black"/>
<path d="M32.8491 29.5599H17.054C16.5147 29.5599 16.0774 29.9971 16.0774 30.5364C16.0774 31.0758 16.5147 31.513 17.054 31.513H32.8491C33.3883 31.513 33.8256 31.0758 33.8256 30.5364C33.8256 29.9971 33.3883 29.5599 32.8491 29.5599Z" fill="black"/>
<path d="M32.8491 35.8987H17.054C16.5147 35.8987 16.0774 36.3359 16.0774 36.8753C16.0774 37.4146 16.5147 37.8519 17.054 37.8519H32.8491C33.3883 37.8519 33.8256 37.4146 33.8256 36.8753C33.8256 36.3359 33.3883 35.8987 32.8491 35.8987Z" fill="black"/>
<path d="M11.1939 35.8987H6.69006C6.15081 35.8987 5.7135 36.3359 5.7135 36.8753C5.7135 37.4146 6.15081 37.8519 6.69006 37.8519H11.1939C11.7331 37.8519 12.1704 37.4146 12.1704 36.8753C12.1704 36.3359 11.7331 35.8987 11.1939 35.8987Z" fill="black"/>
<path d="M11.1939 42.2347H6.69006C6.15081 42.2347 5.7135 42.6719 5.7135 43.2112C5.7135 43.7506 6.15081 44.1878 6.69006 44.1878H11.1939C11.7331 44.1878 12.1704 43.7506 12.1704 43.2112C12.1704 42.6719 11.7331 42.2347 11.1939 42.2347Z" fill="black"/>
<path d="M32.8491 42.2347H17.054C16.5147 42.2347 16.0774 42.6719 16.0774 43.2112C16.0774 43.7506 16.5147 44.1878 17.054 44.1878H32.8491C33.3883 44.1878 33.8256 43.7506 33.8256 43.2112C33.8256 42.6719 33.3883 42.2347 32.8491 42.2347Z" fill="black"/>
<path d="M32.8491 23.2211H17.054C16.5147 23.2211 16.0774 23.6583 16.0774 24.1977C16.0774 24.737 16.5147 25.1742 17.054 25.1742H32.8491C33.3883 25.1742 33.8256 24.737 33.8256 24.1977C33.8256 23.6583 33.3883 23.2211 32.8491 23.2211Z" fill="black"/>
<path d="M11.1939 23.2211H6.69006C6.15081 23.2211 5.7135 23.6583 5.7135 24.1977C5.7135 24.737 6.15081 25.1742 6.69006 25.1742H11.1939C11.7331 25.1742 12.1704 24.737 12.1704 24.1977C12.1704 23.6583 11.7331 23.2211 11.1939 23.2211Z" fill="black"/>
</g>
<defs>
<clipPath id="clip0_39_11294">
<rect width="50" height="50" fill="white"/>
</clipPath>
</defs>
</svg>
