<svg width="54" height="57" viewBox="0 0 54 57" fill="none" xmlns="http://www.w3.org/2000/svg">
<ellipse cx="33" cy="40" rx="14" ry="13" fill="#E49145"/>
<ellipse cx="37" cy="26.5" rx="7" ry="6.5" fill="#E45B45"/>
<path d="M40.9733 3.68496L37.1447 0.249704C36.7737 -0.0829132 36.2117 -0.0832062 35.8406 0.249509L32.6612 3.10019L29.4818 0.249509C29.1108 -0.0832062 28.5487 -0.0830109 28.1777 0.249704L25.0012 3.10009L21.8219 0.249509C21.4509 -0.0831085 20.889 -0.0831085 20.518 0.249509L17.3388 3.1L14.1622 0.249704C13.7912 -0.0829132 13.2292 -0.0832062 12.8581 0.249509L9.02676 3.68476C8.82012 3.86992 8.70215 4.13437 8.70215 4.41181V45.5853C8.70215 45.8626 8.82012 46.1269 9.02646 46.312L12.8578 49.7501C13.229 50.0831 13.7915 50.0831 14.1625 49.7499L17.3388 46.8976L20.5177 49.7501C20.7032 49.9166 20.9365 49.9999 21.1699 49.9999C21.4033 49.9999 21.6366 49.9166 21.8222 49.7501L25.0011 46.8976L28.1773 49.7499C28.5484 50.083 29.111 50.0832 29.482 49.7501L32.6611 46.8973L35.8402 49.7501C36.2113 50.0831 36.7738 50.0831 37.1449 49.7499L40.9735 46.3118C41.1798 46.1267 41.2976 45.8624 41.2976 45.5853V4.41191C41.2977 4.13457 41.1798 3.87031 40.9733 3.68496ZM39.3445 45.1498L36.4923 47.7111L33.3134 44.8586C32.9423 44.5256 32.38 44.5256 32.009 44.8586L28.8301 47.7111L25.6538 44.8588C25.2828 44.5258 24.7202 44.5256 24.3491 44.8586L21.17 47.7114L17.9909 44.8586C17.8054 44.6921 17.5721 44.6088 17.3387 44.6088C17.1052 44.6088 16.8718 44.6922 16.6861 44.8588L13.5099 47.7111L10.6554 45.1497V4.84795L13.5099 2.28847L16.6864 5.13886C17.0575 5.47158 17.6195 5.47187 17.9905 5.13906L21.1699 2.28838L24.3493 5.13906C24.7204 5.47177 25.2825 5.47158 25.6534 5.13886L28.83 2.28847L32.0092 5.13896C32.3802 5.47158 32.9421 5.47158 33.3131 5.13896L36.4923 2.28847L39.3445 4.84775V45.1498Z" fill="black"/>
<path d="M17.4073 14.4802C16.254 14.0747 15.5897 13.7677 15.1903 13.4573C15.0502 13.3471 14.9911 13.0877 15.0433 12.8118C15.0698 12.6713 15.1938 12.2015 15.6712 12.0573C16.5746 11.7865 17.1649 12.2181 17.2741 12.3075C17.6915 12.6487 18.3069 12.5874 18.6484 12.17C18.9899 11.7526 18.9283 11.1374 18.5109 10.7958C18.1604 10.5092 17.6714 10.2508 17.0918 10.1163V9.27559C17.0918 8.73633 16.6546 8.29903 16.1153 8.29903C15.5759 8.29903 15.1387 8.73633 15.1387 9.27559V10.1792C15.1287 10.1821 15.1189 10.1841 15.1089 10.187C14.0902 10.4945 13.3296 11.3614 13.1241 12.4494C12.9348 13.4524 13.2638 14.4269 13.9873 14.996C14.5747 15.4525 15.3778 15.8369 16.7579 16.3222C17.6245 16.6287 17.6064 17.3261 17.5582 17.6117C17.4593 18.1995 16.9636 18.8345 16.1098 18.84C15.2345 18.8458 14.9842 18.8054 14.3252 18.374C13.874 18.0786 13.2688 18.2052 12.9733 18.6564C12.6779 19.1076 12.8043 19.7129 13.2556 20.0083C13.9898 20.4888 14.5323 20.6842 15.1943 20.756V21.5939C15.1943 22.1331 15.6315 22.5704 16.1708 22.5704C16.7102 22.5704 17.1474 22.1331 17.1474 21.5939V20.6352C18.4561 20.224 19.2931 19.0725 19.4843 17.9358C19.7428 16.3996 18.9087 15.0111 17.4073 14.4802Z" fill="black"/>
<path d="M22.6653 8.29892C22.1259 8.29892 21.6887 8.73622 21.6887 9.27548V14.5155C21.6887 15.0548 22.1259 15.4921 22.6653 15.4921H36.2124C36.7517 15.4921 37.1889 15.0548 37.1889 14.5155V9.27548C37.1889 8.73622 36.7517 8.29892 36.2124 8.29892H22.6653ZM35.2357 13.5391H23.6418V10.2521H35.2358V13.5391H35.2357Z" fill="black"/>
<path d="M36.2123 18.7819H22.6653C22.1259 18.7819 21.6887 19.2192 21.6887 19.7585C21.6887 20.2978 22.1259 20.7351 22.6653 20.7351H36.2124C36.7517 20.7351 37.1889 20.2978 37.1889 19.7585C37.1889 19.2192 36.7516 18.7819 36.2123 18.7819Z" fill="black"/>
<path d="M31.2295 24.9986C31.2295 24.4594 30.7923 24.0221 30.2529 24.0221H19.73C19.1906 24.0221 18.7534 24.4594 18.7534 24.9986C18.7534 25.5379 19.1906 25.9752 19.73 25.9752H30.2529C30.7923 25.9752 31.2295 25.538 31.2295 24.9986Z" fill="black"/>
<path d="M36.2123 24.0221H34.1676C33.6282 24.0221 33.191 24.4594 33.191 24.9986C33.191 25.5379 33.6282 25.9752 34.1676 25.9752H36.2123C36.7517 25.9752 37.1889 25.5379 37.1889 24.9986C37.1889 24.4594 36.7517 24.0221 36.2123 24.0221Z" fill="black"/>
<path d="M17.1389 29.2649H13.7903C13.2509 29.2649 12.8137 29.7022 12.8137 30.2415C12.8137 30.7808 13.2509 31.2181 13.7903 31.2181H17.1389C17.6783 31.2181 18.1155 30.7808 18.1155 30.2415C18.1155 29.7022 17.6783 29.2649 17.1389 29.2649Z" fill="black"/>
<path d="M36.2124 29.2649H21.0535C20.5141 29.2649 20.0769 29.7022 20.0769 30.2415C20.0769 30.7808 20.5141 31.2181 21.0535 31.2181H36.2125C36.7518 31.2181 37.189 30.7808 37.189 30.2415C37.189 29.7022 36.7517 29.2649 36.2124 29.2649Z" fill="black"/>
<path d="M36.2124 34.5051H21.0535C20.5141 34.5051 20.0769 34.9424 20.0769 35.4816C20.0769 36.0209 20.5141 36.4582 21.0535 36.4582H36.2125C36.7518 36.4582 37.189 36.0209 37.189 35.4816C37.189 34.9424 36.7517 34.5051 36.2124 34.5051Z" fill="black"/>
<path d="M17.1389 34.5051H13.7903C13.2509 34.5051 12.8137 34.9424 12.8137 35.4816C12.8137 36.0209 13.2509 36.4582 13.7903 36.4582H17.1389C17.6783 36.4582 18.1155 36.0209 18.1155 35.4816C18.1155 34.9424 17.6783 34.5051 17.1389 34.5051Z" fill="black"/>
<path d="M36.2124 39.7451H21.0535C20.5141 39.7451 20.0769 40.1824 20.0769 40.7217C20.0769 41.2609 20.5141 41.6982 21.0535 41.6982H36.2125C36.7518 41.6982 37.189 41.2609 37.189 40.7217C37.189 40.1824 36.7517 39.7451 36.2124 39.7451Z" fill="black"/>
<path d="M17.1389 39.7451H13.7903C13.2509 39.7451 12.8137 40.1824 12.8137 40.7217C12.8137 41.2609 13.2509 41.6982 13.7903 41.6982H17.1389C17.6783 41.6982 18.1155 41.2609 18.1155 40.7217C18.1155 40.1824 17.6783 39.7451 17.1389 39.7451Z" fill="black"/>
</svg>
