<svg width="54" height="57" viewBox="0 0 54 57" fill="none" xmlns="http://www.w3.org/2000/svg">
<ellipse cx="33" cy="40" rx="14" ry="13" fill="#E49145"/>
<ellipse cx="37" cy="26.5" rx="7" ry="6.5" fill="#E45B45"/>
<g clip-path="url(#clip0_39_11296)">
<path d="M44.1841 20.2346C43.7346 19.5132 43.2702 18.7673 43.1161 17.6932C42.9625 16.6221 43.1954 15.7732 43.4205 14.9523C43.684 13.992 43.9564 12.9989 43.5095 11.8957C43.4987 11.8689 43.4866 11.8425 43.4733 11.8166C42.9303 10.758 42.0021 10.3173 41.1044 9.89112C40.3359 9.52627 39.5413 9.14893 38.8307 8.33067C38.1198 7.51192 37.8555 6.6713 37.5999 5.85841C37.3014 4.90919 36.9928 3.92765 36.0218 3.24084C35.9975 3.22365 35.9724 3.20754 35.9466 3.19269C34.9184 2.59836 33.9012 2.72805 32.9176 2.85334C32.0729 2.96115 31.1996 3.07228 30.1555 2.76584C29.113 2.46096 28.4352 1.8965 27.7795 1.35051C27.0144 0.713402 26.2233 0.0545165 25.0344 0.000903318C25.005 -0.000463866 24.9757 -0.000463866 24.9462 0.000903318C23.758 0.0547118 22.9721 0.713402 22.2121 1.35031C21.5607 1.89641 20.887 2.46096 19.8446 2.76584C18.8009 3.07082 17.9242 2.96193 17.0763 2.85656C16.0881 2.734 15.0665 2.60676 14.0375 3.20051C14.0115 3.21545 13.9863 3.23166 13.9618 3.24904C12.99 3.93634 12.6852 4.91593 12.3904 5.86329C12.138 6.67403 11.8772 7.51231 11.1665 8.33067C10.4554 9.14971 9.65874 9.53038 8.88833 9.89874C7.9896 10.3283 7.06021 10.7726 6.51636 11.8292C6.50259 11.8558 6.49009 11.8831 6.47886 11.9109C6.03413 13.0135 6.30864 14.0014 6.57417 14.9567C6.80142 15.7747 7.03638 16.6205 6.8814 17.6921C6.72642 18.7641 6.26275 19.514 5.81431 20.2392C5.29058 21.0862 4.74908 21.962 4.8646 23.1447C4.86744 23.1744 4.87164 23.2039 4.8773 23.2332C5.10064 24.4012 5.86724 25.0845 6.60855 25.7453C7.24312 26.3108 7.89917 26.8956 8.34936 27.8787C8.79926 28.865 8.81577 29.7461 8.83169 30.5982C8.85024 31.593 8.86958 32.6216 9.6061 33.5542C9.62456 33.5776 9.64428 33.6001 9.66479 33.6217C10.2684 34.2564 10.9777 34.5107 11.7014 34.6631V49.0233C11.7014 49.3512 11.8661 49.6572 12.1396 49.8381C12.4131 50.0189 12.7592 50.0503 13.0611 49.9215L24.9986 44.8309L36.9363 49.9215C37.0593 49.9739 37.1895 49.9998 37.3193 49.9998C37.5081 49.9998 37.6957 49.9451 37.8578 49.8381C38.1314 49.6572 38.296 49.3513 38.296 49.0233V34.6561C39.0234 34.5015 39.7364 34.2462 40.3421 33.6122C40.3633 33.59 40.3834 33.5669 40.4023 33.5429C41.1391 32.6099 41.1549 31.585 41.17 30.5938C41.1831 29.7451 41.1965 28.8673 41.6476 27.8822C42.0989 26.8956 42.7563 26.3059 43.3919 25.7358C44.1332 25.0708 44.8997 24.3832 45.1228 23.2166C45.1286 23.1867 45.1329 23.1567 45.1357 23.1265C45.2493 21.9447 44.7078 21.0754 44.1841 20.2346ZM13.6545 47.5452V35.0301C14.126 35.1552 14.6077 35.3408 15.1026 35.6585C16.0164 36.2448 16.5075 36.9769 16.9822 37.6849C17.5366 38.5117 18.11 39.3666 19.2365 39.7521C19.2643 39.7617 19.2925 39.77 19.3211 39.7769C19.5875 39.8419 19.8422 39.8701 20.0879 39.8701C20.9075 39.87 21.6249 39.5566 22.3239 39.2511C22.8533 39.0198 23.3952 38.7833 24.029 38.6556L24.023 43.1238L13.6545 47.5452ZM25.9761 43.1245L25.9821 38.6593C26.61 38.7877 27.1501 39.0212 27.6776 39.2499C28.5916 39.6462 29.5368 40.0561 30.6925 39.7743C30.7219 39.7671 30.7509 39.7586 30.7794 39.7488C31.9034 39.3615 32.4719 38.5086 33.0216 37.6837C33.493 36.9764 33.9805 36.2451 34.8946 35.6587C35.3889 35.3419 35.871 35.1556 36.343 35.0292V47.5451L25.9761 43.1245ZM43.1951 22.8944C43.087 23.3668 42.7178 23.7167 42.0878 24.2818C41.3768 24.9196 40.492 25.7133 39.8718 27.0694C39.25 28.427 39.2318 29.6119 39.2173 30.5638C39.2044 31.4026 39.1827 31.9063 38.8975 32.2958C38.5487 32.6355 38.0479 32.7309 37.2106 32.8669C36.2682 33.0198 35.0953 33.2102 33.8403 34.0146C32.5819 34.8218 31.9246 35.8081 31.3964 36.6005C30.9304 37.2999 30.6386 37.7123 30.1858 37.8866C29.7072 37.9854 29.2334 37.7955 28.4545 37.4579C27.579 37.0783 26.4896 36.6059 24.9997 36.6059C24.9972 36.6059 24.9947 36.6059 24.9922 36.6059C23.4996 36.6059 22.4143 37.08 21.542 37.4613C20.7709 37.7982 20.3026 37.9878 19.8273 37.8891C19.3712 37.7152 19.0762 37.3006 18.6044 36.597C18.0734 35.8052 17.4126 34.8199 16.1575 34.0149C14.9004 33.2075 13.7282 33.0212 12.7863 32.8715C11.9545 32.7394 11.4574 32.6462 11.1118 32.3078C10.824 31.9157 10.8004 31.4078 10.7845 30.5616C10.7666 29.6088 10.7446 28.4231 10.1257 27.0668C9.50454 25.71 8.61938 24.9211 7.90815 24.2873C7.28023 23.7276 6.91255 23.381 6.80493 22.9101C6.77495 22.4261 7.03032 21.9864 7.47554 21.2664C7.9771 20.4552 8.60122 19.4456 8.8145 17.9716C9.02817 16.4934 8.71079 15.3515 8.45591 14.4338C8.23139 13.6257 8.11001 13.1365 8.27417 12.6833C8.51216 12.2588 8.96557 12.0265 9.73071 11.6607C10.5919 11.249 11.6639 10.7366 12.6413 9.61124C13.6204 8.4837 13.9725 7.35255 14.2553 6.44357C14.5049 5.64132 14.6683 5.16378 15.0534 4.87033C15.4849 4.64113 15.9927 4.68996 16.8355 4.79484C17.7827 4.91261 18.9615 5.0591 20.3928 4.64044C21.8279 4.22082 22.7366 3.4592 23.4668 2.84728C24.1113 2.30715 24.5072 1.99367 24.9906 1.95481C25.4778 1.99367 25.8781 2.30871 26.5299 2.85148C27.2631 3.46193 28.1756 4.2217 29.6066 4.64015C31.042 5.06144 32.2191 4.91144 33.1649 4.79083C33.9996 4.68449 34.5027 4.63439 34.9303 4.86193C35.3174 5.15675 35.4832 5.63712 35.737 6.44425C36.023 7.35372 36.3789 8.48565 37.3564 9.61133C38.3349 10.7381 39.4062 11.2468 40.2671 11.6555C41.0286 12.0171 41.4796 12.2468 41.7153 12.6697C41.8821 13.126 41.7613 13.6195 41.5374 14.4355C41.2854 15.3541 40.9718 16.4973 41.1832 17.9705C41.3954 19.4512 42.0226 20.4582 42.5265 21.2673C42.9694 21.9786 43.2237 22.4135 43.1951 22.8944Z" fill="black"/>
<path d="M25.007 6.85127C17.6718 6.85127 11.7041 12.8065 11.7041 20.1267C11.7041 27.4483 17.6717 33.405 25.007 33.405C32.3422 33.405 38.3099 27.4483 38.3099 20.1267C38.3099 12.8065 32.3423 6.85127 25.007 6.85127ZM26.5023 18.2617C26.6864 18.452 26.9397 18.5594 27.2043 18.5594H28.9021C29.7068 18.5594 30.3614 19.2116 30.3614 20.0133V22.6568C30.3614 24.2019 29.1007 25.4588 27.5511 25.4588H24.1525C23.458 25.4588 23.1515 25.2036 22.6438 24.7809C22.0124 24.2551 21.1477 23.535 19.4611 23.535H14.1828C13.8418 22.4588 13.6573 21.314 13.6573 20.1268C13.6573 19.7964 13.6725 19.4695 13.7004 19.1463H20.9483L21.0107 19.1464C21.4425 19.1458 21.9762 19.1479 22.5022 18.8018C22.9867 18.4831 23.3575 17.9398 23.7042 17.0407L24.8943 13.9599C25.1083 13.4062 25.4416 13.1315 25.8097 13.2064C26.0881 13.2633 26.3633 13.5193 26.3506 13.8991L26.2285 17.5503C26.2194 17.8146 26.3184 18.0714 26.5023 18.2617ZM25.007 31.4519C20.6913 31.4519 16.9309 29.0357 15.0119 25.4881H19.4611C20.4409 25.4881 20.8406 25.821 21.3939 26.2817C21.9986 26.7853 22.7512 27.4119 24.1525 27.4119H27.5511C30.1776 27.4119 32.3146 25.2787 32.3146 22.6568V20.0133C32.3146 18.1347 30.7837 16.6063 28.9021 16.6063H28.2141L28.3023 13.9644C28.3456 12.6735 27.4613 11.5499 26.1996 11.2927C25.1875 11.0865 23.7602 11.4764 23.0724 13.256L21.882 16.3375C21.6136 17.0335 21.4471 17.1581 21.4289 17.1699C21.3926 17.1939 21.1461 17.1937 21.0137 17.1933L14.0444 17.1932C15.3433 12.3676 19.7655 8.8044 25.0071 8.8044C31.2653 8.8044 36.3568 13.8836 36.3568 20.1267C36.3567 26.3714 31.2652 31.4519 25.007 31.4519Z" fill="black"/>
</g>
<defs>
<clipPath id="clip0_39_11296">
<rect width="50" height="50" fill="white"/>
</clipPath>
</defs>
</svg>
