<?xml version="1.0" standalone="no"?>
<!DOCTYPE svg PUBLIC "-//W3C//DTD SVG 20010904//EN"
 "http://www.w3.org/TR/2001/REC-SVG-20010904/DTD/svg10.dtd">
<svg version="1.0" xmlns="http://www.w3.org/2000/svg"
 width="700.000000pt" height="700.000000pt" viewBox="0 0 700.000000 700.000000"
 preserveAspectRatio="xMidYMid meet">
<metadata>
Created by potrace 1.14, written by Peter Selinger 2001-2017
</metadata>
<g transform="translate(0.000000,700.000000) scale(0.100000,-0.100000)"
fill="#000000" stroke="none">
<path d="M5255 5741 c-3 -2 -20 -5 -37 -6 -111 -7 -128 -10 -128 -18 0 -5 -6
-4 -13 2 -8 6 -16 8 -19 5 -4 -3 -21 -8 -40 -11 -42 -7 -63 -11 -63 -13 0 -2
-12 -4 -72 -13 -18 -3 -36 -8 -40 -10 -5 -3 -28 -8 -53 -12 -25 -4 -48 -9 -52
-11 -4 -3 -16 -7 -26 -9 -9 -1 -37 -9 -62 -16 -25 -7 -48 -13 -52 -15 -5 -1
-9 -2 -10 -4 -2 -1 -10 -3 -18 -5 -8 -2 -51 -13 -95 -25 -74 -20 -137 -37
-175 -45 -8 -2 -40 -10 -70 -18 -30 -8 -63 -13 -72 -11 -10 1 -18 0 -18 -4 0
-4 -17 -8 -38 -10 -20 -1 -57 -4 -82 -6 -42 -3 -159 19 -170 33 -3 3 -12 7
-20 7 -8 1 -28 5 -45 8 -16 3 -43 9 -60 12 -48 10 -60 12 -60 14 0 4 -103 12
-162 14 -35 0 -63 5 -63 9 0 5 -4 5 -10 2 -5 -3 -67 -8 -137 -9 -71 -2 -128
-5 -128 -6 0 -1 -25 -3 -55 -5 -30 -1 -56 -4 -57 -5 -2 -1 -7 -4 -13 -5 -5 -1
-11 -3 -12 -5 -4 -2 -41 -11 -55 -12 -7 -1 -13 -4 -13 -7 0 -3 -10 -7 -23 -8
-31 -3 -50 -8 -62 -14 -5 -4 -31 -12 -57 -20 -27 -7 -48 -17 -48 -21 0 -4 -9
-8 -20 -8 -11 0 -20 -4 -20 -8 0 -8 -60 -36 -72 -33 -5 0 -8 -3 -8 -9 0 -5 -7
-10 -15 -10 -9 0 -18 -7 -21 -15 -4 -8 -15 -15 -25 -15 -10 0 -19 -4 -19 -10
0 -5 -7 -10 -15 -10 -8 0 -15 -3 -15 -8 0 -4 -17 -16 -38 -27 -20 -10 -48 -29
-62 -42 -14 -12 -47 -43 -75 -69 -27 -25 -74 -67 -103 -92 -30 -26 -78 -70
-108 -98 -29 -28 -56 -49 -59 -46 -3 3 -5 1 -5 -4 0 -6 -24 -28 -52 -49 -29
-22 -60 -47 -69 -55 -8 -8 -26 -22 -38 -30 -13 -8 -35 -25 -49 -38 -15 -13
-60 -42 -99 -64 -40 -23 -73 -46 -73 -51 0 -4 -5 -5 -10 -2 -6 3 -22 -3 -38
-13 -15 -11 -31 -20 -37 -21 -5 0 -17 -6 -26 -13 -15 -13 -24 -16 -63 -24 -10
-2 -24 -8 -32 -15 -8 -6 -14 -8 -14 -5 0 4 -8 2 -18 -3 -9 -5 -31 -11 -49 -14
-17 -3 -36 -8 -42 -11 -5 -4 -13 -2 -16 4 -4 7 -12 7 -18 2 -7 -4 -21 -7 -32
-6 -118 15 -140 31 -169 117 -3 9 -15 17 -27 17 -31 0 -119 -47 -151 -81 -16
-16 -32 -29 -36 -29 -4 0 -14 -10 -22 -21 -8 -12 -19 -27 -25 -33 -20 -22 -64
-92 -77 -121 -7 -16 -18 -36 -25 -43 -7 -7 -14 -20 -14 -28 -3 -31 -5 -35 -18
-43 -7 -5 -11 -13 -7 -19 3 -6 3 -12 -2 -14 -11 -4 -59 -170 -71 -243 -5 -33
-8 -136 -7 -228 1 -136 4 -169 16 -177 8 -5 12 -12 8 -15 -9 -9 42 -135 54
-135 5 0 8 -9 8 -19 0 -11 3 -21 8 -23 4 -1 23 -25 41 -53 19 -27 43 -57 53
-66 10 -9 18 -22 18 -28 0 -7 5 -9 10 -6 6 3 10 1 10 -5 0 -35 279 -250 325
-250 8 0 15 -4 15 -10 0 -5 6 -10 13 -10 7 0 32 -9 55 -20 22 -11 48 -20 57
-20 8 0 15 -4 15 -8 0 -5 6 -9 13 -9 6 -1 36 -11 65 -22 28 -12 52 -18 52 -15
0 3 7 -2 16 -10 8 -9 22 -16 30 -16 8 0 31 -9 52 -19 20 -10 39 -19 42 -19 3
0 18 -5 33 -11 16 -6 33 -11 38 -11 5 0 9 -3 9 -8 0 -4 15 -13 32 -21 58 -25
146 -90 165 -121 9 -16 21 -30 26 -30 4 0 5 -4 2 -10 -3 -5 -2 -10 3 -10 11 0
40 -65 45 -100 2 -14 7 -33 12 -43 4 -10 8 -31 9 -47 0 -17 4 -30 8 -30 5 0 8
-13 8 -28 0 -15 6 -34 13 -41 10 -11 9 -12 -3 -6 -12 7 -13 6 -4 -6 9 -12 28
-79 39 -136 2 -10 4 -18 5 -18 1 0 3 -7 5 -15 4 -17 13 -51 19 -77 3 -10 16
-55 29 -100 14 -46 22 -83 20 -83 -3 0 0 -6 6 -14 6 -8 11 -18 9 -22 -1 -5 3
-25 9 -44 6 -19 21 -69 33 -110 12 -41 32 -105 45 -142 13 -36 21 -69 17 -72
-3 -3 1 -6 8 -6 7 0 11 -3 7 -6 -3 -3 1 -24 9 -47 8 -23 14 -48 12 -57 -6 -41
40 -77 127 -97 47 -11 364 -11 382 0 6 4 24 7 40 7 30 -1 128 7 128 11 0 2 25
6 85 13 25 3 56 7 70 10 14 3 41 8 60 10 52 7 114 19 212 41 12 2 39 7 59 10
20 3 50 10 68 15 17 5 34 9 36 9 3 1 6 1 8 2 9 3 38 8 72 14 22 4 44 10 50 13
5 3 19 7 30 9 55 9 70 11 75 13 3 1 8 2 12 1 4 0 23 6 42 14 20 9 36 13 36 10
0 -2 12 0 28 6 15 7 36 12 47 14 11 1 40 7 65 14 25 7 46 13 47 12 2 0 25 8
53 18 34 13 50 15 50 8 0 -8 3 -9 8 -2 10 15 90 37 104 29 6 -4 8 -3 5 3 -4 6
22 17 66 28 39 9 77 21 82 25 6 5 22 11 35 13 14 2 32 7 40 10 19 7 123 41
130 42 14 2 88 28 105 36 12 6 30 12 40 14 11 2 22 4 25 5 3 1 8 2 13 1 4 0 7
4 7 9 0 5 3 9 8 8 8 -2 47 9 77 22 26 11 134 50 138 49 7 -2 64 16 85 27 14 7
45 18 68 26 24 7 44 16 44 20 0 4 6 8 12 8 14 0 120 51 128 61 3 3 48 28 100
55 52 26 122 66 155 88 70 46 154 128 156 153 5 64 -8 140 -33 202 -6 14 -12
28 -13 31 -2 6 -47 104 -78 170 -12 25 -21 47 -22 50 0 3 -12 28 -25 55 -13
28 -24 52 -25 55 -1 3 -5 14 -9 25 -15 40 -19 50 -21 60 -2 6 -10 34 -18 63
-9 28 -13 52 -10 52 3 0 0 6 -6 13 -6 8 -12 27 -14 43 -2 17 -6 35 -10 41 -4
5 -8 24 -9 42 -1 17 -5 31 -9 31 -4 0 -5 15 -3 33 8 73 11 93 18 122 3 17 8
39 10 50 29 140 124 312 214 390 25 22 57 50 69 62 13 12 23 20 23 17 0 -4 64
62 162 168 20 22 49 58 65 81 15 23 33 48 40 55 6 6 15 21 18 32 3 11 11 20
16 20 5 0 9 9 9 20 0 11 5 20 10 20 6 0 10 6 10 14 0 7 7 19 15 26 8 7 13 16
10 20 -3 4 2 11 10 14 8 3 14 9 14 13 -1 4 5 24 14 43 8 19 15 39 15 44 0 5 5
12 11 15 5 4 12 18 15 31 3 14 12 47 20 74 9 26 13 52 10 57 -3 5 -1 9 3 9 13
0 16 32 17 200 1 154 -3 226 -13 245 -6 11 -7 13 -16 60 -3 16 -11 35 -17 42
-6 7 -8 13 -4 13 8 0 -71 148 -88 165 -7 8 -26 34 -42 60 -16 25 -37 48 -46
51 -9 3 -20 14 -23 25 -4 10 -13 19 -21 19 -8 0 -14 7 -14 15 0 8 -6 15 -13
15 -8 0 -22 9 -32 20 -10 11 -24 20 -32 20 -7 0 -16 6 -19 14 -3 8 -18 18 -34
21 -16 3 -31 13 -34 21 -3 8 -14 14 -25 14 -11 0 -23 5 -26 10 -3 6 -15 10
-26 10 -10 0 -19 5 -19 12 0 6 -3 9 -6 5 -3 -3 -29 3 -58 14 -28 12 -52 20
-53 20 -2 -1 -4 -1 -5 0 -7 2 -47 9 -83 15 -46 8 -324 12 -330 5z"/>
</g>
</svg>
