<svg width="160" height="160" viewBox="0 0 160 160" fill="none" xmlns="http://www.w3.org/2000/svg">
<path d="M150.355 101.245C145.642 113.863 136.016 127.52 122.47 131.565C101.99 137.677 99.5584 154.173 62.8992 152.643C57.5442 152.446 52.2265 151.667 47.04 150.32C44.5081 149.651 42.021 148.823 39.5936 147.84C18.176 139.165 7.00479 120.074 6.07999 100.099C4.85759 73.8241 23.1872 61.3025 35.1008 53.9713C47.0144 46.6401 61.3728 18.2401 97.4208 19.4465C102.926 19.6117 108.393 20.4105 113.715 21.8273C125.846 25.1105 138.176 32.3873 145.344 42.9857C145.882 43.7857 146.396 44.6006 146.886 45.4305C156.48 61.7025 156.778 84.0417 150.355 101.245Z" fill="#E49145" fill-opacity="0.5"/>
<path opacity="0.7" d="M150.355 101.245C145.642 113.863 136.016 127.52 122.47 131.565C101.99 137.677 99.5584 154.173 62.8992 152.643C57.5442 152.446 52.2265 151.667 47.04 150.32C44.5081 149.651 42.021 148.823 39.5936 147.84C18.176 139.165 7.00479 120.074 6.07999 100.099C4.85759 73.8241 23.1872 61.3025 35.1008 53.9713C47.0144 46.6401 61.3728 18.2401 97.4208 19.4465C102.926 19.6117 108.393 20.4105 113.715 21.8273C125.846 25.1105 138.176 32.3873 145.344 42.9857C145.882 43.7857 146.396 44.6006 146.886 45.4305C156.48 61.7025 156.778 84.0417 150.355 101.245Z" fill="#E45B45" fill-opacity="0.1"/>
<path opacity="0.2" d="M144 109.853H130.56V115.293H144V109.853Z" fill="black"/>
<path opacity="0.2" d="M142.72 61.3728H129.28V66.8128H142.72V61.3728Z" fill="black"/>
<path opacity="0.2" d="M94.08 80.5728H80.64V86.0128H94.08V80.5728Z" fill="black"/>
<path opacity="0.2" d="M100.48 48.8H87.04V54.24H100.48V48.8Z" fill="black"/>
<path opacity="0.2" d="M128.32 42.72H114.88V48.16H128.32V42.72Z" fill="black"/>
<path opacity="0.2" d="M32.96 108H19.52V113.44H32.96V108Z" fill="black"/>
<path opacity="0.2" d="M64 127.52H50.56V132.96H64V127.52Z" fill="black"/>
<path opacity="0.1" d="M135.36 68.8928H121.92V74.3328H135.36V68.8928Z" fill="black"/>
<path opacity="0.1" d="M121.28 99.1328H107.84V104.573H121.28V99.1328Z" fill="black"/>
<path opacity="0.1" d="M24.96 99.4529H11.52V104.893H24.96V99.4529Z" fill="black"/>
<path opacity="0.1" d="M92.16 107.773H78.72V113.213H92.16V107.773Z" fill="black"/>
<path opacity="0.1" d="M93.44 100.093H80V105.533H93.44V100.093Z" fill="black"/>
<path opacity="0.1" d="M150.72 68.8928H137.28V74.3328H150.72V68.8928Z" fill="black"/>
<path opacity="0.2" d="M110.72 126.973H97.28V132.413H110.72V126.973Z" fill="black"/>
<path opacity="0.1" d="M103.36 134.493H89.92V139.933H103.36V134.493Z" fill="black"/>
<path opacity="0.1" d="M118.72 134.493H105.28V139.933H118.72V134.493Z" fill="black"/>
<path opacity="0.2" d="M45.5648 59.2639H32.1248V64.7039H45.5648V59.2639Z" fill="black"/>
<path opacity="0.1" d="M38.2048 66.7839H24.7648V72.2239H38.2048V66.7839Z" fill="black"/>
<path opacity="0.1" d="M53.5648 66.7839H40.1248V72.2239H53.5648V66.7839Z" fill="black"/>
<path opacity="0.2" d="M40.32 99.7727H26.88V105.213H40.32V99.7727Z" fill="black"/>
<path opacity="0.1" d="M99.84 73.76H86.4V79.2H99.84V73.76Z" fill="black"/>
<path opacity="0.1" d="M79.68 127.2H66.24V132.64H79.68V127.2Z" fill="black"/>
<path opacity="0.1" d="M121.28 36H107.84V41.44H121.28V36Z" fill="black"/>
<path opacity="0.2" d="M32.64 81.76H19.2V87.2H32.64V81.76Z" fill="black"/>
<path opacity="0.1" d="M40.32 75.04H26.88V80.48H40.32V75.04Z" fill="black"/>
<path opacity="0.1" d="M74.56 47.1328H61.12V52.5728H74.56V47.1328Z" fill="black"/>
<path opacity="0.2" d="M121.28 80.7329H107.84V86.1729H121.28V80.7329Z" fill="black"/>
<path opacity="0.2" d="M111.485 109.824H98.0448V115.264H111.485V109.824Z" fill="black"/>
<path opacity="0.1" d="M45.12 37.28H31.68V42.72H45.12V37.28Z" fill="black"/>
<path opacity="0.1" d="M60.48 37.28H47.04V42.72H60.48V37.28Z" fill="black"/>
<path opacity="0.1" d="M119.68 116.96H106.24V122.4H119.68V116.96Z" fill="black"/>
<path opacity="0.1" d="M24 54.24H10.56V59.68H24V54.24Z" fill="black"/>
<path opacity="0.2" d="M128.125 109.984H114.685V115.424H128.125V109.984Z" fill="black"/>
<path opacity="0.1" d="M118.08 47.1328H104.64V52.5728H118.08V47.1328Z" fill="black"/>
<path opacity="0.1" d="M88.64 37.28H75.2V42.72H88.64V37.28Z" fill="black"/>
<path opacity="0.1" d="M104 37.28H90.56V42.72H104V37.28Z" fill="black"/>
<path d="M21.4976 51.8689C22.688 50.6977 24.832 50.9505 24.832 50.9505C24.832 50.9505 25.0528 53.1009 23.872 54.2721C22.6912 55.4433 20.5376 55.1905 20.5376 55.1905C20.5376 55.1905 20.3104 53.0401 21.4976 51.8689Z" fill="#263238" stroke="#263238" stroke-miterlimit="10"/>
<path d="M23.008 48.0001C24.4672 48.8065 24.832 50.9377 24.832 50.9377C24.832 50.9377 22.8352 51.7569 21.376 50.9377C19.9168 50.1185 19.5488 48.0001 19.5488 48.0001C19.5488 48.0001 21.5488 47.2033 23.008 48.0001Z" fill="#263238" stroke="#263238" stroke-miterlimit="10"/>
<path d="M27.1904 11.4399V53.9615" stroke="#263238" stroke-miterlimit="10"/>
<path d="M27.7376 49.0688C26.9568 50.544 24.832 50.9504 24.832 50.9504C24.832 50.9504 23.9776 48.9664 24.7584 47.4912C25.5392 46.016 27.6608 45.6128 27.6608 45.6128C27.6608 45.6128 28.5184 47.5968 27.7376 49.0688Z" fill="#263238" stroke="#263238" stroke-miterlimit="10"/>
<path d="M25.7632 54.2817C24.5888 53.0977 24.832 50.9505 24.832 50.9505C24.832 50.9505 26.9824 50.7233 28.1568 51.9105C29.3312 53.0977 29.0848 55.2449 29.0848 55.2449C29.0848 55.2449 26.9376 55.4657 25.7632 54.2817Z" fill="#263238" stroke="#263238" stroke-miterlimit="10"/>
<path d="M28.7104 52.3648C30.288 51.824 32.1152 52.9824 32.1152 52.9824C32.1152 52.9824 31.3824 55.0144 29.8048 55.5424C28.2272 56.0704 26.4 54.928 26.4 54.928C26.4 54.928 27.1328 52.9056 28.7104 52.3648Z" fill="#263238" stroke="#263238" stroke-miterlimit="10"/>
<path d="M31.7408 49.5424C32.7008 50.9024 32.1152 52.9824 32.1152 52.9824C32.1152 52.9824 29.9584 52.8544 28.992 51.4944C28.0256 50.1344 28.6208 48.0544 28.6208 48.0544C28.6208 48.0544 30.7776 48.1824 31.7408 49.5424Z" fill="#263238" stroke="#263238" stroke-miterlimit="10"/>
<path d="M35.5456 52.544C34.2048 53.536 32.1152 52.9824 32.1152 52.9824C32.1152 52.9824 32.2016 50.8224 33.5424 49.8304C34.8832 48.8384 36.976 49.3952 36.976 49.3952C36.976 49.3952 36.8864 51.5552 35.5456 52.544Z" fill="#263238" stroke="#263238" stroke-miterlimit="10"/>
<path d="M31.5072 56.3872C30.9632 54.8096 32.1152 52.9824 32.1152 52.9824C32.1152 52.9824 34.1504 53.7088 34.6944 55.2832C35.2384 56.8576 34.0896 58.6912 34.0896 58.6912C34.0896 58.6912 32.0544 57.9648 31.5072 56.3872Z" fill="#263238" stroke="#263238" stroke-miterlimit="10"/>
<path d="M17.8976 52.1087C19.3408 52.6495 19.9648 54.5471 19.9648 54.5471C19.9648 54.5471 18.24 55.5679 16.8064 55.0399C15.3728 54.5119 14.7392 52.6015 14.7392 52.6015C14.7392 52.6015 16.4544 51.5679 17.8976 52.1087Z" fill="#263238" stroke="#263238" stroke-miterlimit="10"/>
<path d="M21.7184 51.8752C21.6096 53.4144 19.9648 54.5473 19.9648 54.5473C19.9648 54.5473 18.5024 53.1904 18.6112 51.6512C18.72 50.112 20.3648 48.9792 20.3648 48.9792C20.3648 48.9792 21.8304 50.3392 21.7184 51.8752Z" fill="#263238" stroke="#263238" stroke-miterlimit="10"/>
<path d="M22.6688 56.2529C21.1296 56.1697 19.9648 54.5473 19.9648 54.5473C19.9648 54.5473 21.296 53.0593 22.8448 53.1393C24.3936 53.2193 25.5488 54.8449 25.5488 54.8449C25.5488 54.8449 24.208 56.3201 22.6688 56.2529Z" fill="#263238" stroke="#263238" stroke-miterlimit="10"/>
<path d="M17.5328 56.6207C18.0704 55.1775 19.9648 54.5471 19.9648 54.5471C19.9648 54.5471 20.992 56.2623 20.4544 57.7055C19.9168 59.1487 18.0224 59.7791 18.0224 59.7791C18.0224 59.7791 16.9952 58.0671 17.5328 56.6207Z" fill="#263238" stroke="#263238" stroke-miterlimit="10"/>
<path d="M31.4176 53.8081C32.9952 53.2673 34.8224 54.4257 34.8224 54.4257C34.8224 54.4257 34.0896 56.4577 32.512 56.9857C30.9344 57.5137 29.12 56.3841 29.12 56.3841C29.12 56.3841 29.84 54.3489 31.4176 53.8081Z" fill="#E49145"/>
<path d="M34.448 50.9856C35.408 52.3456 34.8224 54.4256 34.8224 54.4256C34.8224 54.4256 32.6624 54.2976 31.6992 52.9376C30.736 51.5776 31.3248 49.4976 31.3248 49.4976C31.3248 49.4976 33.4848 49.6256 34.448 50.9856Z" fill="#E49145"/>
<path d="M38.2528 53.9872C36.9088 54.9792 34.8224 54.4256 34.8224 54.4256C34.8224 54.4256 34.9088 52.2656 36.2496 51.2736C37.5904 50.2816 39.68 50.8384 39.68 50.8384C39.68 50.8384 39.5936 52.9984 38.2528 53.9872Z" fill="#E49145"/>
<path d="M34.2144 57.8303C33.6704 56.2527 34.8224 54.4255 34.8224 54.4255C34.8224 54.4255 36.8576 55.1519 37.4016 56.7295C37.9456 58.3071 36.8 60.1343 36.8 60.1343C36.8 60.1343 34.7616 59.4079 34.2144 57.8303Z" fill="#E49145"/>
<path d="M26.3648 65.9199C26.8014 65.9352 27.2275 66.0583 27.605 66.2783C27.9824 66.4983 28.2995 66.8083 28.528 67.1807C28.9752 68.0151 29.2227 68.9417 29.2512 69.8879C29.2512 69.8879 26.1824 69.5103 26.3648 65.9199Z" fill="#263238" stroke="#263238" stroke-miterlimit="10"/>
<path d="M27.4464 73.3025C27.8832 73.3175 28.3094 73.4401 28.6874 73.6595C29.0653 73.8789 29.3832 74.1882 29.6128 74.5601C30.0581 75.395 30.3045 76.3215 30.3328 77.2673C30.3328 77.2673 27.2672 76.9089 27.4464 73.3025Z" fill="#263238" stroke="#263238" stroke-miterlimit="10"/>
<path d="M29.792 80.7009C30.229 80.7162 30.6555 80.8394 31.0335 81.0593C31.4115 81.2793 31.7292 81.5893 31.9584 81.9617C32.4037 82.7966 32.6501 83.7231 32.6784 84.6689C32.6784 84.6689 29.6128 84.3073 29.792 80.7009Z" fill="#263238" stroke="#263238" stroke-miterlimit="10"/>
<path d="M26.0832 69.1201C26.3475 69.4681 26.5217 69.876 26.5903 70.3075C26.659 70.7391 26.62 71.1809 26.4768 71.5937C26.1133 72.4683 25.5526 73.2469 24.8384 73.8689C24.8384 73.8689 23.1744 71.2705 26.0832 69.1201Z" fill="#263238" stroke="#263238" stroke-miterlimit="10"/>
<path d="M28.3168 77.8625C28.5813 78.211 28.7557 78.6195 28.8243 79.0516C28.893 79.4837 28.8539 79.926 28.7104 80.3393C28.3463 81.2126 27.7856 81.9901 27.072 82.6113C27.072 82.6113 25.408 80.0001 28.3168 77.8625Z" fill="#263238" stroke="#263238" stroke-miterlimit="10"/>
<path d="M26.0032 64.2783C26.0032 64.2783 25.8208 74.9247 30.6944 82.5183" stroke="#263238" stroke-miterlimit="10"/>
<path d="M36.5792 60.0896C36.2025 60.1028 35.835 60.209 35.5095 60.3989C35.1839 60.5887 34.9105 60.8563 34.7136 61.1776C34.3296 61.897 34.1171 62.6953 34.0928 63.5104C34.0928 63.5104 36.736 63.2 36.5792 60.0896Z" fill="#263238" stroke="#263238" stroke-miterlimit="10"/>
<path d="M35.648 66.4641C35.2714 66.4773 34.9038 66.5835 34.5783 66.7734C34.2528 66.9633 33.9793 67.2308 33.7824 67.5521C33.3965 68.2709 33.1829 69.0695 33.1584 69.8849C33.1584 69.8849 35.8016 69.5745 35.648 66.4641Z" fill="#263238" stroke="#263238" stroke-miterlimit="10"/>
<path d="M33.6256 72.8384C33.249 72.8515 32.8815 72.9578 32.5559 73.1477C32.2304 73.3375 31.9569 73.6051 31.76 73.9264C31.376 74.6457 31.1636 75.4441 31.1392 76.2592C31.1392 76.2592 33.7824 75.9488 33.6256 72.8384Z" fill="#263238" stroke="#263238" stroke-miterlimit="10"/>
<path d="M36.8224 62.8672C36.5944 63.1675 36.4441 63.5194 36.3849 63.8918C36.3257 64.2642 36.3595 64.6454 36.4832 65.0016C36.7963 65.7536 37.2793 66.4228 37.8944 66.9568C37.8944 66.9568 39.328 64.7168 36.8224 62.8672Z" fill="#263238" stroke="#263238" stroke-miterlimit="10"/>
<path d="M34.896 70.4001C34.668 70.7004 34.5177 71.0524 34.4585 71.4248C34.3994 71.7971 34.4331 72.1784 34.5568 72.5345C34.8711 73.2876 35.3552 73.9578 35.9712 74.4929C35.9712 74.4929 37.4016 72.2433 34.896 70.4001Z" fill="#263238" stroke="#263238" stroke-miterlimit="10"/>
<path d="M36.8896 58.6912C36.8896 58.6912 37.0464 67.8656 32.848 74.3936" stroke="#263238" stroke-miterlimit="10"/>
<path d="M14.672 55.0752C15.2011 58.0121 16.7458 60.6696 19.0359 62.583C21.326 64.4964 24.2158 65.5439 27.2 65.5424C30.1826 65.5416 33.0701 64.4931 35.3582 62.5799C37.6463 60.6667 39.1895 58.0105 39.7184 55.0752H14.672Z" fill="white" stroke="#263238" stroke-miterlimit="10"/>
<path d="M32.8736 54.1729C32.6858 58.5192 32.1432 62.8429 31.2512 67.1009C29.8048 73.7729 29.9712 77.1104 31.2512 82.1152C32.5312 87.12 31.4304 89.6225 30.7072 92.3329C29.984 95.0433 29.264 97.3377 29.264 97.3377" stroke="#263238" stroke-miterlimit="10"/>
<path d="M32.512 58.5601C32.512 58.5601 30.3488 60.2273 30.1664 61.8945C30.0637 62.9408 30.1252 63.9967 30.3488 65.0241C30.3488 65.0241 33.0528 64.1825 32.512 58.5601Z" fill="#E49145"/>
<path d="M30.72 69.6033C30.72 69.6033 28.5568 71.2705 28.3744 72.9409C28.2716 73.9861 28.3331 75.0411 28.5568 76.0673C28.5568 76.0673 31.2512 75.2353 30.72 69.6033Z" fill="#E49145"/>
<path d="M31.0688 82.5312C31.0688 82.5312 28.9024 84.2016 28.7232 85.8688C28.6203 86.914 28.6807 87.9687 28.9024 88.9952C28.9024 88.9952 31.6096 88.1633 31.0688 82.5312Z" fill="#E49145"/>
<path d="M29.9872 94.6272C29.9872 94.6272 27.8208 96.2944 27.6416 97.9616C27.5367 99.0077 27.5972 100.064 27.8208 101.091C27.8208 101.091 30.528 100.256 29.9872 94.6272Z" fill="#E49145"/>
<path d="M32.8736 57.7185C33.3324 57.7449 33.7757 57.8943 34.1569 58.151C34.5381 58.4078 34.8431 58.7624 35.04 59.1777C35.4886 60.1605 35.7336 61.224 35.76 62.3041C35.76 62.3041 32.6944 61.8881 32.8736 57.7185Z" fill="#E49145"/>
<path d="M31.6096 66.8801C32.0684 66.9065 32.5117 67.0559 32.8929 67.3126C33.2741 67.5694 33.5791 67.924 33.776 68.3393C34.2262 69.3229 34.4722 70.3876 34.4992 71.4689C34.4992 71.4689 31.4304 71.0625 31.6096 66.8801Z" fill="#E49145"/>
<path d="M30.72 77.1201C31.1788 77.1465 31.6221 77.2959 32.0033 77.5526C32.3845 77.8094 32.6895 78.164 32.8864 78.5793C33.3365 79.5629 33.5826 80.6276 33.6096 81.7089C33.6096 81.7089 30.528 81.2801 30.72 77.1201Z" fill="#E49145"/>
<path d="M31.792 88.3713C32.2503 88.3983 32.6929 88.5479 33.0735 88.8046C33.454 89.0614 33.7586 89.4157 33.9552 89.8305C34.4054 90.8141 34.6514 91.8788 34.6784 92.9601C34.6784 92.9601 31.6096 92.5409 31.792 88.3713Z" fill="#E49145"/>
<path d="M21.5296 54.9631C21.5296 54.9631 20.0608 57.0591 20.0608 60.4895C20.0608 63.9199 23.3088 68.0671 22.9408 72.3999C22.5728 76.7327 21.856 78.1599 21.856 82.3199C21.856 86.4799 22.4 88.0991 22.4 88.0991" stroke="#263238" stroke-miterlimit="10"/>
<path d="M19.6992 59.4048C19.6992 59.4048 17.536 59.4048 16.9952 60.8512C16.6868 61.598 16.503 62.3904 16.4512 63.1968C16.4512 63.1968 18.0768 63.0144 18.6176 62.112C19.061 61.245 19.4231 60.3387 19.6992 59.4048Z" fill="#E49145"/>
<path d="M20.9632 64.8193C20.9632 64.8193 18.8 66.2625 18.6176 67.6993C18.5149 68.6054 18.5767 69.5225 18.8 70.4065C18.8 70.4065 21.504 69.6929 20.9632 64.8193Z" fill="#E49145"/>
<path d="M21.6864 81.4209C21.6864 81.4209 19.52 82.8641 19.3408 84.3009C19.2361 85.2067 19.2968 86.124 19.52 87.0081C19.52 87.0081 22.2272 86.2945 21.6864 81.4209Z" fill="#E49145"/>
<path d="M22.5888 73.6609C22.5888 73.6609 20.4224 75.1041 20.2432 76.5409C20.1387 77.4467 20.1994 78.3639 20.4224 79.2481C20.4224 79.2481 23.1296 78.5345 22.5888 73.6609Z" fill="#E49145"/>
<path d="M20.0608 60.48C20.4996 60.4973 20.9273 60.6234 21.3054 60.8468C21.6835 61.0702 22.0002 61.384 22.2272 61.76C22.6745 62.5931 22.9221 63.5188 22.9504 64.464C22.9504 64.464 19.8816 64.0992 20.0608 60.48Z" fill="#E49145"/>
<path d="M22.2272 78.3552C22.6643 78.3705 23.0908 78.4936 23.4687 78.7136C23.8467 78.9336 24.1644 79.2436 24.3936 79.616C24.8389 80.4509 25.0853 81.3774 25.1136 82.3232C25.1136 82.3232 22.048 81.9616 22.2272 78.3552Z" fill="#E49145"/>
<path d="M22.2272 88.2783C22.6646 88.294 23.0913 88.4176 23.4692 88.6381C23.8472 88.8587 24.1648 89.1693 24.3936 89.5423C24.8389 90.3772 25.0853 91.3037 25.1136 92.2495C25.1136 92.2495 22.048 91.8879 22.2272 88.2783Z" fill="#E49145"/>
<path d="M22.768 68.9697C23.2053 68.9854 23.632 69.109 24.01 69.3295C24.388 69.5501 24.7056 69.8607 24.9344 70.2337C25.3797 71.0686 25.6261 71.9951 25.6544 72.9409C25.6544 72.9409 22.5888 72.5793 22.768 68.9697Z" fill="#E49145"/>
<path d="M20.1984 50.432C21.3376 51.648 21.0336 53.7888 21.0336 53.7888C21.0336 53.7888 18.88 53.9552 17.7376 52.7392C16.5952 51.5232 16.9024 49.3824 16.9024 49.3824C16.9024 49.3824 19.056 49.216 20.1984 50.432Z" fill="#E49145"/>
<path d="M24.016 52.0385C23.1712 53.4753 21.0336 53.7889 21.0336 53.7889C21.0336 53.7889 20.2656 51.7697 21.1072 50.3297C21.9488 48.8897 24.0928 48.5793 24.0928 48.5793C24.0928 48.5793 24.8608 50.5985 24.016 52.0385Z" fill="#E49145"/>
<path d="M22.8416 56.7392C21.3856 55.92 21.0336 53.7888 21.0336 53.7888C21.0336 53.7888 23.04 52.9824 24.4928 53.7888C25.9456 54.5952 26.3008 56.7392 26.3008 56.7392C26.3008 56.7392 24.2944 57.5552 22.8416 56.7392Z" fill="#E49145"/>
<path d="M17.68 54.6336C18.8928 53.4912 21.0336 53.7888 21.0336 53.7888C21.0336 53.7888 21.2064 55.9424 19.9936 57.088C18.7808 58.2336 16.64 57.92 16.64 57.92C16.64 57.92 16.4672 55.7792 17.68 54.6336Z" fill="#E49145"/>
<path d="M26.1664 54.0801C27.3536 52.9089 29.5008 53.1617 29.5008 53.1617C29.5008 53.1617 29.7216 55.3121 28.5408 56.4833C27.36 57.6545 25.2064 57.4017 25.2064 57.4017C25.2064 57.4017 24.9792 55.2641 26.1664 54.0801Z" fill="#E49145"/>
<path d="M27.6736 50.2402C29.1328 51.0466 29.5008 53.1777 29.5008 53.1777C29.5008 53.1777 27.5008 53.9969 26.0416 53.1777C24.5824 52.3585 24.2144 50.2402 24.2144 50.2402C24.2144 50.2402 26.2144 49.4274 27.6736 50.2402Z" fill="#E49145"/>
<path d="M32.4032 51.2929C31.6224 52.7681 29.5008 53.1745 29.5008 53.1745C29.5008 53.1745 28.6432 51.2001 29.44 49.7153C30.2368 48.2305 32.3424 47.8369 32.3424 47.8369C32.3424 47.8369 33.184 49.8209 32.4032 51.2929Z" fill="#E49145"/>
<path d="M30.4288 56.5056C29.2544 55.3216 29.5008 53.1744 29.5008 53.1744C29.5008 53.1744 31.648 52.9472 32.8224 54.1344C33.9968 55.3216 33.7536 57.4688 33.7536 57.4688C33.7536 57.4688 31.6032 57.6896 30.4288 56.5056Z" fill="#E49145"/>
<path d="M14.672 55.0751L27.1904 11.4399L39.7088 55.0751" stroke="#263238" stroke-miterlimit="10"/>
<path d="M28.848 9.28003H25.5328V13.6H28.848V9.28003Z" fill="white" stroke="#263238" stroke-miterlimit="10"/>
<path d="M68.224 61.072C68.224 61.072 62.5664 59.792 58.4512 61.9712C54.336 64.1504 53.824 67.2448 52.6656 71.488C51.5072 75.7312 48.8096 80.2304 46.3648 83.968C43.92 87.7056 47.9072 93.0976 54.08 95.2832C60.2528 97.4688 70.9248 97.2032 75.6832 94.384C80.4416 91.5648 78.8832 86.6688 77.7408 82.8128C76.5984 78.9568 75.9392 76.64 75.9392 75.3536C75.9392 74.0672 78.3872 73.2192 76.7104 68.0256C75.4272 64.0288 71.568 60.3008 68.224 61.072Z" fill="#263238" stroke="#263238" stroke-linecap="round" stroke-linejoin="round"/>
<path d="M53.2896 77.8079C52.2208 78.2335 51.568 78.4191 51.568 78.4191" stroke="#828282" stroke-linecap="round" stroke-linejoin="round"/>
<path d="M67.072 66.0383C67.072 66.0383 65.568 69.9743 60.8224 73.5583C58.9552 74.9668 56.9427 76.1715 54.8192 77.1519" stroke="#828282" stroke-linecap="round" stroke-linejoin="round"/>
<path d="M62.8096 65.0625C61.9232 66.1953 60.4864 68.0225 58.3936 70.6689C54.4608 75.6417 53.4176 76.5665 51.6736 77.1457" stroke="#828282" stroke-linecap="round" stroke-linejoin="round"/>
<path d="M63.9488 63.6096L63.3344 64.3936" stroke="#828282" stroke-linecap="round" stroke-linejoin="round"/>
<path d="M68.576 62.2207C68.576 62.2207 72.8576 65.6927 71.456 68.1215" stroke="#828282" stroke-linecap="round" stroke-linejoin="round"/>
<path d="M76.3296 69.6096C76.5391 70.3014 76.4972 71.045 76.2112 71.7088" stroke="#828282" stroke-linecap="round" stroke-linejoin="round"/>
<path d="M71.0048 64.4192C71.0048 64.4192 74.448 66.1696 75.8624 68.5536" stroke="#828282" stroke-linecap="round" stroke-linejoin="round"/>
<path d="M80.5952 136.294C79.6 136.595 64.1632 143.366 59.4752 144.96C56.5366 145.939 53.4945 146.575 50.4096 146.854L52.6848 151.555C56.0595 152.144 59.4698 152.508 62.8928 152.643C77.024 153.232 86.0672 151.142 93.0208 148.003C91.8688 145.248 89.8688 140.672 88.4576 138.586C86.3744 135.498 81.6 136 80.5952 136.294Z" fill="#263238" stroke="#263238" stroke-linecap="round" stroke-linejoin="round"/>
<path d="M74.5088 139.52C82.1344 137.402 85.0016 136.64 88.864 138.602C88.464 137.805 86.5728 134.819 86.5728 134.819C83.1872 133.92 72.1312 136.71 63.4656 140.195C54.8 143.68 49.52 140.893 49.52 140.893C49.52 140.893 49.4208 147.168 51.6128 147.667C51.6128 147.651 66.88 141.622 74.5088 139.52Z" fill="#E45B45" stroke="#263238" stroke-linecap="round" stroke-linejoin="round"/>
<path d="M57.0496 89.9775C57.0496 89.9775 40.7552 95.1615 40.1568 96.3551C39.5584 97.5487 33.984 119.075 33.984 119.075C33.984 119.075 35.9744 121.664 37.0688 122.461C37.806 122.954 38.673 123.217 39.56 123.217C40.447 123.217 41.314 122.954 42.0512 122.461C43.84 121.254 46.2336 116.48 46.2336 116.48C46.2336 116.48 49.4336 140.48 49.52 140.883C49.6064 141.286 51.12 142.778 53.504 143.475C55.888 144.173 66.5536 140.275 72.4288 138.592C78.304 136.909 83.1872 136.301 85.376 135.904C87.5648 135.507 88.256 134.608 87.8688 132.816C87.4816 131.024 87.4688 127.238 87.4688 127.238C87.4688 127.238 91.6512 130.525 92.3488 128.733C93.0464 126.941 89.4688 119.968 87.8688 113.194C86.2688 106.419 85.6768 97.6575 82.688 96.1631C79.6992 94.6687 68.048 91.3823 68.048 91.3823C68.048 91.3823 59.9488 89.4111 57.3728 90.1471" fill="#E45B45"/>
<path d="M57.0496 89.9775C57.0496 89.9775 40.7552 95.1615 40.1568 96.3551C39.5584 97.5487 33.984 119.075 33.984 119.075C33.984 119.075 35.9744 121.664 37.0688 122.461C37.806 122.954 38.673 123.217 39.56 123.217C40.447 123.217 41.314 122.954 42.0512 122.461C43.84 121.254 46.2336 116.48 46.2336 116.48C46.2336 116.48 49.4336 140.48 49.52 140.883C49.6064 141.286 51.12 142.778 53.504 143.475C55.888 144.173 66.5536 140.275 72.4288 138.592C78.304 136.909 83.1872 136.301 85.376 135.904C87.5648 135.507 88.256 134.608 87.8688 132.816C87.4816 131.024 87.4688 127.238 87.4688 127.238C87.4688 127.238 91.6512 130.525 92.3488 128.733C93.0464 126.941 89.4688 119.968 87.8688 113.194C86.2688 106.419 85.6768 97.6575 82.688 96.1631C79.6992 94.6687 68.048 91.3823 68.048 91.3823C68.048 91.3823 59.9488 89.4111 57.3728 90.1471" stroke="#263238" stroke-linecap="round" stroke-linejoin="round"/>
<path d="M77.1936 106.109L78.6048 120.458" stroke="#263238" stroke-linecap="round" stroke-linejoin="round"/>
<path d="M76.912 103.229L77.056 104.714" stroke="#263238" stroke-linecap="round" stroke-linejoin="round"/>
<path d="M65.2448 119.747C65.6384 120 66.0416 120.24 66.4544 120.457" stroke="#263238" stroke-linecap="round" stroke-linejoin="round"/>
<path d="M59.0816 114.186C60.6921 116.114 62.5368 117.834 64.5728 119.306" stroke="#263238" stroke-linecap="round" stroke-linejoin="round"/>
<path d="M60.976 117.968C62.6508 119.389 64.45 120.656 66.352 121.754" stroke="#263238" stroke-linecap="round" stroke-linejoin="round"/>
<path d="M75.9712 136.083C77.1104 136.154 78.1344 136.195 78.9024 136.195" stroke="#263238" stroke-linecap="round" stroke-linejoin="round"/>
<path d="M65.6576 135.2C65.6576 135.2 70.3744 135.68 74.4608 136" stroke="#263238" stroke-linecap="round" stroke-linejoin="round"/>
<path d="M58.5856 135.897C58.5856 135.897 65.1584 137.193 70.336 137.193" stroke="#263238" stroke-linecap="round" stroke-linejoin="round"/>
<path d="M57.7888 87.7887C57.7888 87.7887 55.9488 91.6095 56.0928 93.2671C56.2368 94.9247 58.6848 97.6511 62.368 97.9487C66.0512 98.2463 69.0432 95.8559 69.44 94.7487C69.8368 93.6415 70.4384 90.1663 70.4384 90.1663C70.4384 90.1663 65.856 91.3631 62.1696 89.2703C58.4832 87.1775 57.888 86.8799 57.888 86.8799L57.7888 87.7887Z" fill="#E45B45" stroke="#263238" stroke-linecap="round" stroke-linejoin="round"/>
<path d="M58.5536 96.6273L59.7856 92.7393" stroke="#263238" stroke-linecap="round" stroke-linejoin="round"/>
<path d="M59.9744 92.1696L60.2592 91.1296" stroke="#263238" stroke-linecap="round" stroke-linejoin="round"/>
<path d="M61.9648 94.5408L60.9216 97.6704" stroke="#263238" stroke-linecap="round" stroke-linejoin="round"/>
<path d="M56.752 94.8255L57.6992 91.8879" stroke="#263238" stroke-linecap="round" stroke-linejoin="round"/>
<path d="M70.7968 68.8C70.7968 68.8 68.096 72.6401 64.8832 74.2017C62.7661 75.1915 60.5723 76.0081 58.3232 76.6432C58.3232 76.6432 58.1952 78.4448 57.552 78.7008C56.9088 78.9568 56.1376 78.0608 56.1376 78.0608L54.2176 78.576C54.0331 78.8581 53.9244 79.183 53.902 79.5193C53.8796 79.8556 53.9442 80.192 54.0896 80.496C54.6048 81.5264 56.1472 81.776 56.1472 81.776C56.1472 81.776 57.1776 86.7904 58.3328 88.336C59.488 89.8816 63.5968 92.96 66.56 92.576C69.5232 92.192 74.3968 87.04 74.5248 85.12C74.6528 83.2 74.912 79.2064 75.04 77.1488C75.168 75.0912 75.5552 73.92 74.6528 72.64C73.7504 71.36 70.7968 68.8 70.7968 68.8Z" fill="white" stroke="#263238" stroke-linecap="round" stroke-linejoin="round"/>
<path d="M62.0544 80.7456C62.0544 80.7456 63.3344 81.9008 65.3952 81.1296" stroke="#263238" stroke-linecap="round" stroke-linejoin="round"/>
<path d="M69.6384 81.2607C69.6384 81.2607 71.5584 82.1599 72.7264 81.2607" stroke="#263238" stroke-linecap="round" stroke-linejoin="round"/>
<path d="M62.1824 78.0447C62.1824 78.0447 64.624 77.2735 66.6816 78.0447" stroke="#263238" stroke-linecap="round" stroke-linejoin="round"/>
<path d="M69.6384 78.3007C69.6384 78.3007 72.5984 77.7887 73.4976 78.6879" stroke="#263238" stroke-linecap="round" stroke-linejoin="round"/>
<path d="M68.8672 84.9888C68.8672 84.9888 67.712 85.76 66.5536 85.3728" stroke="#263238" stroke-linecap="round" stroke-linejoin="round"/>
<path d="M64.24 86.6592C65.0373 87.2213 65.9735 87.5541 66.9468 87.6212C67.92 87.6884 68.8931 87.4873 69.76 87.04" stroke="#263238" stroke-linecap="round" stroke-linejoin="round"/>
<path d="M91.552 127.232C90.0576 124.841 85.776 124.352 84.192 124.941C82.608 125.529 80.8064 124.841 80.8064 124.841L75.824 130.32C75.824 130.32 81.2032 132.71 83.792 134.304C86.3808 135.897 88.3744 135.798 90.7648 133.309C93.1552 130.819 92.3648 128.326 92.3648 128.326" fill="#E45B45"/>
<path d="M91.552 127.232C90.0576 124.841 85.776 124.352 84.192 124.941C82.608 125.529 80.8064 124.841 80.8064 124.841L75.824 130.32C75.824 130.32 81.2032 132.71 83.792 134.304C86.3808 135.897 88.3744 135.798 90.7648 133.309C93.1552 130.819 92.3648 128.326 92.3648 128.326" stroke="#263238" stroke-linecap="round" stroke-linejoin="round"/>
<path d="M76.3136 125.44C76.3136 125.44 74.9184 127.93 75.4176 129.622C75.9168 131.315 79.8976 129.622 81.392 126.934C82.8864 124.246 78.0064 122.749 76.3136 125.44Z" fill="white" stroke="#263238" stroke-linecap="round" stroke-linejoin="round"/>
<path d="M77.5264 110.739L71.0848 122.79C71.0456 122.865 71.0247 122.947 71.0237 123.031C71.0228 123.115 71.0419 123.198 71.0795 123.273C71.117 123.348 71.1719 123.413 71.2396 123.463C71.3073 123.513 71.3859 123.545 71.4688 123.558L77.568 124.48C77.6686 124.496 77.7715 124.482 77.8642 124.44C77.9569 124.398 78.0353 124.329 78.0896 124.243L85.4496 112.541C85.4947 112.468 85.5214 112.385 85.5273 112.299C85.5332 112.214 85.5182 112.128 85.4836 112.05C85.4489 111.971 85.3956 111.902 85.3284 111.849C85.2611 111.796 85.1819 111.76 85.0976 111.744L78.0576 110.464C77.9517 110.452 77.8446 110.471 77.7499 110.52C77.6552 110.569 77.5774 110.646 77.5264 110.739Z" fill="#263238" stroke="#263238" stroke-linecap="round" stroke-linejoin="round"/>
<path d="M78.4 127.53C78.4 127.53 74.7136 125.738 74.1152 124.941C73.5168 124.144 73.9168 123.747 73.9168 123.747C73.9168 123.747 72.6368 123.149 72.1248 122.352C71.6128 121.555 72.72 121.357 72.72 121.357L79.296 122.637C79.296 122.637 75.808 121.242 75.1104 121.242C74.9627 121.251 74.815 121.223 74.6806 121.161C74.5461 121.099 74.4292 121.005 74.3404 120.887C74.2515 120.768 74.1935 120.63 74.1715 120.483C74.1495 120.337 74.1643 120.187 74.2144 120.048C74.416 119.45 74.6144 119.251 76.0096 119.648C77.4048 120.045 80.7904 120.845 80.7904 120.845C80.7904 120.845 80.688 119.949 80.3904 119.75C80.0928 119.552 77.4016 118.653 76.8064 118.054C76.2112 117.456 76.704 116.96 77.4016 116.96C78.0992 116.96 82.5824 118.56 82.9792 118.851C83.376 119.142 82.9792 121.642 82.9792 121.642C82.9792 121.642 82.9792 124.032 82.5824 125.229C82.1856 126.426 80 128.726 80 128.726" fill="white"/>
<path d="M78.4 127.53C78.4 127.53 74.7136 125.738 74.1152 124.941C73.5168 124.144 73.9168 123.747 73.9168 123.747C73.9168 123.747 72.6368 123.149 72.1248 122.352C71.6128 121.555 72.72 121.357 72.72 121.357L79.296 122.637C79.296 122.637 75.808 121.242 75.1104 121.242C74.9627 121.251 74.815 121.223 74.6806 121.161C74.5461 121.099 74.4292 121.005 74.3404 120.887C74.2515 120.768 74.1935 120.63 74.1715 120.483C74.1495 120.337 74.1643 120.187 74.2144 120.048C74.416 119.45 74.6144 119.251 76.0096 119.648C77.4048 120.045 80.7904 120.845 80.7904 120.845C80.7904 120.845 80.688 119.949 80.3904 119.75C80.0928 119.552 77.4016 118.653 76.8064 118.054C76.2112 117.456 76.704 116.96 77.4016 116.96C78.0992 116.96 82.5824 118.56 82.9792 118.851C83.376 119.142 82.9792 121.642 82.9792 121.642C82.9792 121.642 82.9792 124.032 82.5824 125.229C82.1856 126.426 80 128.726 80 128.726" stroke="#263238" stroke-linecap="round" stroke-linejoin="round"/>
<path d="M73.9232 123.747L78.8032 125.737" stroke="#263238" stroke-linecap="round" stroke-linejoin="round"/>
<path d="M79.3024 122.65L81.792 124.243" stroke="#263238" stroke-linecap="round" stroke-linejoin="round"/>
<path d="M80.7968 120.858C80.7968 120.858 81.9904 121.357 82.3968 121.853" stroke="#263238" stroke-linecap="round" stroke-linejoin="round"/>
<path d="M47.04 135.565V150.32C44.5082 149.651 42.0211 148.822 39.5936 147.84V135.565H47.04Z" fill="#263238" stroke="#263238" stroke-linecap="round" stroke-linejoin="round"/>
<path d="M47.1584 127.434H39.3504C38.0638 127.434 37.0208 128.477 37.0208 129.763V135.133C37.0208 136.419 38.0638 137.462 39.3504 137.462H47.1584C48.445 137.462 49.488 136.419 49.488 135.133V129.763C49.488 128.477 48.445 127.434 47.1584 127.434Z" fill="#263238" stroke="#263238" stroke-linecap="round" stroke-linejoin="round"/>
<path d="M73.3056 127.478C69.392 125.485 57.8112 124.042 44.1312 124.042C30.4512 124.042 18.88 125.485 14.96 127.478H13.5424V128.96C13.5424 131.677 27.2384 133.878 44.1312 133.878C61.024 133.878 74.72 131.677 74.72 128.96V127.478H73.3056Z" fill="#263238" stroke="#263238" stroke-linecap="round" stroke-linejoin="round"/>
<path d="M44.1312 132.397C61.0249 132.397 74.72 130.195 74.72 127.478C74.72 124.762 61.0249 122.56 44.1312 122.56C27.2375 122.56 13.5424 124.762 13.5424 127.478C13.5424 130.195 27.2375 132.397 44.1312 132.397Z" fill="white" stroke="#263238" stroke-linecap="round" stroke-linejoin="round"/>
<path d="M52.9952 94.1953C52.9952 94.1953 51.456 87.6289 51.456 86.9793C51.456 86.3297 54.9408 84.1409 55.7536 83.6545C56.5664 83.1681 57.2928 83.8977 57.2928 83.8977C57.6231 84.1874 58.0099 84.4054 58.4288 84.5377C58.9152 84.6177 59.3216 85.1777 59.3216 85.8337C59.3216 86.4897 59.4816 88.8353 59.4816 89.4017C59.4816 89.9681 58.5888 90.6177 58.1024 90.6177C57.616 90.6177 57.6992 89.6577 57.6992 89.6577C57.5135 89.8125 57.2944 89.922 57.0592 89.9777C56.8939 89.982 56.7301 90.01 56.5728 90.0609C56.5728 90.0609 56.8928 93.7089 56.2528 94.9249C55.8844 95.5957 55.5852 96.3023 55.36 97.0337L43.52 121.92C43.52 121.92 41.5744 125.571 38.9792 125.651C36.384 125.731 33.8592 123.949 33.5392 121.517C33.2192 119.085 34.352 116.327 36.0544 114.381C37.7568 112.435 51.2928 97.0337 52.9952 94.1953Z" fill="white" stroke="#263238" stroke-linecap="round" stroke-linejoin="round"/>
<path d="M56.5632 90.0608V88.3584L58.3232 88.3328L57.3632 90.1408C57.3632 90.1408 57.1296 89.8176 56.5632 90.0608Z" fill="white" stroke="#263238" stroke-linecap="round" stroke-linejoin="round"/>
<path d="M58.4288 84.5471C58.4288 84.5471 54.8608 86.1663 54.2912 86.6527L53.7248 87.1423" stroke="#263238" stroke-linecap="round" stroke-linejoin="round"/>
<path d="M57.28 83.8975C57.28 83.8975 53.632 85.6799 52.496 86.6527" stroke="#263238" stroke-linecap="round" stroke-linejoin="round"/>
<path d="M52.0224 86.08L52.1312 85.9616C52.6336 85.4176 54.7264 83.1616 54.9408 83.1616C55.1552 83.1616 55.7536 83.648 55.7536 83.648L52.0224 86.08Z" stroke="#263238" stroke-linecap="round" stroke-linejoin="round"/>
<path d="M49.9616 98.1599C45.3696 103.773 37.3344 112.915 36.048 114.387C34.3456 116.333 33.2096 119.088 33.5328 121.523C33.856 123.958 36.3712 125.738 38.9728 125.658C41.5744 125.578 43.52 121.92 43.52 121.92L53.6576 100.608C52.3289 99.9483 51.0874 99.126 49.9616 98.1599Z" fill="#E45B45" stroke="#263238" stroke-linecap="round" stroke-linejoin="round"/>
<path d="M24.2336 107.107C24.2087 107.57 24.2829 108.032 24.4512 108.464C25.1168 110.128 25.312 110.816 25.04 112.166" stroke="#263238" stroke-miterlimit="10" stroke-linecap="round"/>
<path d="M24.8768 104.982C24.6711 105.34 24.5109 105.721 24.4 106.118" stroke="#263238" stroke-miterlimit="10" stroke-linecap="round"/>
<path d="M27.2544 104.982C27.2544 104.982 26.1504 106.765 26.832 108.464C27.5136 110.163 27.6896 110.816 27.4208 112.166" stroke="#263238" stroke-miterlimit="10" stroke-linecap="round"/>
<path d="M29.9168 111.184C29.9068 111.514 29.8672 111.843 29.7984 112.166" stroke="#263238" stroke-miterlimit="10" stroke-linecap="round"/>
<path d="M29.6352 104.982C29.6352 104.982 28.5312 106.765 29.2096 108.464C29.4196 108.957 29.6033 109.462 29.76 109.974" stroke="#263238" stroke-miterlimit="10" stroke-linecap="round"/>
<path d="M31.68 115.767C31.68 115.767 32.7808 114.663 33.6 115.565C34.4192 116.467 34.1024 120.979 33.3984 122.381C32.6944 123.783 31.088 122.455 31.088 122.455V121.479C31.1957 121.572 31.321 121.642 31.4564 121.686C31.5918 121.73 31.7347 121.746 31.8765 121.733C32.0182 121.721 32.1561 121.68 32.2817 121.613C32.4074 121.546 32.5184 121.455 32.608 121.344C33.4112 120.541 33.1936 117.37 32.8928 116.864C32.592 116.359 31.3888 117.066 31.3888 117.066L31.68 115.767Z" fill="white" stroke="#263238" stroke-linecap="round" stroke-linejoin="round"/>
<path d="M29.76 126.72H24.7232C24.3745 126.72 24.0387 126.588 23.7834 126.351C23.5281 126.113 23.3723 125.788 23.3472 125.44L22.4864 113.357H32L31.1456 125.44C31.1211 125.79 30.9641 126.117 30.7066 126.355C30.4491 126.593 30.1105 126.723 29.76 126.72Z" fill="white" stroke="#263238" stroke-linecap="round" stroke-linejoin="round"/>
<path d="M138.592 11.9617H122.624L122.608 12.0193C122.134 13.7217 121.046 14.8257 119.84 14.8257H119.149C117.942 14.8257 116.854 13.7217 116.381 12.0193L116.365 11.9617H100.397C99.3392 11.9617 98.292 12.17 97.315 12.5748C96.338 12.9796 95.4503 13.573 94.7026 14.3209C93.9549 15.0689 93.3619 15.9568 92.9575 16.934C92.5531 17.9112 92.3452 18.9585 92.3456 20.0161V111.216C92.3447 112.441 92.8303 113.616 93.6956 114.483C94.5609 115.35 95.735 115.838 96.96 115.84H142.026C143.251 115.839 144.426 115.352 145.292 114.486C146.158 113.619 146.646 112.445 146.646 111.219V20.0193C146.647 18.9613 146.439 17.9136 146.034 16.936C145.63 15.9584 145.036 15.0701 144.288 14.3219C143.54 13.5736 142.652 12.9801 141.675 12.5751C140.698 12.1701 139.65 11.9617 138.592 11.9617Z" fill="white" stroke="#263238" stroke-linecap="round" stroke-linejoin="round"/>
<path d="M96.1888 34.6017V34.6881H95.8688V34.5857C95.8688 34.3009 95.76 34.1345 95.5072 34.1345C95.2544 34.1345 95.1456 34.3009 95.1456 34.5793C95.1456 35.2865 96.2048 35.3537 96.2048 36.2433C96.2048 36.7201 95.9744 37.0305 95.4944 37.0305C95.0144 37.0305 94.7872 36.7105 94.7872 36.2433V36.0609H95.1072V36.2593C95.1072 36.5441 95.2224 36.7105 95.4752 36.7105C95.728 36.7105 95.8432 36.5441 95.8432 36.2593C95.8432 35.5585 94.7904 35.4913 94.7904 34.6017C94.7904 34.1153 95.0144 33.8145 95.488 33.8145C95.9616 33.8145 96.1888 34.1249 96.1888 34.6017Z" fill="#263238"/>
<path d="M96.8512 35.5808V36.9984H96.4992V33.8464H96.8512V35.264H97.6256V33.8464H97.9776V36.9984H97.6256V35.5808H96.8512Z" fill="#263238"/>
<path d="M98.6944 36.3648L98.5696 37.0048H98.2496L98.8544 33.8528H99.3632L99.9648 37.0048H99.616L99.4944 36.3648H98.6944ZM98.7392 36.0448H99.44L99.0848 34.24L98.7392 36.0448Z" fill="#263238"/>
<path d="M100.941 33.8463C101.437 33.8463 101.642 34.0991 101.642 34.5663V34.8223C101.642 35.1711 101.523 35.3855 101.251 35.4623C101.539 35.5487 101.648 35.7823 101.648 36.1215V36.6111C101.637 36.7403 101.659 36.8704 101.712 36.9887H101.354C101.305 36.8678 101.286 36.7375 101.296 36.6079V36.1119C101.296 35.7567 101.13 35.6415 100.835 35.6415H100.589V36.9887H100.237V33.8367L100.941 33.8463ZM100.851 35.3311C101.13 35.3311 101.296 35.2415 101.296 34.8991V34.5983C101.296 34.3135 101.194 34.1663 100.931 34.1663H100.589V35.3311H100.851Z" fill="#263238"/>
<path d="M103.133 35.2416V35.5616H102.365V36.6816H103.309V37.0016H102.029V33.8496H103.309V34.1696H102.365V35.2448L103.133 35.2416Z" fill="#263238"/>
<path d="M104.688 36.3648L104.566 37.0048H104.246L104.848 33.8528H105.357L105.962 37.0048H105.6L105.478 36.3648H104.688ZM104.733 36.0448H105.437L105.082 34.24L104.733 36.0448Z" fill="#263238"/>
<path d="M106.931 36.9984V33.8464H107.283V36.6784H108.182V36.9984H106.931Z" fill="#263238"/>
<path d="M108.8 33.8464V36.9984H108.448V33.8464H108.8Z" fill="#263238"/>
<path d="M109.472 36.9984H109.152V33.8464H109.6L110.33 36.1248V33.8464H110.65V36.9984H110.285L109.478 34.4384L109.472 36.9984Z" fill="#263238"/>
<path d="M111.539 35.6288L111.354 35.9488V37.008H111.005V33.856H111.36V35.3792L112.198 33.856H112.554L111.757 35.2928L112.582 37.008H112.221L111.539 35.6288Z" fill="#263238"/>
<path d="M97.664 72.2976V73.7184H97.312V70.5632H97.664V72H98.4384V70.5792H98.7904V73.7344H98.4384V72.3136L97.664 72.2976Z" fill="#263238"/>
<path d="M99.6032 73.7184V70.8832H99.024V70.5632H100.531V70.8832H99.952V73.7184H99.6032Z" fill="#263238"/>
<path d="M101.226 73.7184V70.8832H100.646V70.5632H102.154V70.8832H101.574V73.7184H101.226Z" fill="#263238"/>
<path d="M103.082 70.5632C103.578 70.5632 103.789 70.8576 103.789 71.3344V71.712C103.789 72.2144 103.555 72.4736 103.056 72.4736H102.736V73.7184H102.4V70.5632H103.082ZM103.056 72.1632C103.315 72.1632 103.443 72.0416 103.443 71.7376V71.3216C103.443 71.0304 103.338 70.8864 103.082 70.8864H102.746V72.1664L103.056 72.1632Z" fill="#263238"/>
<path d="M105.427 71.3216V71.408H105.107V71.3024C105.107 71.0208 105.002 70.8544 104.749 70.8544C104.496 70.8544 104.387 71.0208 104.387 71.2992C104.387 72.0064 105.446 72.0736 105.446 72.96C105.446 73.44 105.216 73.7504 104.733 73.7504C104.25 73.7504 104.029 73.4304 104.029 72.96V72.7808H104.349V72.9792C104.349 73.264 104.467 73.4304 104.72 73.4304C104.973 73.4304 105.088 73.264 105.088 72.9792C105.088 72.2752 104.035 72.208 104.035 71.3216C104.035 70.8352 104.259 70.5344 104.733 70.5344C105.206 70.5344 105.427 70.8448 105.427 71.3216Z" fill="#263238"/>
<path d="M106.077 71.5647V71.9999H105.741V71.5615L106.077 71.5647ZM106.077 73.2799V73.7183H105.741V73.2799H106.077Z" fill="#263238"/>
<path d="M107.878 70.5632L106.637 73.7184H106.317L107.558 70.5632H107.878Z" fill="#263238"/>
<path d="M108.762 70.5632L107.52 73.7184H107.2L108.442 70.5632H108.762Z" fill="#263238"/>
<path d="M109.574 72.5856L108.906 70.5632H109.27L109.763 72.1152L110.259 70.5632H110.579L109.907 72.5856V73.7184H109.562L109.574 72.5856Z" fill="#263238"/>
<path d="M110.749 71.3247C110.749 70.8447 110.989 70.5343 111.469 70.5343C111.571 70.5279 111.674 70.5446 111.77 70.583C111.865 70.6215 111.951 70.6807 112.02 70.7564C112.09 70.8322 112.142 70.9225 112.172 71.0208C112.202 71.1191 112.21 71.2229 112.195 71.3247V72.9599C112.21 73.0618 112.202 73.1657 112.172 73.2641C112.142 73.3626 112.09 73.4531 112.02 73.529C111.951 73.605 111.865 73.6645 111.77 73.7034C111.674 73.7422 111.572 73.7593 111.469 73.7535C110.989 73.7535 110.749 73.4335 110.749 72.9599V71.3247ZM111.094 72.9759C111.094 73.2639 111.216 73.4303 111.469 73.4303C111.722 73.4303 111.843 73.2639 111.843 72.9759V71.3087C111.843 71.0239 111.725 70.8543 111.469 70.8543C111.213 70.8543 111.094 71.0239 111.094 71.3087V72.9759Z" fill="#263238"/>
<path d="M112.861 72.976C112.861 73.2576 112.973 73.4304 113.232 73.4304C113.491 73.4304 113.597 73.2576 113.597 72.976V70.5632H113.917V72.96C113.917 73.4368 113.696 73.7568 113.21 73.7568C112.723 73.7568 112.509 73.4368 112.509 72.96V70.5664H112.854L112.861 72.976Z" fill="#263238"/>
<path d="M114.973 70.5631C115.469 70.5631 115.677 70.8159 115.677 71.2863V71.5423C115.696 71.6781 115.667 71.8164 115.595 71.9332C115.523 72.0501 115.413 72.1381 115.283 72.1823C115.574 72.2655 115.68 72.5023 115.68 72.8383V73.3311C115.671 73.4603 115.693 73.5898 115.744 73.7087H115.389C115.339 73.5871 115.319 73.4554 115.331 73.3247V72.8287C115.331 72.4735 115.162 72.3615 114.87 72.3615H114.624V73.7087H114.272V70.5535L114.973 70.5631ZM114.883 72.0511C115.162 72.0511 115.331 71.9615 115.331 71.6191V71.3183C115.331 71.0335 115.226 70.8831 114.966 70.8831H114.624V72.0511H114.883Z" fill="#263238"/>
<path d="M116.045 73.7184V70.5632H116.397V73.3984H117.299V73.7184H116.045Z" fill="#263238"/>
<path d="M117.917 70.5632V73.7184H117.565V70.5632H117.917Z" fill="#263238"/>
<path d="M118.586 73.7184H118.266V70.5632H118.72L119.45 72.8448V70.5632H119.77V73.7184H119.392L118.586 71.1584V73.7184Z" fill="#263238"/>
<path d="M120.64 72.3488L120.458 72.6688V73.728H120.106V70.5728H120.458V72.096L121.293 70.5728H121.651L120.854 72.0128L121.677 73.728H121.318L120.64 72.3488Z" fill="#263238"/>
<path d="M123.402 70.5632L122.16 73.7184H121.84L123.082 70.5632H123.402Z" fill="#263238"/>
<path d="M94.416 81.9167H144.038" stroke="#263238" stroke-miterlimit="10"/>
<path d="M98.8608 46.432C100.769 46.432 102.317 44.8847 102.317 42.976C102.317 41.0673 100.769 39.52 98.8608 39.52C96.9521 39.52 95.4048 41.0673 95.4048 42.976C95.4048 44.8847 96.9521 46.432 98.8608 46.432Z" fill="#263238" stroke="#263238" stroke-linecap="round" stroke-linejoin="round"/>
<path d="M109.229 46.432C111.137 46.432 112.685 44.8847 112.685 42.976C112.685 41.0673 111.137 39.52 109.229 39.52C107.32 39.52 105.773 41.0673 105.773 42.976C105.773 44.8847 107.32 46.432 109.229 46.432Z" fill="#E45B45" stroke="#263238" stroke-linecap="round" stroke-linejoin="round"/>
<path d="M119.597 46.432C121.505 46.432 123.053 44.8847 123.053 42.976C123.053 41.0673 121.505 39.52 119.597 39.52C117.688 39.52 116.141 41.0673 116.141 42.976C116.141 44.8847 117.688 46.432 119.597 46.432Z" fill="#263238" stroke="#263238" stroke-linecap="round" stroke-linejoin="round"/>
<path d="M129.968 46.432C131.877 46.432 133.424 44.8847 133.424 42.976C133.424 41.0673 131.877 39.52 129.968 39.52C128.059 39.52 126.512 41.0673 126.512 42.976C126.512 44.8847 128.059 46.432 129.968 46.432Z" fill="#E45B45" stroke="#263238" stroke-linecap="round" stroke-linejoin="round"/>
<path d="M140.336 46.432C142.245 46.432 143.792 44.8847 143.792 42.976C143.792 41.0673 142.245 39.52 140.336 39.52C138.427 39.52 136.88 41.0673 136.88 42.976C136.88 44.8847 138.427 46.432 140.336 46.432Z" fill="#263238" stroke="#263238" stroke-linecap="round" stroke-linejoin="round"/>
<path d="M95.8976 48.6528H101.821" stroke="#263238" stroke-miterlimit="10"/>
<path d="M106.266 48.6528H112.192" stroke="#263238" stroke-miterlimit="10"/>
<path d="M116.637 48.6528H122.56" stroke="#263238" stroke-miterlimit="10"/>
<path d="M127.005 48.6528H132.931" stroke="#263238" stroke-miterlimit="10"/>
<path d="M137.373 48.6528H143.299" stroke="#263238" stroke-miterlimit="10"/>
<path d="M99.6629 59.4145C101.52 58.9738 102.668 57.1111 102.228 55.2539C101.787 53.3968 99.9241 52.2486 98.067 52.6893C96.2098 53.13 95.0616 54.9928 95.5023 56.8499C95.943 58.707 97.8058 59.8553 99.6629 59.4145Z" fill="#E45B45" stroke="#263238" stroke-linecap="round" stroke-linejoin="round"/>
<path d="M112.421 57.3679C113.146 55.6025 112.303 53.5832 110.538 52.8577C108.772 52.1322 106.753 52.9752 106.027 54.7407C105.302 56.5061 106.145 58.5254 107.91 59.2509C109.676 59.9764 111.695 59.1334 112.421 57.3679Z" fill="#263238" stroke="#263238" stroke-linecap="round" stroke-linejoin="round"/>
<path d="M122.787 57.3684C123.513 55.603 122.67 53.5837 120.904 52.8582C119.139 52.1327 117.119 52.9757 116.394 54.7411C115.668 56.5066 116.511 58.5259 118.277 59.2514C120.042 59.9769 122.062 59.1338 122.787 57.3684Z" fill="#E45B45" stroke="#263238" stroke-linecap="round" stroke-linejoin="round"/>
<path d="M130.768 59.4126C132.625 58.9719 133.773 57.1091 133.333 55.252C132.892 53.3949 131.029 52.2467 129.172 52.6874C127.315 53.1281 126.167 54.9908 126.607 56.848C127.048 58.7051 128.911 59.8533 130.768 59.4126Z" fill="#263238" stroke="#263238" stroke-linecap="round" stroke-linejoin="round"/>
<path d="M142.78 58.5033C144.129 57.1537 144.129 54.9655 142.78 53.6158C141.43 52.2662 139.242 52.2662 137.892 53.6158C136.542 54.9655 136.542 57.1537 137.892 58.5033C139.242 59.853 141.43 59.853 142.78 58.5033Z" fill="#E45B45" stroke="#263238" stroke-linecap="round" stroke-linejoin="round"/>
<path d="M95.8976 61.7375H101.821" stroke="#263238" stroke-miterlimit="10"/>
<path d="M106.266 61.7375H112.192" stroke="#263238" stroke-miterlimit="10"/>
<path d="M116.637 61.7375H122.56" stroke="#263238" stroke-miterlimit="10"/>
<path d="M127.005 61.7375H132.931" stroke="#263238" stroke-miterlimit="10"/>
<path d="M137.373 61.7375H143.299" stroke="#263238" stroke-miterlimit="10"/>
<path d="M144.288 68.832H94.1696V75.9904H144.288V68.832Z" stroke="#263238" stroke-miterlimit="10"/>
<path d="M146.646 26.6401V20.0161C146.646 17.8799 145.798 15.8312 144.287 14.3207C142.777 12.8103 140.728 11.9617 138.592 11.9617H122.624L122.608 12.0193C122.134 13.7217 121.046 14.8257 119.84 14.8257H119.149C117.942 14.8257 116.854 13.7217 116.381 12.0193L116.365 11.9617H100.397C99.3392 11.9617 98.292 12.17 97.315 12.5748C96.338 12.9796 95.4503 13.573 94.7026 14.3209C93.9549 15.0689 93.3619 15.9568 92.9575 16.934C92.5531 17.9112 92.3452 18.9585 92.3456 20.0161V26.6401H146.646Z" fill="#C2C2C2" stroke="#263238" stroke-linecap="round" stroke-linejoin="round"/>
<path d="M115.59 23.2544H97.4464V25.4304H115.59V23.2544Z" fill="white" stroke="#263238" stroke-linecap="round" stroke-linejoin="round"/>
<path d="M146.646 22.3617V20.0161C146.646 17.8799 145.798 15.8312 144.287 14.3207C142.777 12.8103 140.728 11.9617 138.592 11.9617H122.624L122.608 12.0193C122.134 13.7217 121.046 14.8257 119.84 14.8257H119.149C117.942 14.8257 116.854 13.7217 116.381 12.0193L116.365 11.9617H100.397C99.3392 11.9617 98.292 12.17 97.315 12.5748C96.338 12.9796 95.4503 13.573 94.7026 14.3209C93.9549 15.0689 93.3619 15.9568 92.9575 16.934C92.5531 17.9112 92.3452 18.9585 92.3456 20.0161V22.3617H146.646Z" fill="white" stroke="#263238" stroke-linecap="round" stroke-linejoin="round"/>
<path d="M150.099 41.4432V31.2384H149.178V18.1728C149.178 17.1149 148.969 16.0675 148.564 15.0902C148.159 14.113 147.565 13.2252 146.817 12.4775C146.069 11.7298 145.181 11.1368 144.203 10.7326C143.225 10.3284 142.178 10.1207 141.12 10.1216H97.8656C96.8082 10.1212 95.761 10.3291 94.784 10.7336C93.807 11.1381 92.9193 11.7311 92.1716 12.4788C91.4239 13.2265 90.8309 14.1142 90.4264 15.0912C90.0219 16.0682 89.814 17.1154 89.8144 18.1728V112.397C89.814 113.454 90.0219 114.502 90.4263 115.479C90.8307 116.456 91.4237 117.344 92.1714 118.092C92.9191 118.84 93.8068 119.433 94.7838 119.838C95.7608 120.243 96.808 120.451 97.8656 120.451H141.12C143.256 120.451 145.305 119.603 146.815 118.092C148.326 116.582 149.174 114.533 149.174 112.397V50.1408H150.096V44.112H149.174V41.4432H150.099ZM146.646 106.646C146.646 107.704 146.438 108.751 146.033 109.728C145.628 110.705 145.035 111.593 144.287 112.341C143.539 113.088 142.651 113.681 141.674 114.086C140.697 114.49 139.65 114.698 138.592 114.698H100.397C99.3394 114.698 98.2922 114.49 97.3152 114.086C96.3382 113.681 95.4505 113.088 94.7028 112.34C93.9551 111.593 93.3621 110.705 92.9576 109.728C92.5531 108.751 92.3452 107.704 92.3456 106.646V20.016C92.3452 18.9584 92.5531 17.9111 92.9575 16.9339C93.3619 15.9568 93.9549 15.0688 94.7026 14.3209C95.4503 13.5729 96.338 12.9796 97.315 12.5748C98.292 12.1699 99.3392 11.9616 100.397 11.9616H116.365L116.381 12.0192C116.854 13.7216 117.942 14.8256 119.149 14.8256H119.84C121.046 14.8256 122.134 13.7216 122.608 12.0192L122.624 11.9616H138.592C140.728 11.9616 142.777 12.8102 144.287 14.3207C145.798 15.8312 146.646 17.8798 146.646 20.016V106.646Z" fill="#707070" stroke="#263238" stroke-linecap="round" stroke-linejoin="round"/>
<path d="M139.712 11.2288H99.2768C97.0139 11.2296 94.8439 12.1291 93.2441 13.7296C91.6443 15.33 90.7456 17.5003 90.7456 19.7632V110.81C90.7456 113.072 91.6444 115.242 93.2443 116.842C94.8442 118.442 97.0142 119.341 99.2768 119.341H139.712C140.832 119.341 141.942 119.121 142.977 118.692C144.012 118.264 144.953 117.635 145.745 116.843C146.538 116.051 147.166 115.11 147.595 114.075C148.023 113.04 148.244 111.93 148.243 110.81V19.7632C148.244 18.6426 148.023 17.5329 147.595 16.4974C147.166 15.462 146.538 14.5212 145.746 13.7286C144.953 12.9361 144.013 12.3074 142.977 11.8785C141.942 11.4495 140.833 11.2288 139.712 11.2288ZM146.646 106.646C146.646 107.704 146.438 108.751 146.033 109.728C145.628 110.705 145.035 111.593 144.287 112.341C143.539 113.088 142.651 113.681 141.674 114.086C140.697 114.49 139.65 114.698 138.592 114.698H100.397C99.3394 114.698 98.2922 114.49 97.3152 114.086C96.3382 113.681 95.4505 113.088 94.7028 112.34C93.9551 111.593 93.362 110.705 92.9576 109.728C92.5531 108.751 92.3452 107.704 92.3456 106.646V20.016C92.3452 18.9584 92.5531 17.9111 92.9575 16.9339C93.3619 15.9567 93.9549 15.0688 94.7026 14.3208C95.4503 13.5729 96.338 12.9795 97.315 12.5747C98.292 12.1699 99.3392 11.9616 100.397 11.9616H116.365L116.381 12.0192C116.854 13.7216 117.942 14.8256 119.149 14.8256H119.84C121.046 14.8256 122.134 13.7216 122.608 12.0192L122.624 11.9616H138.592C140.728 11.9616 142.777 12.8101 144.287 14.3206C145.798 15.8311 146.646 17.8798 146.646 20.016V106.646Z" fill="#263238" stroke="#263238" stroke-linecap="round" stroke-linejoin="round"/>
<path d="M120.086 12.3489C120.084 12.1994 120.037 12.0541 119.952 11.9311C119.868 11.808 119.748 11.7128 119.609 11.6574C119.471 11.6019 119.319 11.5887 119.172 11.6194C119.026 11.6501 118.892 11.7234 118.787 11.8299C118.683 11.9365 118.612 12.0716 118.583 12.2184C118.555 12.3651 118.571 12.5169 118.629 12.6548C118.686 12.7926 118.784 12.9103 118.908 12.9931C119.032 13.0759 119.179 13.1201 119.328 13.1201C119.429 13.1201 119.528 13.1001 119.621 13.0611C119.714 13.0222 119.798 12.9652 119.869 12.8934C119.939 12.8216 119.995 12.7365 120.032 12.643C120.07 12.5495 120.088 12.4495 120.086 12.3489Z" fill="#707070"/>
<path d="M97.1712 15.2448C97.1712 16.0096 96.3104 16.2848 96.3072 16.8672V16.9088H97.1392V17.1648H96.0288V16.9601C96.0288 16.1409 96.8864 15.984 96.8864 15.2672C96.8864 15.008 96.8 14.8705 96.5888 14.8705C96.3776 14.8705 96.2912 15.0177 96.2912 15.2417V15.4689H96.0288V15.2608C96.0288 14.8736 96.2048 14.6208 96.5984 14.6208C96.992 14.6208 97.1712 14.8576 97.1712 15.2448Z" fill="#263238"/>
<path d="M98.56 15.2415V15.3055C98.5721 15.4157 98.5472 15.5267 98.4893 15.6211C98.4313 15.7156 98.3436 15.788 98.24 15.8271C98.3441 15.8674 98.432 15.9411 98.4899 16.0366C98.5478 16.1321 98.5724 16.2441 98.56 16.3551V16.5503C98.56 16.9375 98.3808 17.1903 97.9872 17.1903C97.5936 17.1903 97.4208 16.9375 97.4208 16.5503V16.3743H97.6832V16.5663C97.6832 16.7967 97.7792 16.9343 97.9808 16.9343C98.1824 16.9343 98.2784 16.7999 98.2784 16.5407V16.3455C98.2784 16.0959 98.1728 15.9775 97.9584 15.9711H97.808V15.7151H97.9744C98.1632 15.7151 98.2784 15.5903 98.2784 15.3663V15.2511C98.2784 14.9919 98.1888 14.8575 97.9808 14.8575C97.7728 14.8575 97.6832 14.9983 97.6832 15.2255V15.3599H97.4208V15.2447C97.4208 14.8575 97.6 14.6047 97.9872 14.6047C98.3744 14.6047 98.56 14.8543 98.56 15.2415Z" fill="#263238"/>
<path d="M99.1072 15.4336V15.7856H98.8352V15.4336H99.1072ZM99.1072 16.8128V17.1648H98.8352V16.8128H99.1072Z" fill="#263238"/>
<path d="M99.68 15.6608C99.7171 15.5942 99.7722 15.5394 99.8389 15.5026C99.9057 15.4658 99.9815 15.4486 100.058 15.4528C100.378 15.4528 100.528 15.6896 100.528 16.0544V16.5504C100.528 16.9376 100.342 17.1904 99.9552 17.1904C99.568 17.1904 99.3856 16.9376 99.3856 16.5504V16.3808H99.6512V16.5664C99.6512 16.7968 99.744 16.9344 99.9488 16.9344C100.154 16.9344 100.243 16.7968 100.243 16.5664V16.0736C100.243 15.8464 100.15 15.7088 99.9488 15.7088C99.9119 15.7071 99.875 15.7128 99.8403 15.7257C99.8056 15.7385 99.7739 15.7582 99.747 15.7836C99.7201 15.809 99.6986 15.8396 99.6838 15.8734C99.669 15.9073 99.6612 15.9438 99.6608 15.9808V16.0384H99.3952L99.4656 14.6272H100.48V14.8832H99.7312L99.68 15.6608Z" fill="#263238"/>
<path d="M101.939 15.2384V15.2832H101.674V15.2192C101.674 14.992 101.578 14.8576 101.373 14.8576C101.168 14.8576 101.053 14.9952 101.053 15.2672V15.8368C101.082 15.7526 101.137 15.6803 101.211 15.6311C101.285 15.5819 101.374 15.5586 101.462 15.5648C101.782 15.5648 101.933 15.7984 101.933 16.1664V16.5504C101.933 16.9376 101.741 17.1904 101.354 17.1904C100.966 17.1904 100.768 16.9376 100.768 16.5504V15.2704C100.768 14.8704 100.95 14.6304 101.354 14.6304C101.757 14.6304 101.939 14.848 101.939 15.2384ZM101.066 16.1984V16.5792C101.066 16.8096 101.158 16.9472 101.366 16.9472C101.574 16.9472 101.667 16.8096 101.667 16.5792V16.1856C101.667 15.9584 101.568 15.8208 101.366 15.8208C101.165 15.8208 101.066 15.9584 101.066 16.1856V16.1984Z" fill="#263238"/>
<path d="M129.638 15.3503H128.922V17.1423H129.638V15.3503Z" fill="#263238"/>
<path d="M130.595 14.9888H129.878V17.1392H130.595V14.9888Z" fill="#263238"/>
<path d="M131.549 14.7361H130.832V17.1393H131.549V14.7361Z" fill="#263238"/>
<path d="M132.506 14.2913H131.789V17.1393H132.506V14.2913Z" fill="#263238"/>
<path d="M141.373 17.0911H137.072V14.4639H141.373V17.0911ZM137.312 16.8511H141.12V14.7199H137.312V16.8511Z" fill="#263238"/>
<path d="M139.939 14.9631H137.67V16.5919H139.939V14.9631Z" fill="#263238"/>
<path d="M141.763 15.4688H141.222V16.0864H141.763V15.4688Z" fill="#263238"/>
<path d="M135.498 16.5184C135.468 16.519 135.439 16.5112 135.414 16.496C134.541 15.9776 133.962 16.4608 133.936 16.496C133.904 16.5218 133.863 16.5343 133.822 16.5308C133.781 16.5272 133.743 16.508 133.716 16.477C133.688 16.4461 133.674 16.4058 133.676 16.3646C133.677 16.3234 133.695 16.2845 133.725 16.256C133.757 16.2272 134.496 15.5936 135.578 16.2368C135.614 16.2587 135.641 16.2941 135.651 16.3354C135.662 16.3767 135.656 16.4205 135.635 16.4576C135.619 16.4782 135.598 16.4945 135.574 16.5051C135.55 16.5157 135.524 16.5203 135.498 16.5184Z" fill="#263238"/>
<path d="M135.821 15.9808C135.792 15.9799 135.763 15.9722 135.738 15.9584C134.474 15.2064 133.622 15.9328 133.613 15.9392C133.581 15.9651 133.54 15.9776 133.499 15.974C133.458 15.9705 133.42 15.9513 133.392 15.9203C133.365 15.8894 133.351 15.8491 133.353 15.8079C133.354 15.7667 133.372 15.7278 133.402 15.6992C133.402 15.6992 134.438 14.8096 135.901 15.68C135.932 15.6971 135.957 15.7243 135.972 15.7573C135.986 15.7904 135.989 15.8272 135.98 15.862C135.97 15.8968 135.95 15.9274 135.921 15.949C135.892 15.9705 135.857 15.9817 135.821 15.9808Z" fill="#263238"/>
<path d="M136.115 15.3599C136.086 15.3605 136.057 15.3527 136.032 15.3375C134.432 14.3775 133.363 15.2831 133.318 15.3375C133.304 15.3524 133.286 15.3642 133.267 15.3723C133.248 15.3804 133.227 15.3845 133.206 15.3845C133.186 15.3845 133.165 15.3804 133.146 15.3723C133.126 15.3642 133.109 15.3524 133.094 15.3375C133.065 15.3076 133.049 15.2674 133.049 15.2255C133.049 15.1836 133.065 15.1434 133.094 15.1135C133.094 15.1135 134.374 14.0191 136.182 15.0943C136.219 15.1163 136.245 15.1517 136.256 15.1929C136.267 15.2342 136.261 15.278 136.24 15.3151C136.224 15.331 136.204 15.3433 136.182 15.351C136.161 15.3587 136.138 15.3618 136.115 15.3599Z" fill="#263238"/>
<path d="M135.014 16.7872C135.015 16.8671 134.992 16.9454 134.948 17.0121C134.904 17.0788 134.841 17.131 134.768 17.162C134.694 17.193 134.613 17.2014 134.535 17.1862C134.456 17.1711 134.384 17.1329 134.327 17.0766C134.271 17.0204 134.232 16.9486 134.216 16.8703C134.2 16.792 134.208 16.7107 134.238 16.6369C134.269 16.563 134.32 16.4998 134.387 16.4554C134.453 16.4109 134.531 16.3872 134.611 16.3872C134.718 16.3872 134.82 16.4292 134.895 16.5042C134.971 16.5791 135.014 16.6808 135.014 16.7872Z" fill="#263238"/>
</svg>
