<svg width="160" height="160" viewBox="0 0 160 160" fill="none" xmlns="http://www.w3.org/2000/svg">
<path d="M24.7168 112.061C32.2464 124.48 42.56 135.296 55.8592 142.112C68.5696 148.63 82.0992 148.394 95.7856 145.142C109.05 141.997 121.786 136.355 131.773 127.674C141.76 118.992 148.842 107.12 150.061 94.3936C151.28 81.6672 146.221 68.1888 135.747 59.8144C124.09 50.4832 107.542 48.2624 95.3024 39.6064C88.4928 34.8064 83.3568 28.2272 76.9888 22.9152C70.6912 17.664 63.0784 13.6352 54.8224 12.1088C46.5664 10.5824 37.648 11.6736 30.5728 15.84C17.0112 23.8112 11.9744 40.1952 10.288 54.2976C7.88161 74.4352 14.08 94.5184 24.7168 112.061Z" fill="#E49145"/>
<path opacity="0.7" d="M24.7168 112.061C32.2464 124.48 42.56 135.296 55.8592 142.112C68.5696 148.63 82.0992 148.394 95.7856 145.142C109.05 141.997 121.786 136.355 131.773 127.674C141.76 118.992 148.842 107.12 150.061 94.3936C151.28 81.6672 146.221 68.1888 135.747 59.8144C124.09 50.4832 107.542 48.2624 95.3024 39.6064C88.4928 34.8064 83.3568 28.2272 76.9888 22.9152C70.6912 17.664 63.0784 13.6352 54.8224 12.1088C46.5664 10.5824 37.648 11.6736 30.5728 15.84C17.0112 23.8112 11.9744 40.1952 10.288 54.2976C7.88161 74.4352 14.08 94.5184 24.7168 112.061Z" fill="white"/>
<path d="M74.72 155.52C88.4166 155.52 99.52 154.804 99.52 153.92C99.52 153.036 88.4166 152.32 74.72 152.32C61.0233 152.32 49.92 153.036 49.92 153.92C49.92 154.804 61.0233 155.52 74.72 155.52Z" fill="#263238"/>
<path d="M81.7952 119.706C81.7952 119.706 68.1024 121.747 59.9264 122.314C51.7504 122.88 45.2256 121.158 41.4016 123.802C37.5776 126.445 37.2416 134.362 39.8944 140.045C42.5472 145.728 44.7712 147.77 48.9344 149.29C53.0976 150.81 63.488 151.485 79.6352 149.93C95.7824 148.374 103.878 142.749 106.698 136.912C109.517 131.075 109.216 128.509 108.138 127.693C107.059 126.877 104.269 125.952 104.269 125.952C104.269 125.952 105.414 120.672 100.954 117.517C97.9776 115.408 89.1328 117.562 81.7952 119.706Z" fill="white"/>
<path d="M43.056 145.245C43.056 145.245 44.6208 146.112 47.2576 145.942C49.8944 145.773 52.0576 142.742 54.8288 140.166C57.6 137.59 68.288 135.12 78.8288 134.656C89.3696 134.192 97.8304 132.013 102.387 130.298C106.944 128.582 108.8 129.6 108.8 130.643C108.8 131.686 107.085 136.403 106.272 137.837C104.243 141.434 100.694 144.173 96.4544 145.894C92.2144 147.616 85.8688 149.094 78.5856 150.032C71.3024 150.97 61.3056 150.701 57.8272 150.538C54.3488 150.374 47.7152 150.163 43.056 145.245Z" fill="#E49145"/>
<path opacity="0.5" d="M43.056 145.245C43.056 145.245 44.6208 146.112 47.2576 145.942C49.8944 145.773 52.0576 142.742 54.8288 140.166C57.6 137.59 68.288 135.12 78.8288 134.656C89.3696 134.192 97.8304 132.013 102.387 130.298C106.944 128.582 108.8 129.6 108.8 130.643C108.8 131.686 107.267 136.48 106.272 137.837C103.834 141.171 100.694 144.173 96.4544 145.894C92.2144 147.616 85.8688 149.094 78.5856 150.032C71.3024 150.97 61.3056 150.701 57.8272 150.538C54.3488 150.374 47.7152 150.163 43.056 145.245Z" fill="white"/>
<path d="M81.7952 119.706C81.7952 119.706 68.1024 121.747 59.9264 122.314C51.7504 122.88 45.2256 121.158 41.4016 123.802C37.5776 126.445 37.2416 134.362 39.8944 140.045C42.5472 145.728 44.7712 147.77 48.9344 149.29C53.0976 150.81 63.488 151.485 79.6352 149.93C95.7824 148.374 103.878 142.749 106.698 136.912C109.517 131.075 109.216 128.509 108.138 127.693C107.059 126.877 104.269 125.952 104.269 125.952C104.269 125.952 105.414 120.672 100.954 117.517C97.9776 115.408 89.1328 117.562 81.7952 119.706Z" stroke="#263238" stroke-miterlimit="10"/>
<path d="M102.262 127.226C102.718 127.051 103.145 126.807 103.526 126.502L102.262 127.226Z" fill="white"/>
<path d="M102.262 127.226C102.718 127.051 103.145 126.807 103.526 126.502" stroke="#263238" stroke-miterlimit="10"/>
<path d="M41.9936 128.778C42.0384 129.738 41.5488 131.565 41.8016 133.149C42.6432 138.445 44.1504 140.912 47.1808 141.078C50.2112 141.245 52.0416 135.795 55.312 135.197C58.5824 134.598 68.9888 134.214 85.1712 131.466C93.5648 130.038 98.1888 128.758 100.694 127.856" fill="white"/>
<path d="M41.9936 128.778C42.0384 129.738 41.5488 131.565 41.8016 133.149C42.6432 138.445 44.1504 140.912 47.1808 141.078C50.2112 141.245 52.0416 135.795 55.312 135.197C58.5824 134.598 68.9888 134.214 85.1712 131.466C93.5648 130.038 98.1888 128.758 100.694 127.856" stroke="#263238" stroke-miterlimit="10"/>
<path d="M42.1824 125.76C42.0464 126.219 41.9785 126.696 41.9808 127.174L42.1824 125.76Z" fill="white"/>
<path d="M42.1824 125.76C42.0464 126.219 41.9785 126.696 41.9808 127.174" stroke="#263238" stroke-miterlimit="10"/>
<path d="M58.3232 140.858C58.5888 141.133 58.88 141.658 58.7392 141.795C58.5984 141.933 58.08 141.626 57.8144 141.35C57.5488 141.075 57.4464 140.746 57.5872 140.608C57.728 140.47 58.0576 140.582 58.3232 140.858Z" fill="white" stroke="#263238" stroke-miterlimit="10"/>
<path d="M63.9488 140.973C63.8112 141.328 63.456 141.814 63.2736 141.744C63.0912 141.673 63.1488 141.075 63.2736 140.72C63.3984 140.365 63.6704 140.131 63.8528 140.201C64.0352 140.272 64.0832 140.617 63.9488 140.973Z" fill="white" stroke="#263238" stroke-miterlimit="10"/>
<path d="M64.3456 144.793C64.208 145.149 63.8528 145.635 63.6704 145.565C63.488 145.494 63.5488 144.896 63.6704 144.541C63.792 144.185 64.0672 143.952 64.2496 144.022C64.432 144.093 64.4832 144.438 64.3456 144.793Z" fill="white" stroke="#263238" stroke-miterlimit="10"/>
<path d="M61.2832 143.117C61.1456 143.475 60.7904 143.958 60.608 143.888C60.4256 143.818 60.4864 143.222 60.608 142.864C60.7296 142.506 61.0048 142.275 61.1872 142.346C61.3696 142.416 61.4208 142.762 61.2832 143.117Z" fill="white" stroke="#263238" stroke-miterlimit="10"/>
<path d="M57.6 145.434C57.4624 145.789 57.1072 146.275 56.9248 146.205C56.7424 146.134 56.8032 145.536 56.9248 145.181C57.0464 144.826 57.3216 144.592 57.504 144.662C57.6864 144.733 57.7376 145.075 57.6 145.434Z" fill="white" stroke="#263238" stroke-miterlimit="10"/>
<path d="M67.9232 137.085C68.1888 137.36 68.48 137.885 68.3392 138.022C68.1984 138.16 67.68 137.853 67.4144 137.578C67.1488 137.302 67.0464 136.973 67.1872 136.835C67.328 136.698 67.6576 136.813 67.9232 137.085Z" fill="white" stroke="#263238" stroke-miterlimit="10"/>
<path d="M73.5488 137.2C73.4112 137.558 73.056 138.042 72.8736 137.971C72.6912 137.901 72.752 137.302 72.8736 136.947C72.9952 136.592 73.2704 136.358 73.4528 136.429C73.6352 136.499 73.6864 136.845 73.5488 137.2Z" fill="white" stroke="#263238" stroke-miterlimit="10"/>
<path d="M73.9456 141.021C73.808 141.379 73.4528 141.862 73.2704 141.792C73.088 141.722 73.1488 141.123 73.2704 140.768C73.392 140.413 73.6672 140.179 73.8496 140.25C74.032 140.32 74.0832 140.666 73.9456 141.021Z" fill="white" stroke="#263238" stroke-miterlimit="10"/>
<path d="M70.8832 139.347C70.7456 139.702 70.3904 140.186 70.208 140.115C70.0256 140.045 70.0864 139.45 70.208 139.091C70.3296 138.733 70.6048 138.502 70.7872 138.573C70.9696 138.643 71.0208 138.989 70.8832 139.347Z" fill="white" stroke="#263238" stroke-miterlimit="10"/>
<path d="M67.2 141.661C67.0624 142.019 66.7072 142.502 66.5248 142.432C66.3424 142.361 66.4032 141.763 66.5248 141.408C66.6464 141.053 66.9216 140.819 67.104 140.889C67.2864 140.96 67.3376 141.305 67.2 141.661Z" fill="white" stroke="#263238" stroke-miterlimit="10"/>
<path d="M68.9984 143.302C69.264 143.578 69.5552 144.106 69.4144 144.24C69.2736 144.374 68.7744 144.07 68.4928 143.798C68.2112 143.526 68.1248 143.19 68.2624 143.056C68.4 142.922 68.7328 143.04 68.9984 143.302Z" fill="white" stroke="#263238" stroke-miterlimit="10"/>
<path d="M74.624 143.421C74.4864 143.776 74.1312 144.259 73.9488 144.189C73.7664 144.118 73.8272 143.523 73.9488 143.165C74.0704 142.806 74.3456 142.576 74.528 142.646C74.7104 142.717 74.7616 143.062 74.624 143.421Z" fill="white" stroke="#263238" stroke-miterlimit="10"/>
<path d="M75.0208 147.242C74.8864 147.597 74.5312 148.08 74.3488 148.01C74.1664 147.939 74.224 147.344 74.3488 146.986C74.4736 146.627 74.7424 146.397 74.9248 146.467C75.1072 146.538 75.1584 146.88 75.0208 147.242Z" fill="white" stroke="#263238" stroke-miterlimit="10"/>
<path d="M71.9584 145.565C71.824 145.92 71.4688 146.406 71.2864 146.336C71.104 146.266 71.1616 145.667 71.2864 145.312C71.4112 144.957 71.68 144.723 71.8624 144.794C72.0448 144.864 72.096 145.206 71.9584 145.565Z" fill="white" stroke="#263238" stroke-miterlimit="10"/>
<path d="M68.2752 147.878C68.1376 148.237 67.7824 148.72 67.6 148.65C67.4176 148.579 67.4784 147.984 67.6 147.626C67.7216 147.267 67.9968 147.037 68.1792 147.107C68.3616 147.178 68.4128 147.52 68.2752 147.878Z" fill="white" stroke="#263238" stroke-miterlimit="10"/>
<path d="M78.1504 139.494C78.416 139.77 78.704 140.294 78.5632 140.432C78.4224 140.57 77.9232 140.262 77.6416 139.99C77.36 139.718 77.2736 139.382 77.4144 139.245C77.5552 139.107 77.8816 139.222 78.1504 139.494Z" fill="white" stroke="#263238" stroke-miterlimit="10"/>
<path d="M83.7728 139.61C83.6384 139.968 83.28 140.451 83.0976 140.381C82.9152 140.31 82.976 139.715 83.1136 139.357C83.2512 138.998 83.5072 138.768 83.6896 138.838C83.872 138.909 83.9104 139.254 83.7728 139.61Z" fill="white" stroke="#263238" stroke-miterlimit="10"/>
<path d="M84.16 143.43C84.0256 143.789 83.6704 144.272 83.488 144.202C83.3056 144.131 83.3632 143.536 83.488 143.178C83.6128 142.819 83.8816 142.589 84.064 142.659C84.2464 142.73 84.3072 143.075 84.16 143.43Z" fill="white" stroke="#263238" stroke-miterlimit="10"/>
<path d="M81.1072 141.76C80.9728 142.115 80.6176 142.602 80.4352 142.531C80.2528 142.461 80.3104 141.862 80.4352 141.507C80.56 141.152 80.8288 140.918 81.0112 140.986C81.1936 141.053 81.2448 141.398 81.1072 141.76Z" fill="white" stroke="#263238" stroke-miterlimit="10"/>
<path d="M77.44 144.07C77.3056 144.429 76.9504 144.912 76.768 144.842C76.5856 144.771 76.6432 144.176 76.768 143.818C76.8928 143.459 77.1616 143.229 77.344 143.299C77.5264 143.37 77.5616 143.715 77.44 144.07Z" fill="white" stroke="#263238" stroke-miterlimit="10"/>
<path d="M87.632 134.944C87.8976 135.219 88.1856 135.744 88.0448 135.881C87.904 136.019 87.3888 135.712 87.1232 135.437C86.8576 135.161 86.7552 134.832 86.896 134.694C87.0368 134.557 87.36 134.672 87.632 134.944Z" fill="white" stroke="#263238" stroke-miterlimit="10"/>
<path d="M93.2544 135.059C93.12 135.418 92.7648 135.901 92.5824 135.83C92.4 135.76 92.4576 135.162 92.5824 134.806C92.7072 134.451 92.976 134.218 93.1584 134.288C93.3408 134.358 93.392 134.72 93.2544 135.059Z" fill="white" stroke="#263238" stroke-miterlimit="10"/>
<path d="M93.6544 138.88C93.5168 139.238 93.1616 139.722 92.9792 139.651C92.7968 139.581 92.8544 138.982 92.9792 138.627C93.104 138.272 93.376 138.038 93.5584 138.109C93.7408 138.179 93.7888 138.525 93.6544 138.88Z" fill="white" stroke="#263238" stroke-miterlimit="10"/>
<path d="M90.592 137.206C90.4544 137.562 90.0992 138.045 89.9168 137.974C89.7344 137.904 89.792 137.309 89.9168 136.95C90.0416 136.592 90.3136 136.362 90.496 136.432C90.6784 136.502 90.7264 136.848 90.592 137.206Z" fill="white" stroke="#263238" stroke-miterlimit="10"/>
<path d="M86.9056 139.52C86.7712 139.875 86.416 140.362 86.2336 140.291C86.0512 140.221 86.1088 139.622 86.2336 139.267C86.3584 138.912 86.6272 138.678 86.8096 138.749C86.992 138.819 87.04 139.165 86.9056 139.52Z" fill="white" stroke="#263238" stroke-miterlimit="10"/>
<path d="M90.6368 140.768C90.9024 141.04 91.1936 141.568 91.0528 141.702C90.912 141.837 90.3968 141.533 90.128 141.261C89.8592 140.989 89.76 140.653 89.9008 140.518C90.0416 140.384 90.3712 140.48 90.6368 140.768Z" fill="white" stroke="#263238" stroke-miterlimit="10"/>
<path d="M96.2624 140.883C96.1248 141.238 95.7696 141.722 95.5872 141.651C95.4048 141.581 95.4656 140.986 95.5872 140.627C95.7088 140.269 95.984 140.038 96.1664 140.109C96.3488 140.179 96.4 140.525 96.2624 140.883Z" fill="white" stroke="#263238" stroke-miterlimit="10"/>
<path d="M96.6592 144.704C96.5248 145.059 96.1664 145.542 95.984 145.475C95.8016 145.408 95.8624 144.806 96 144.448C96.1376 144.09 96.3936 143.859 96.576 143.93C96.7584 144 96.7968 144.346 96.6592 144.704Z" fill="white" stroke="#263238" stroke-miterlimit="10"/>
<path d="M93.5968 143.04C93.4624 143.395 93.104 143.882 92.9216 143.811C92.7392 143.741 92.8 143.142 92.9376 142.787C93.0752 142.432 93.3312 142.198 93.5136 142.269C93.696 142.339 93.7344 142.672 93.5968 143.04Z" fill="white" stroke="#263238" stroke-miterlimit="10"/>
<path d="M89.92 145.341C89.7824 145.699 89.4272 146.182 89.2448 146.112C89.0624 146.042 89.1232 145.446 89.2448 145.088C89.3664 144.73 89.6416 144.499 89.824 144.57C90.0064 144.64 90.0512 144.986 89.92 145.341Z" fill="white" stroke="#263238" stroke-miterlimit="10"/>
<path d="M97.6 132.966C97.8656 133.242 98.1568 133.766 98.016 133.904C97.8752 134.042 97.3568 133.734 97.0912 133.459C96.8256 133.184 96.7232 132.854 96.864 132.717C97.0048 132.579 97.3408 132.694 97.6 132.966Z" fill="white" stroke="#263238" stroke-miterlimit="10"/>
<path d="M103.232 133.081C103.094 133.44 102.739 133.923 102.557 133.853C102.374 133.782 102.432 133.187 102.557 132.829C102.682 132.47 102.954 132.24 103.136 132.31C103.318 132.381 103.36 132.726 103.232 133.081Z" fill="white" stroke="#263238" stroke-miterlimit="10"/>
<path d="M103.629 136.902C103.491 137.261 103.136 137.744 102.954 137.673C102.771 137.603 102.832 137.008 102.954 136.649C103.075 136.291 103.35 136.061 103.533 136.131C103.715 136.201 103.766 136.547 103.629 136.902Z" fill="white" stroke="#263238" stroke-miterlimit="10"/>
<path d="M100.566 135.229C100.429 135.584 100.074 136.067 99.8912 136C99.7088 135.933 99.7696 135.331 99.8912 134.973C100.013 134.614 100.288 134.384 100.47 134.454C100.653 134.525 100.704 134.87 100.566 135.229Z" fill="white" stroke="#263238" stroke-miterlimit="10"/>
<path d="M96.8832 137.542C96.7456 137.901 96.3904 138.384 96.208 138.313C96.0256 138.243 96.0832 137.645 96.208 137.289C96.3328 136.934 96.6048 136.701 96.7872 136.771C96.9696 136.841 97.0176 137.187 96.8832 137.542Z" fill="white" stroke="#263238" stroke-miterlimit="10"/>
<path d="M82.4352 143.61C82.4 143.987 82.1952 144.57 82 144.534C81.8048 144.499 81.696 143.93 81.728 143.549C81.76 143.168 81.9456 142.874 82.1408 142.89C82.336 142.906 82.4672 143.229 82.4352 143.61Z" fill="white" stroke="#263238" stroke-miterlimit="10"/>
<path d="M86.032 147.933C85.6736 148.064 85.072 148.112 85.008 147.933C84.944 147.753 85.4336 147.405 85.792 147.273C86.1504 147.142 86.496 147.187 86.5632 147.369C86.6304 147.552 86.4 147.801 86.032 147.933Z" fill="white" stroke="#263238" stroke-miterlimit="10"/>
<path d="M100.442 141.165C100.166 141.427 99.6352 141.712 99.5008 141.571C99.3664 141.43 99.6768 140.915 99.952 140.653C100.227 140.39 100.563 140.291 100.698 140.432C100.832 140.573 100.72 140.902 100.442 141.165Z" fill="white" stroke="#263238" stroke-miterlimit="10"/>
<path d="M106.269 133.837C106.125 134.192 105.76 134.669 105.578 134.595C105.395 134.521 105.469 133.923 105.613 133.571C105.757 133.219 106.019 132.989 106.202 133.062C106.384 133.136 106.413 133.485 106.269 133.837Z" fill="white" stroke="#263238" stroke-miterlimit="10"/>
<path d="M93.4176 145.99C93.1424 146.253 92.6144 146.538 92.4768 146.394C92.3392 146.25 92.6528 145.738 92.9312 145.475C93.2096 145.213 93.5392 145.114 93.6768 145.254C93.8144 145.395 93.696 145.725 93.4176 145.99Z" fill="white" stroke="#263238" stroke-miterlimit="10"/>
<path d="M79.088 148.419C78.7296 148.547 78.128 148.598 78.064 148.419C78 148.24 78.4864 147.888 78.848 147.76C79.2096 147.632 79.552 147.67 79.616 147.856C79.68 148.042 79.4464 148.288 79.088 148.419Z" fill="white" stroke="#263238" stroke-miterlimit="10"/>
<path d="M61.968 149.379C61.5872 149.395 61.008 149.261 60.992 149.059C60.976 148.857 61.5584 148.685 61.952 148.669C62.3456 148.653 62.6496 148.797 62.656 148.989C62.6624 149.181 62.3488 149.363 61.968 149.379Z" fill="white" stroke="#263238" stroke-miterlimit="10"/>
<path d="M60.576 147.168C60.1952 147.184 59.616 147.05 59.616 146.848C59.616 146.646 60.1792 146.47 60.576 146.454C60.9728 146.438 61.2736 146.586 61.2832 146.774C61.2928 146.963 60.9568 147.155 60.576 147.168Z" fill="white" stroke="#263238" stroke-miterlimit="10"/>
<path d="M53.888 148.874C53.5168 148.774 52.9984 148.474 53.0496 148.285C53.1008 148.096 53.6896 148.093 54.0672 148.189C54.4448 148.285 54.7072 148.509 54.6464 148.71C54.5856 148.912 54.256 148.973 53.888 148.874Z" fill="white" stroke="#263238" stroke-miterlimit="10"/>
<path d="M55.3792 144.368C55.0944 144.624 54.5568 144.893 54.4192 144.749C54.2816 144.605 54.6112 144.109 54.896 143.843C55.1808 143.578 55.5168 143.498 55.648 143.645C55.7792 143.792 55.68 144.115 55.3792 144.368Z" fill="white" stroke="#263238" stroke-miterlimit="10"/>
<path d="M71.7024 148.941C71.344 149.072 70.7424 149.12 70.6784 148.941C70.6144 148.762 71.1008 148.413 71.4624 148.282C71.824 148.15 72.1664 148.195 72.2304 148.378C72.2944 148.56 72.0608 148.8 71.7024 148.941Z" fill="white" stroke="#263238" stroke-miterlimit="10"/>
<path d="M82.6656 147.325C82.3072 147.456 81.7056 147.504 81.6416 147.325C81.5776 147.146 82.0672 146.794 82.4256 146.662C82.784 146.531 83.1296 146.576 83.1968 146.758C83.264 146.941 83.0272 147.2 82.6656 147.325Z" fill="white" stroke="#263238" stroke-miterlimit="10"/>
<path d="M81.5712 137.488C81.2128 137.616 80.6112 137.667 80.5472 137.488C80.4832 137.309 80.9696 136.957 81.328 136.829C81.6864 136.701 82.032 136.739 82.0992 136.925C82.1664 137.11 81.92 137.357 81.5712 137.488Z" fill="white" stroke="#263238" stroke-miterlimit="10"/>
<path d="M64.6016 121.28C64.6016 121.28 62.0992 117.946 62.4928 115.446C62.8864 112.947 60.7072 111.728 60.112 112.538C59.5168 113.347 60.128 115.197 58.7712 114.294C57.4144 113.392 57.568 110.042 56.5024 108.874C55.4368 107.706 54.3904 109.194 54.6432 109.766C54.896 110.339 54.1664 111.005 53.0752 110.406C51.984 109.808 50.8864 103.312 48.6976 105.306C46.5088 107.299 49.776 109.146 48.6464 109.363C47.5168 109.581 43.8976 106.205 42.8864 106.858C41.8752 107.51 44.5888 109.312 43.872 109.699C43.1552 110.086 41.1072 109.011 40.6176 110.528C40.128 112.045 43.8176 111.094 43.744 112.493C43.6704 113.891 41.5392 114.768 42.0448 115.91C42.5504 117.053 46.2048 116.941 45.8496 118.323C45.4944 119.706 45.4176 121.661 47.2256 121.885C49.0336 122.109 51.4368 121.52 50.6816 122.746C49.9264 123.971 51.1232 125.283 53.2224 125.242C55.3216 125.2 56.96 126.109 56.4864 127.36C56.0128 128.611 58.2176 129.261 59.3664 128.752C60.5152 128.243 62.0896 127.341 62.448 128.618C62.8064 129.894 63.9392 129.664 64.9504 129.011C65.9616 128.358 67.088 128.131 67.4624 129.13C67.8368 130.128 70.2784 128.701 70.2784 128.701C70.2784 128.701 72.912 129.242 73.4784 128.989C74.0448 128.736 73.6736 127.738 72.7296 126.995C71.7856 126.253 69.7888 124.061 69.5296 123.491C69.2704 122.922 67.8112 121.312 67.3728 121.712C66.9344 122.112 64.8416 122.138 64.6016 121.28Z" fill="#E49145" stroke="#263238" stroke-miterlimit="10"/>
<path d="M47.7536 114.176C47.3178 113.775 46.9074 113.348 46.5248 112.896" stroke="#263238" stroke-miterlimit="10"/>
<path d="M65.0336 124.842C64.2368 124.502 63.4336 124.17 62.6624 123.856C59.1232 122.416 53.1904 118.694 49.376 115.584" stroke="#263238" stroke-miterlimit="10"/>
<path d="M72.96 128.387C72.96 128.387 70.2336 127.107 67.0016 125.689" stroke="#263238" stroke-miterlimit="10"/>
<path d="M97.424 113.837C97.424 113.837 93.392 113.389 91.8848 111.44C90.3776 109.491 88.0448 110.224 88.2368 111.19C88.4288 112.157 90.1312 112.95 88.5856 113.309C87.04 113.667 84.7712 111.325 83.2352 111.299C81.6992 111.274 82.0512 113.011 82.6272 113.219C83.2032 113.427 83.184 114.384 82.0256 114.749C80.8672 115.114 75.536 111.568 75.4912 114.451C75.4464 117.334 78.9248 116.237 78.3328 117.19C77.7408 118.144 72.9248 118.448 72.7168 119.6C72.5088 120.752 75.5968 120.029 75.3888 120.797C75.1808 121.565 73.056 122.298 73.7888 123.654C74.5216 125.011 76.3168 121.773 77.264 122.749C78.2112 123.725 77.408 125.827 78.544 126.23C79.68 126.634 82.0416 123.99 82.7936 125.146C83.5456 126.301 84.8672 127.68 86.2304 126.547C87.5936 125.414 88.7904 123.322 89.1456 124.672C89.5008 126.022 91.2384 126.051 92.6112 124.534C93.984 123.018 95.7216 122.47 96.2784 123.632C96.8352 124.794 98.7776 123.674 99.1808 122.528C99.584 121.382 99.9968 119.648 101.139 120.25C102.282 120.851 102.877 119.894 103.088 118.742C103.299 117.59 103.891 116.64 104.845 117.04C105.798 117.44 106.422 114.758 106.422 114.758C106.422 114.758 108.56 113.254 108.762 112.682C108.963 112.109 108.01 111.722 106.842 111.882C105.674 112.042 102.803 112.01 102.23 111.808C101.658 111.606 99.5392 111.571 99.5296 112.147C99.52 112.723 98.1856 114.24 97.424 113.837Z" fill="#E49145" stroke="#263238" stroke-miterlimit="10"/>
<path d="M81.1488 121.03C80.5744 121.067 79.9984 121.067 79.424 121.03" stroke="#263238" stroke-miterlimit="10"/>
<path d="M100.23 115.904C99.4592 116.24 98.688 116.586 97.952 116.922C94.5696 118.474 87.9776 120.192 83.232 120.819" stroke="#263238" stroke-miterlimit="10"/>
<path d="M108.019 112.662C108.019 112.662 105.293 113.741 102.131 115.085" stroke="#263238" stroke-miterlimit="10"/>
<path d="M68.9504 34.7295C68.9504 34.7295 68.3488 30.4575 64.8512 29.3535C61.3536 28.2495 57.6512 30.6591 56.0448 32.7999C54.4384 34.9407 54.2528 37.4079 55.2 38.8447C56.1472 40.2815 58.8736 42.9407 62.3776 43.5967C65.8816 44.2527 67.6512 42.3775 68.4064 40.7007C69.2879 38.8372 69.4806 36.7216 68.9504 34.7295Z" fill="#E49145" stroke="#263238" stroke-miterlimit="10"/>
<path d="M68.1056 34.9278C68.1056 34.9278 67.5744 31.171 64.4992 30.2014C61.424 29.2318 58.1696 31.3502 56.7584 33.2318C55.3472 35.1134 55.1808 37.283 56.016 38.547C56.8512 39.811 59.2448 42.147 62.3232 42.707C65.4016 43.267 66.96 41.6382 67.6256 40.163C68.3965 38.5288 68.5664 36.675 68.1056 34.9278Z" fill="white"/>
<path d="M62.6144 32.8351C62.6144 32.8351 62.8384 31.9903 62.2112 31.5551C61.584 31.1199 59.9712 31.6447 58.3328 32.9311C56.6944 34.2175 56.4512 36.4511 56.5696 37.0143C56.688 37.5775 58.4704 37.3855 58.4704 37.3855L58.7168 37.9807C58.7168 37.9807 57.8112 38.9407 57.888 39.4079C57.9648 39.8751 60.272 41.3535 62.368 41.8559C64.464 42.3583 65.6416 41.1039 65.568 40.6783C65.4638 40.2705 65.328 39.8714 65.1616 39.4847L65.2992 38.8927C65.2992 38.8927 66.656 38.9151 67.0464 38.2847C67.4368 37.6543 67.1424 35.0655 66.4416 33.6991C65.7408 32.3327 64.1408 31.9679 63.84 32.1311C63.5392 32.2943 63.232 33.0111 63.232 33.0111C63.0168 32.9922 62.8072 32.9325 62.6144 32.8351Z" fill="#E49145"/>
<path d="M63.9776 34.8798C63.9776 34.8798 63.3088 34.275 63.5712 33.8974C63.8336 33.5198 64.3392 33.443 64.0512 32.9374C63.7632 32.4318 62.4512 32.4446 62.2336 32.6942C62.016 32.9438 62.5248 33.0814 62.5184 33.4622C62.512 33.843 62.3392 34.0542 61.5584 34.3806C60.7776 34.707 60.0896 36.0926 59.9136 36.5982C59.7376 37.1038 59.4752 37.4398 59.0112 37.219C58.5472 36.9982 58.128 36.867 58.16 37.4622C58.192 38.0574 58.8992 38.9982 59.1968 38.835C59.4944 38.6718 59.3728 38.4542 59.5424 38.4574C59.712 38.4606 61.568 39.1262 62.3296 39.1806C63.0912 39.235 63.5648 38.6494 63.8592 38.8254C64.1536 39.0014 64.0128 39.9294 64.4768 39.9774C64.9408 40.0254 66.0128 39.283 65.808 38.8126C65.6032 38.3422 65.2544 38.9726 64.7584 38.2462C64.2624 37.5198 64.7104 36.0414 64.5088 35.443C64.3072 34.8446 63.9776 34.8798 63.9776 34.8798Z" fill="white"/>
<path d="M61.1616 33.504C61.4272 33.7792 61.7184 34.304 61.5776 34.4416C61.4368 34.5792 60.9184 34.272 60.6528 33.9968C60.3872 33.7216 60.2848 33.392 60.4256 33.2544C60.5664 33.1168 60.896 33.2288 61.1616 33.504Z" fill="white"/>
<path d="M64.7296 34.3039C64.432 34.5439 63.8816 34.7839 63.7696 34.6239C63.6576 34.4639 64 33.9839 64.2976 33.7471C64.5952 33.5103 64.9376 33.4271 65.056 33.5871C65.1744 33.7471 65.0272 34.0639 64.7296 34.3039Z" fill="white"/>
<path d="M59.9648 39.5967C60.0672 39.2319 60.3776 38.7167 60.5664 38.7711C60.7552 38.8255 60.7488 39.4111 60.6432 39.7919C60.5376 40.1727 60.304 40.4127 60.1152 40.3583C59.9264 40.3039 59.8592 39.9647 59.9648 39.5967Z" fill="white"/>
<path d="M61.3152 39.9262C61.3696 39.5486 61.6064 38.995 61.7984 39.0238C61.9904 39.0526 62.0704 39.6446 62.0192 40.0222C61.968 40.3998 61.7664 40.6878 61.5712 40.6622C61.376 40.6366 61.264 40.3198 61.3152 39.9262Z" fill="white"/>
<path d="M63.152 40.1056C62.992 39.76 62.8928 39.168 63.0688 39.0848C63.2448 39.0016 63.6352 39.4624 63.7952 39.808C63.9552 40.1536 63.9424 40.5024 63.7632 40.5856C63.584 40.6688 63.312 40.4544 63.152 40.1056Z" fill="white"/>
<path d="M65.4464 35.5199C65.0944 35.6735 64.4864 35.7567 64.4224 35.5775C64.3584 35.3983 64.8128 35.0207 65.1648 34.8703C65.5168 34.7199 65.8624 34.7423 65.9392 34.9215C66.016 35.1007 65.7952 35.3663 65.4464 35.5199Z" fill="white"/>
<path d="M65.4176 37.408C65.0336 37.4272 64.4576 37.296 64.4416 37.088C64.4256 36.88 65.0016 36.7072 65.4016 36.688C65.8016 36.6688 66.0992 36.816 66.1056 37.008C66.112 37.2 65.7984 37.392 65.4176 37.408Z" fill="white"/>
<path d="M60.128 34.4607C60.3936 34.7359 60.6848 35.2607 60.544 35.3983C60.4032 35.5359 59.904 35.2287 59.6224 34.9567C59.3408 34.6847 59.2544 34.3487 59.392 34.2111C59.5296 34.0735 59.8624 34.1887 60.128 34.4607Z" fill="white"/>
<path d="M59.2 35.84C59.52 36.0544 59.9104 36.5088 59.8016 36.672C59.6928 36.8352 59.1232 36.64 58.8064 36.4288C58.4896 36.2176 58.32 35.9104 58.4288 35.7472C58.5376 35.584 58.896 35.632 59.2 35.84Z" fill="white"/>
<path d="M88.5856 59.1519C88.5856 59.1519 92.1344 57.3151 92.0288 53.9199C91.9232 50.5247 88.688 48.0255 86.3232 47.2767C83.9584 46.5279 81.744 47.1199 80.7808 48.3871C79.8176 49.6543 78.32 52.8511 78.8192 56.1151C79.3184 59.3791 81.4976 60.3551 83.1968 60.5023C85.0962 60.7026 87.0052 60.2243 88.5856 59.1519Z" fill="#E49145" stroke="#263238" stroke-miterlimit="10"/>
<path d="M88.1504 58.4703C88.1504 58.4703 91.2736 56.8704 91.1808 53.872C91.088 50.8736 88.24 48.6912 86.1632 48.032C84.0864 47.3728 82.1376 47.8911 81.2896 49.0079C80.4416 50.1247 79.1264 52.9343 79.568 55.8047C80.0096 58.6751 81.92 59.5295 83.408 59.6447C85.078 59.828 86.7589 59.4117 88.1504 58.4703Z" fill="white"/>
<path d="M88.3008 53.0303C88.3008 53.0303 89.1072 52.9695 89.296 52.2879C89.4848 51.6063 88.528 50.3487 86.9024 49.3183C85.2768 48.2879 83.2416 48.7551 82.7936 49.0271C82.3456 49.2991 83.0528 50.8031 83.0528 50.8031L82.6048 51.1967C82.6048 51.1967 81.4912 50.7007 81.104 50.9119C80.7168 51.1231 80.144 53.5903 80.3424 55.5903C80.5408 57.5903 82.0032 58.2239 82.3488 58.0255C82.6747 57.8105 82.9829 57.5697 83.2704 57.3055L83.8272 57.2447C83.8272 57.2447 84.224 58.4351 84.8928 58.5855C85.5616 58.7359 87.7376 57.6831 88.7328 56.6655C89.728 55.6479 89.5424 54.1055 89.3056 53.9103C89.0688 53.7151 88.3456 53.6479 88.3456 53.6479C88.292 53.4467 88.2768 53.2372 88.3008 53.0303Z" fill="#E49145"/>
<path d="M86.9216 54.8543C86.9216 54.8543 87.2416 54.0831 87.6544 54.1951C88.0672 54.3071 88.2944 54.7295 88.6464 54.3199C88.9984 53.9103 88.5856 52.7711 88.3008 52.6591C88.016 52.5471 88.0544 53.0303 87.7184 53.1423C87.3824 53.2543 87.1456 53.1647 86.6272 52.5919C86.1088 52.0191 84.6784 51.8335 84.1824 51.8335C83.6864 51.8335 83.312 51.7087 83.3632 51.2351C83.4144 50.7615 83.4016 50.3551 82.8928 50.5663C82.384 50.7775 81.7728 51.6799 82.0096 51.8911C82.2464 52.1023 82.3936 51.9295 82.4448 52.0799C82.496 52.2303 82.48 54.0543 82.6624 54.7359C82.8448 55.4175 83.5072 55.6543 83.4432 55.9647C83.3792 56.2751 82.5248 56.4351 82.624 56.8575C82.7232 57.2799 83.7024 57.9903 84.0512 57.6671C84.4 57.3439 83.7312 57.2319 84.224 56.5759C84.7168 55.9199 86.144 55.8559 86.5984 55.4975C87.0528 55.1391 86.9216 54.8543 86.9216 54.8543Z" fill="white"/>
<path d="M87.2736 51.9646C87.1136 52.2846 86.7424 52.6974 86.5792 52.6046C86.416 52.5118 86.528 51.9646 86.6848 51.6638C86.8416 51.363 87.104 51.155 87.264 51.235C87.424 51.315 87.4304 51.6478 87.2736 51.9646Z" fill="white"/>
<path d="M87.68 55.331C87.3792 55.1422 87.0016 54.7358 87.0976 54.5822C87.1936 54.4286 87.7376 54.5822 88.0256 54.7742C88.3136 54.9662 88.4928 55.2382 88.3968 55.3918C88.3008 55.5454 87.9648 55.5166 87.68 55.331Z" fill="white"/>
<path d="M81.5776 52.7806C81.9296 52.7614 82.4768 52.8766 82.4864 53.0558C82.496 53.235 81.9712 53.4174 81.616 53.4366C81.2608 53.4558 80.976 53.3278 80.9568 53.1486C80.9376 52.9694 81.2256 52.7998 81.5776 52.7806Z" fill="white"/>
<path d="M81.7056 54.0799C82.0512 54.0095 82.608 54.0479 82.6432 54.2239C82.6784 54.3999 82.1824 54.6527 81.8336 54.7231C81.4848 54.7935 81.1936 54.7039 81.1424 54.5247C81.0912 54.3455 81.3568 54.1343 81.7056 54.0799Z" fill="white"/>
<path d="M82.1088 55.7278C82.3616 55.4814 82.8512 55.2126 82.976 55.3406C83.1008 55.4686 82.8192 55.9518 82.5664 56.1982C82.3136 56.4446 82.0032 56.5374 81.8784 56.4094C81.7536 56.2814 81.856 55.9742 82.1088 55.7278Z" fill="white"/>
<path d="M86.8224 56.3199C86.5824 56.0607 86.3264 55.5647 86.4608 55.4431C86.5952 55.3215 87.0656 55.6159 87.3056 55.8751C87.5456 56.1343 87.6256 56.4447 87.4976 56.5695C87.3696 56.6943 87.0624 56.5855 86.8224 56.3199Z" fill="white"/>
<path d="M85.1584 56.8799C85.0272 56.5599 84.9632 55.9999 85.1328 55.9199C85.3024 55.8399 85.6352 56.2943 85.7728 56.6239C85.9104 56.9535 85.8752 57.2639 85.7056 57.3407C85.536 57.4175 85.2928 57.2095 85.1584 56.8799Z" fill="white"/>
<path d="M86.1184 51.3567C85.9616 51.6767 85.5904 52.0863 85.4272 51.9967C85.264 51.9071 85.3728 51.3567 85.5328 51.0367C85.6928 50.7167 85.9488 50.5311 86.112 50.6111C86.2752 50.6911 86.2784 51.0399 86.1184 51.3567Z" fill="white"/>
<path d="M84.6304 50.9791C84.5408 51.3215 84.2624 51.8015 84.0896 51.7567C83.9168 51.7119 83.9072 51.1551 83.9968 50.7967C84.0864 50.4383 84.3008 50.2143 84.4736 50.2591C84.6464 50.3039 84.72 50.6367 84.6304 50.9791Z" fill="white"/>
<path d="M71.68 101.942C66.7815 101.866 61.9085 101.221 57.1584 100.022C45.7984 97.1424 38.6336 91.9872 38.3328 91.7696C36.8692 90.7087 35.887 89.1099 35.6023 87.3249C35.3175 85.5398 35.7535 83.7148 36.8144 82.2512C37.8753 80.7876 39.4741 79.8054 41.2591 79.5207C43.0442 79.2359 44.8692 79.6719 46.3328 80.7328C46.4736 80.832 52.128 84.7808 61.0528 86.944C72.816 89.7952 84.5728 88.3552 95.9904 82.6624C97.6076 81.8561 99.4788 81.7253 101.192 82.2987C102.906 82.8722 104.322 84.1028 105.128 85.72C105.934 87.3372 106.065 89.2084 105.492 90.9221C104.918 92.6357 103.688 94.0513 102.07 94.8576C90.912 100.403 80.4896 102.08 71.68 101.942Z" fill="#E49145" stroke="#263238" stroke-miterlimit="10"/>
<path d="M104.128 90.3169C103.878 91.1284 103.465 91.8806 102.915 92.5275C102.365 93.1745 101.689 93.7027 100.928 94.0801C96.1727 96.4725 91.1314 98.248 85.9264 99.3633" stroke="#263238" stroke-miterlimit="10"/>
<path d="M103.968 86.1504C104.202 86.7387 104.345 87.3591 104.394 87.9904" stroke="#263238" stroke-miterlimit="10"/>
<path d="M50.7648 95.8687C50.2251 95.6383 49.7067 95.4079 49.2096 95.1775" stroke="#263238" stroke-miterlimit="10"/>
<path d="M83.52 99.8208C75.539 101.168 67.3646 100.835 59.52 98.8416C57.0176 98.2033 54.5591 97.4038 52.16 96.448" stroke="#263238" stroke-miterlimit="10"/>
<path opacity="0.2" d="M47.1552 81.92C47.1552 81.92 48.0864 83.4912 46.9632 86.4672C45.84 89.4432 45.3632 89.9136 46.1888 89.9296C47.0144 89.9456 48.5024 87.5712 48.7776 85.1808C49.0528 82.7904 48 81.8208 47.1552 81.92Z" fill="black"/>
<path opacity="0.2" d="M53.5776 84.8C53.5776 84.8 54.5088 86.3711 53.3824 89.3471C52.256 92.3231 51.7824 92.7968 52.608 92.8096C53.4336 92.8224 54.9216 90.4512 55.2 88.0608C55.4784 85.6704 54.416 84.6784 53.5776 84.8Z" fill="black"/>
<path opacity="0.2" d="M60.48 87.2928C60.48 87.2928 61.4112 88.864 60.2848 91.84C59.1584 94.816 58.6848 95.2864 59.5104 95.2992C60.336 95.312 61.824 92.9408 62.1024 90.5504C62.3808 88.16 61.3216 87.184 60.48 87.2928Z" fill="black"/>
<path opacity="0.2" d="M67.296 88.5345C67.296 88.5345 68.4096 89.9841 67.6416 93.0721C66.8736 96.1601 66.4448 96.6849 67.28 96.5921C68.1152 96.4993 69.2992 93.9777 69.2928 91.5713C69.2864 89.1649 68.1184 88.3201 67.296 88.5345Z" fill="black"/>
<path opacity="0.2" d="M73.9744 88.9793C73.9744 88.9793 75.2192 90.3201 74.752 93.4593C74.2848 96.5985 73.9072 97.1713 74.7296 97.0049C75.552 96.8385 76.4896 94.2113 76.2528 91.8145C76.016 89.4177 74.7744 88.6977 73.9744 88.9793Z" fill="black"/>
<path opacity="0.2" d="M81.8784 88.576C81.8784 88.576 83.3152 89.7056 83.3408 92.8896C83.3664 96.0736 83.0816 96.6848 83.8688 96.4096C84.656 96.1344 85.1744 93.3728 84.5696 91.0432C83.9648 88.7136 82.624 88.176 81.8784 88.576Z" fill="black"/>
<path opacity="0.2" d="M90.0352 86.4321C90.0352 86.4321 91.6096 87.3569 92.0576 90.5089C92.5056 93.6609 92.3104 94.3073 93.0496 93.9137C93.7888 93.5201 93.9392 90.7329 93.0304 88.5025C92.1216 86.2721 90.72 85.9329 90.0352 86.4321Z" fill="black"/>
<path d="M51.376 42.6047C47.9168 42.5471 45.072 45.0335 45.0208 48.1535C44.9696 51.2735 47.7344 53.8495 51.1936 53.9135C54.6528 53.9775 57.4944 51.4847 57.5456 48.3647C57.5968 45.2447 54.832 42.6591 51.376 42.6047ZM50.7584 53.4399C47.8368 53.3919 45.5008 51.2959 45.5424 48.7519C45.584 46.2079 47.984 44.1887 50.9056 44.2367C53.8272 44.2847 56.16 46.3839 56.1216 48.9247C56.0832 51.4655 53.6768 53.4847 50.7584 53.4399Z" fill="white" stroke="#263238" stroke-linecap="round" stroke-linejoin="round"/>
<path d="M54.288 43.3855L53.9648 43.8495" stroke="#263238" stroke-linecap="round" stroke-linejoin="round"/>
<path d="M55.8688 44.5823L55.5904 44.8543" stroke="#263238" stroke-linecap="round" stroke-linejoin="round"/>
<path d="M57.168 46.4031L56.6944 46.7071" stroke="#263238" stroke-linecap="round" stroke-linejoin="round"/>
<path d="M51.7184 42.72L51.6704 43.1872" stroke="#263238" stroke-linecap="round" stroke-linejoin="round"/>
<path d="M48.9376 43.104L48.9312 43.376" stroke="#263238" stroke-linecap="round" stroke-linejoin="round"/>
<path d="M57.4336 49.4176L56.8864 49.3696" stroke="#263238" stroke-linecap="round" stroke-linejoin="round"/>
<path d="M52.9568 53.1743L53.184 53.6479" stroke="#263238" stroke-linecap="round" stroke-linejoin="round"/>
<path d="M55.6384 51.7312L55.984 51.9712" stroke="#263238" stroke-linecap="round" stroke-linejoin="round"/>
<path d="M46.4864 44.7839L46.64 44.9023" stroke="#263238" stroke-linecap="round" stroke-linejoin="round"/>
<path d="M67.664 80.4289C71.9616 79.6033 74.8384 75.7889 74.0896 71.9137C73.3408 68.0385 69.2576 65.5681 64.96 66.3937C60.6624 67.2193 57.792 71.0401 58.5376 74.9089C59.2832 78.7777 63.36 81.2545 67.664 80.4289ZM65.6224 66.8609C69.2512 66.1633 72.6848 68.1409 73.3024 71.3121C73.92 74.4833 71.4624 77.5905 67.8368 78.2881C64.2112 78.9857 60.7776 77.0081 60.1568 73.8401C59.536 70.6721 61.9968 67.5585 65.6224 66.8609Z" fill="white" stroke="#263238" stroke-linecap="round" stroke-linejoin="round"/>
<path d="M63.8592 80.2144L64.1344 79.5583" stroke="#263238" stroke-linecap="round" stroke-linejoin="round"/>
<path d="M61.5904 79.1422L61.8656 78.7358" stroke="#263238" stroke-linecap="round" stroke-linejoin="round"/>
<path d="M59.5104 77.2255L60.0192 76.7263" stroke="#263238" stroke-linecap="round" stroke-linejoin="round"/>
<path d="M67.2128 80.3742L67.1488 79.7822" stroke="#263238" stroke-linecap="round" stroke-linejoin="round"/>
<path d="M70.5536 79.1776L70.4896 78.8384" stroke="#263238" stroke-linecap="round" stroke-linejoin="round"/>
<path d="M58.4032 73.5649L59.0912 73.4849" stroke="#263238" stroke-linecap="round" stroke-linejoin="round"/>
<path d="M62.9696 67.7536L62.5664 67.2288" stroke="#263238" stroke-linecap="round" stroke-linejoin="round"/>
<path d="M60.0256 70.2336L59.5328 70.0256" stroke="#263238" stroke-linecap="round" stroke-linejoin="round"/>
<path d="M73.152 76.464L72.928 76.3552" stroke="#263238" stroke-linecap="round" stroke-linejoin="round"/>
<path d="M100.675 103.609C104.973 102.784 107.85 98.9727 107.101 95.0975C106.352 91.2223 102.269 88.7519 97.9744 89.5775C93.68 90.4031 90.8032 94.2143 91.5488 98.0895C92.2944 101.965 96.3808 104.438 100.675 103.609ZM98.6368 90.0415C102.262 89.3439 105.696 91.3375 106.317 94.4927C106.938 97.6479 104.474 100.774 100.848 101.472C97.2224 102.169 93.7888 100.176 93.168 97.0207C92.5472 93.8655 95.008 90.7423 98.6368 90.0415Z" fill="white" stroke="#263238" stroke-linecap="round" stroke-linejoin="round"/>
<path d="M96.8704 103.395L97.1456 102.739" stroke="#263238" stroke-linecap="round" stroke-linejoin="round"/>
<path d="M94.6016 102.323L94.8768 101.92" stroke="#263238" stroke-linecap="round" stroke-linejoin="round"/>
<path d="M92.5216 100.41L93.0304 99.9104" stroke="#263238" stroke-linecap="round" stroke-linejoin="round"/>
<path d="M100.224 103.555L100.16 102.966" stroke="#263238" stroke-linecap="round" stroke-linejoin="round"/>
<path d="M103.565 102.358L103.501 102.019" stroke="#263238" stroke-linecap="round" stroke-linejoin="round"/>
<path d="M91.4144 96.7487L92.1024 96.6655" stroke="#263238" stroke-linecap="round" stroke-linejoin="round"/>
<path d="M95.9808 90.9376L95.5776 90.4128" stroke="#263238" stroke-linecap="round" stroke-linejoin="round"/>
<path d="M93.0368 93.4175L92.544 93.2095" stroke="#263238" stroke-linecap="round" stroke-linejoin="round"/>
<path d="M106.163 99.6447L105.939 99.5391" stroke="#263238" stroke-linecap="round" stroke-linejoin="round"/>
<path d="M107.011 69.9041C107.011 70.4385 106.24 70.8961 106.15 71.4081C106.061 71.9201 106.621 72.6209 106.451 73.1137C106.282 73.6065 105.414 73.8113 105.171 74.2753C104.928 74.7393 105.245 75.5553 104.928 75.9873C104.611 76.4193 103.725 76.3297 103.347 76.6977C102.97 77.0657 103.027 77.9489 102.589 78.2529C102.15 78.5569 101.344 78.2081 100.867 78.4417C100.39 78.6753 100.173 79.5297 99.6672 79.6865C99.1616 79.8433 98.4992 79.2545 97.9712 79.3281C97.4432 79.4017 96.976 80.1473 96.4416 80.1409C95.9072 80.1345 95.4496 79.3697 94.9408 79.2801C94.432 79.1905 93.728 79.7505 93.2352 79.5809C92.7424 79.4113 92.5344 78.5441 92.0736 78.3009C91.6128 78.0577 90.7776 78.3745 90.3584 78.0577C89.9392 77.7409 90.016 76.8545 89.6512 76.4769C89.2864 76.0993 88.3968 76.1569 88.096 75.7185C87.7952 75.2801 88.1408 74.4737 87.9072 74.0001C87.6736 73.5265 86.8192 73.3025 86.6624 72.7969C86.5056 72.2913 87.0912 71.6289 87.0176 71.1009C86.944 70.5729 86.1984 70.1057 86.208 69.5713C86.2176 69.0369 86.9792 68.5793 87.0656 68.0705C87.152 67.5617 86.5984 66.8577 86.7648 66.3649C86.9312 65.8721 87.8048 65.6641 88.0448 65.2033C88.2848 64.7425 87.9744 63.9073 88.288 63.4881C88.6016 63.0689 89.4912 63.1457 89.8688 62.7809C90.2464 62.4161 90.1888 61.5265 90.6272 61.2257C91.0656 60.9249 91.8752 61.2705 92.3488 61.0369C92.8224 60.8033 93.0464 59.9489 93.552 59.7921C94.0576 59.6353 94.72 60.2209 95.2448 60.1473C95.7696 60.0737 96.24 59.3281 96.7744 59.3377C97.3088 59.3473 97.7664 60.1089 98.2784 60.1985C98.7904 60.2881 99.4912 59.7281 99.984 59.8785C100.477 60.0289 100.682 60.9185 101.146 61.1585C101.61 61.3985 102.426 61.0849 102.858 61.4017C103.29 61.7185 103.2 62.6017 103.568 62.9793C103.936 63.3569 104.819 63.2993 105.123 63.7377C105.427 64.1761 105.078 64.9857 105.309 65.4593C105.539 65.9329 106.4 66.1569 106.557 66.6625C106.714 67.1681 106.125 67.8305 106.198 68.3553C106.272 68.8801 107.018 69.3697 107.011 69.9041Z" fill="#E49145" stroke="#263238" stroke-miterlimit="10"/>
<path d="M106.96 69.3121C106.96 69.8465 106.189 70.3041 106.099 70.8129C106.01 71.3217 106.57 72.0257 106.403 72.5185C106.237 73.0113 105.363 73.2193 105.123 73.6801C104.883 74.1409 105.194 74.9761 104.877 75.3953C104.56 75.8145 103.677 75.7377 103.299 76.1025C102.922 76.4673 102.979 77.3569 102.541 77.6577C102.102 77.9585 101.293 77.6129 100.819 77.8465C100.346 78.0801 100.122 78.9377 99.616 79.0913C99.1104 79.2449 98.448 78.6625 97.9232 78.7361C97.3984 78.8097 96.928 79.5553 96.3936 79.5457C95.8592 79.5361 95.4016 78.7745 94.8896 78.6881C94.3776 78.6017 93.6768 79.1553 93.184 78.9889C92.6912 78.8225 92.4864 77.9489 92.0224 77.7089C91.5584 77.4689 90.7424 77.7793 90.3104 77.4657C89.8784 77.1521 89.968 76.2625 89.6 75.8849C89.232 75.5073 88.3488 75.5649 88.0448 75.1265C87.7408 74.6881 88.0896 73.8785 87.856 73.4049C87.6224 72.9313 86.768 72.7105 86.6112 72.2017C86.4544 71.6929 87.0432 71.0369 86.9696 70.5089C86.896 69.9809 86.1504 69.5137 86.1568 68.9793C86.1632 68.4449 86.928 67.9873 87.0176 67.4753C87.1072 66.9633 86.5472 66.2625 86.7168 65.7697C86.8864 65.2769 87.7536 65.0721 87.9968 64.6081C88.24 64.1441 87.9232 63.3281 88.24 62.8961C88.5568 62.4641 89.4432 62.5537 89.8208 62.1857C90.1984 61.8177 90.1408 60.9345 90.5792 60.6305C91.0176 60.3265 91.824 60.6753 92.2976 60.4449C92.7712 60.2145 92.9952 59.3537 93.5008 59.2001C94.0064 59.0465 94.6688 59.6289 95.1968 59.5553C95.7248 59.4817 96.192 58.7361 96.7264 58.7425C97.2608 58.7489 97.7184 59.5137 98.2272 59.6033C98.736 59.6929 99.44 59.1329 99.9328 59.3025C100.426 59.4721 100.634 60.3393 101.094 60.5825C101.555 60.8257 102.39 60.5121 102.81 60.8257C103.229 61.1393 103.152 62.0289 103.517 62.4065C103.882 62.7841 104.771 62.7265 105.072 63.1649C105.373 63.6033 105.027 64.4097 105.261 64.8865C105.494 65.3633 106.349 65.5809 106.506 66.0865C106.662 66.5921 106.077 67.2545 106.15 67.7825C106.224 68.3105 106.97 68.7777 106.96 69.3121Z" fill="#E49145" stroke="#263238" stroke-miterlimit="10"/>
<path d="M105.808 69.293C105.808 69.7698 105.123 70.1762 105.043 70.6306C104.963 71.085 105.462 71.709 105.312 72.1442C105.162 72.5794 104.39 72.7842 104.17 73.1778C103.949 73.5714 104.234 74.3298 103.955 74.7042C103.677 75.0786 102.886 75.0242 102.55 75.3442C102.214 75.6642 102.259 76.461 101.875 76.7298C101.491 76.9986 100.765 76.6882 100.346 76.8962C99.9264 77.1042 99.7248 77.8562 99.2736 78.0034C98.8224 78.1506 98.2368 77.6194 97.7696 77.6834C97.3024 77.7474 96.8832 78.413 96.4096 78.4034C95.936 78.3938 95.5264 77.7186 95.072 77.6386C94.6176 77.5586 93.9936 78.0578 93.5552 77.9074C93.1168 77.757 92.9344 76.9858 92.5216 76.765C92.1088 76.5442 91.3696 76.8322 90.9984 76.5506C90.6272 76.269 90.6944 75.4818 90.3584 75.1458C90.0224 74.8098 89.2448 74.8546 88.976 74.4706C88.7072 74.0866 89.0144 73.3634 88.8096 72.941C88.6048 72.5186 87.8496 72.3202 87.7024 71.8722C87.5552 71.4242 88.0832 70.8322 88.0224 70.365C87.9616 69.8978 87.296 69.4786 87.3024 69.005C87.3088 68.5314 87.9872 68.1218 88.0672 67.6674C88.1472 67.213 87.6512 66.589 87.7984 66.1506C87.9456 65.7122 88.7232 65.5298 88.9408 65.117C89.1584 64.7042 88.8768 63.965 89.1584 63.5938C89.44 63.2226 90.2272 63.2898 90.5632 62.9538C90.8992 62.6178 90.8544 61.8402 91.2384 61.5714C91.6224 61.3026 92.3456 61.6098 92.768 61.405C93.1904 61.2002 93.3856 60.445 93.8368 60.2978C94.288 60.1506 94.8736 60.6786 95.344 60.6178C95.8144 60.557 96.2272 59.8882 96.704 59.8946C97.1808 59.901 97.5872 60.5826 98.0384 60.6594C98.4896 60.7362 99.1168 60.2434 99.5552 60.3938C99.9936 60.5442 100.179 61.3154 100.589 61.533C100.998 61.7506 101.741 61.469 102.112 61.7506C102.483 62.0322 102.432 62.8194 102.752 63.1554C103.072 63.4914 103.866 63.4466 104.138 63.8306C104.41 64.2146 104.096 64.9378 104.304 65.3602C104.512 65.7826 105.264 65.9778 105.411 66.429C105.558 66.8802 105.027 67.4658 105.091 67.9362C105.155 68.4066 105.818 68.8162 105.808 69.293Z" fill="white"/>
<path d="M97.3824 67.0848C97.3824 67.0848 97.8944 64.8768 97.6704 64.032C97.4464 63.1872 95.184 62.9984 94.2784 64.0896C93.3728 65.1808 95.2896 67.5104 95.8304 68.064C96.3712 68.6176 96.7424 68.5568 97.3824 67.0848Z" fill="#E49145"/>
<path d="M98.2144 70.5345C98.2144 70.5345 100.035 71.8913 100.896 72.0257C101.757 72.1601 102.842 70.1601 102.202 68.8929C101.562 67.6257 98.6624 68.4481 97.9392 68.7233C97.216 68.9985 97.1232 69.3601 98.2144 70.5345Z" fill="#E49145"/>
<path d="M94.72 69.136C94.72 69.136 92.48 69.4752 91.776 69.9936C91.072 70.512 91.7312 72.688 93.0816 73.1264C94.432 73.5648 95.888 70.9248 96.2048 70.2176C96.5216 69.5104 96.32 69.1904 94.72 69.136Z" fill="#E49145"/>
<path d="M56.736 68.6017C56.9216 68.4161 57.1104 68.2273 57.1072 68.0801C57.1834 67.8578 57.1754 67.6153 57.0848 67.3985C56.9728 67.1841 56.32 67.3985 56.272 67.2001C56.258 66.9815 56.3165 66.7644 56.4384 66.5825C56.5408 66.3777 56.7168 65.7569 56.6464 65.6225C56.576 65.4881 56.5824 65.4465 56.3264 65.3729C56.0704 65.2993 55.4592 65.5905 55.328 65.4337C55.2146 65.2563 55.1744 65.0417 55.216 64.8353C55.216 64.6209 55.2384 64.4225 55.1104 64.3265C54.8872 64.2281 54.6432 64.1863 54.4 64.2049C54.1206 64.2166 53.8418 64.1708 53.5808 64.0705C53.3974 63.953 53.2622 63.7736 53.2 63.5649C53.1168 63.3825 53.0336 63.1937 52.864 63.1329C52.6051 63.0971 52.3416 63.1145 52.0896 63.1841C51.7977 63.2555 51.4955 63.275 51.1968 63.2417C50.9605 63.1834 50.7467 63.0565 50.5824 62.8769C50.4402 62.7177 50.2525 62.606 50.0448 62.5569C49.874 62.5609 49.7056 62.5979 49.5488 62.6657L49.2864 62.7681C49.1904 62.8065 49.0944 62.8481 48.9984 62.8833C48.8084 62.9601 48.6076 63.0065 48.4032 63.0209C48.1312 63.016 47.8636 62.9515 47.6192 62.8321C47.4065 62.7233 47.17 62.6694 46.9312 62.6753C46.8844 62.6829 46.8383 62.6946 46.7936 62.7105C46.6056 62.796 46.4284 62.9034 46.2656 63.0305C46.0691 63.1837 45.854 63.3116 45.6256 63.4113L45.4912 63.4529C45.2023 63.5041 44.9065 63.5041 44.6176 63.4529C44.3622 63.3994 44.0986 63.3994 43.8432 63.4529C43.6291 63.5621 43.4463 63.724 43.312 63.9233C43.1547 64.1413 42.9529 64.3234 42.72 64.4577C42.6788 64.4791 42.636 64.4973 42.592 64.5121C42.3409 64.5929 42.0808 64.6423 41.8176 64.6593C41.6008 64.675 41.3863 64.7136 41.1776 64.7745C41.1337 64.7896 41.0917 64.81 41.0528 64.8353C40.8903 64.9721 40.7778 65.1589 40.7328 65.3665C40.6732 65.5999 40.549 65.8117 40.3744 65.9777C40.2156 66.0966 40.0383 66.1885 39.8496 66.2497L39.5584 66.3489L39.2864 66.4449C39.1296 66.4902 38.9845 66.5688 38.8608 66.6753C38.8098 66.7546 38.7758 66.8435 38.7609 66.9366C38.746 67.0297 38.7506 67.1249 38.7744 67.2161C38.8172 67.4282 38.7855 67.6486 38.6848 67.8401C38.5536 68.0385 37.6704 68.1121 37.4048 68.2657C37.1392 68.4193 37.4304 68.7809 37.3696 68.9281C37.3088 69.0753 37.504 69.1201 37.6128 69.2929C37.7449 69.455 37.8132 69.6599 37.8048 69.8689C37.76 70.0705 37.264 70.2273 37.0752 70.4193C36.8864 70.6113 36.9952 70.8417 36.9984 70.9889C37.0016 71.1361 37.184 71.2545 37.3792 71.3889C37.5744 71.5233 37.7856 71.6737 37.8368 71.8657C37.888 72.0577 37.5424 72.0545 37.4368 72.2689C37.3769 72.5268 37.4097 72.7976 37.5296 73.0337C37.6 73.1649 37.8496 73.2449 38.112 73.3185C38.3565 73.3667 38.5846 73.4769 38.7744 73.6385C38.8868 73.8175 38.9268 74.0326 38.8864 74.2401C38.8864 74.4513 38.864 74.6497 38.9856 74.7457C39.2098 74.8447 39.4547 74.8875 39.6992 74.8705C39.9784 74.8579 40.2571 74.9025 40.5184 75.0017C40.7006 75.1226 40.8361 75.3021 40.9024 75.5105C40.9824 75.6897 41.0688 75.8785 41.2384 75.9361C41.4968 75.976 41.7607 75.9607 42.0128 75.8913C42.3042 75.817 42.6068 75.7964 42.9056 75.8305C43.1394 75.8931 43.3518 76.0181 43.52 76.1921C43.6584 76.3558 43.8477 76.4684 44.0576 76.5121C44.2273 76.5109 44.3951 76.4749 44.5504 76.4065L44.8128 76.3041L45.088 76.1953C45.2822 76.1174 45.4873 76.0699 45.696 76.0545C45.9676 76.0594 46.235 76.1227 46.48 76.2401C46.6924 76.3501 46.9289 76.4051 47.168 76.4001C47.2139 76.3929 47.2589 76.3811 47.3024 76.3649C47.492 76.2805 47.6704 76.173 47.8336 76.0449C48.0366 75.8935 48.2568 75.7668 48.4896 75.6673L48.6208 75.6257C48.9087 75.5744 49.2033 75.5744 49.4912 75.6257C49.7475 75.6808 50.0125 75.6808 50.2688 75.6257C50.4817 75.5148 50.6641 75.3532 50.8 75.1553C50.9569 74.9357 51.1601 74.7533 51.3952 74.6209L51.52 74.5601C51.7738 74.4809 52.0357 74.4305 52.3008 74.4097C52.5176 74.3962 52.7323 74.3586 52.9408 74.2977C52.9833 74.283 53.0241 74.2637 53.0624 74.2401C53.2231 74.1018 53.3352 73.9156 53.3824 73.7089C53.4439 73.4763 53.5678 73.2649 53.7408 73.0977C53.9027 72.9748 54.0846 72.8806 54.2784 72.8193L54.56 72.7201L54.832 72.6305C54.9882 72.5821 55.1329 72.5026 55.2576 72.3969C55.3072 72.317 55.3401 72.2279 55.3544 72.135C55.3687 72.042 55.3641 71.9472 55.3408 71.8561C55.2976 71.6436 55.3305 71.4228 55.4336 71.2321C55.6157 71.0192 55.8388 70.845 56.0896 70.7201C56.336 70.5761 56.592 70.4257 56.6528 70.2785C56.7232 70.0496 56.7084 69.8029 56.6112 69.5841C56.496 69.3985 56.2656 69.4081 56.2912 69.2033C56.3835 68.9668 56.537 68.7592 56.736 68.6017Z" fill="#E49145" stroke="#263238" stroke-miterlimit="10"/>
<path d="M56.6848 68.0033C56.8736 67.8177 57.0624 67.6257 57.056 67.4817C57.0496 67.3377 56.8704 67.2129 56.6784 67.0785C56.4864 66.9441 56.2688 66.7937 56.2208 66.6017C56.2063 66.3831 56.2648 66.1659 56.3872 65.9841C56.4928 65.7793 56.5984 65.5649 56.528 65.4337C56.4576 65.3025 56.208 65.2257 55.9456 65.1489C55.7008 65.1014 55.4726 64.9912 55.2832 64.8289C55.1697 64.6515 55.1296 64.437 55.1712 64.2305C55.1712 64.0161 55.1936 63.8177 55.0688 63.7217C54.8446 63.6231 54.5994 63.5813 54.3552 63.6001C54.0768 63.6121 53.799 63.5664 53.5392 63.4657C53.355 63.3484 53.2188 63.1691 53.1552 62.9601C53.072 62.7777 52.992 62.5889 52.8192 62.5281C52.5613 62.4928 52.2989 62.5102 52.048 62.5793C51.755 62.6512 51.4517 62.6707 51.152 62.6369C50.9167 62.5761 50.7036 62.4496 50.5376 62.2721C50.3953 62.113 50.2077 62.0013 50 61.9521C49.8302 61.9559 49.6628 61.9929 49.5072 62.0609L49.2416 62.1633C49.1456 62.2017 49.0496 62.2433 48.9536 62.2785C48.7638 62.3559 48.5629 62.4023 48.3584 62.4161C48.0874 62.4117 47.8207 62.3472 47.5776 62.2273C47.3648 62.1188 47.1284 62.0649 46.8896 62.0705C46.8426 62.0774 46.7965 62.0892 46.752 62.1057C46.5632 62.1898 46.3858 62.2973 46.224 62.4257C46.0273 62.5788 45.8123 62.7067 45.584 62.8065L45.4528 62.8481C45.1638 62.8994 44.8681 62.8994 44.5792 62.8481C44.324 62.793 44.06 62.793 43.8048 62.8481C43.5903 62.9581 43.4066 63.1198 43.2704 63.3185C43.1139 63.5373 42.9119 63.7196 42.6784 63.8529C42.6375 63.8749 42.5946 63.8931 42.5504 63.9073C42.299 63.987 42.039 64.0364 41.776 64.0545C41.5592 64.0706 41.3447 64.1092 41.136 64.1697C41.0915 64.1835 41.0494 64.204 41.0112 64.2305C40.8487 64.3673 40.7362 64.5542 40.6912 64.7617C40.6329 64.9947 40.5084 65.2059 40.3328 65.3697C40.1761 65.4909 39.9996 65.584 39.8112 65.6449L39.5168 65.7441L39.248 65.8401C39.0903 65.8856 38.9441 65.9642 38.8192 66.0705C38.769 66.1502 38.7355 66.2392 38.7207 66.3321C38.7058 66.4251 38.71 66.52 38.7328 66.6113C38.7786 66.8234 38.7468 67.0448 38.6432 67.2353C38.4665 67.4466 38.2488 67.6197 38.0032 67.7441C37.7568 67.8945 37.504 68.0449 37.44 68.1921C37.376 68.3393 37.4848 68.5121 37.5968 68.6881C37.7294 68.8499 37.7967 69.0553 37.7856 69.2641C37.694 69.4975 37.5441 69.7035 37.3504 69.8625C37.168 70.0449 36.9792 70.2369 36.9792 70.3809C36.9792 70.5249 37.1648 70.6497 37.3632 70.7841C37.5616 70.9185 37.7664 71.0689 37.8176 71.2609C37.8344 71.4798 37.7756 71.6978 37.6512 71.8785C37.5488 72.0865 37.4432 72.2977 37.5104 72.4289C37.5776 72.5601 37.8304 72.6401 38.0928 72.7137C38.3376 72.7613 38.5658 72.8715 38.7552 73.0337C38.8672 73.2129 38.9083 73.4275 38.8704 73.6353C38.8544 73.8465 38.8448 74.0449 38.9696 74.1409C39.1931 74.2383 39.4366 74.2811 39.68 74.2657C39.9592 74.2529 40.238 74.2975 40.4992 74.3969C40.682 74.5165 40.8186 74.6949 40.8864 74.9025C40.9632 75.0849 41.0496 75.2737 41.2064 75.3313C41.4648 75.3713 41.7287 75.3561 41.9808 75.2865C42.2723 75.2129 42.5745 75.1913 42.8736 75.2225C43.1074 75.2868 43.3197 75.4128 43.488 75.5873C43.6264 75.7511 43.8157 75.8637 44.0256 75.9073C44.1953 75.9061 44.363 75.8702 44.5184 75.8017L44.7808 75.6993L45.056 75.5905C45.2512 75.5123 45.4574 75.4648 45.6672 75.4497C45.9378 75.4547 46.2041 75.518 46.448 75.6353C46.661 75.7436 46.8971 75.7985 47.136 75.7953C47.1828 75.7878 47.2289 75.776 47.2736 75.7601C47.4628 75.675 47.6411 75.5676 47.8048 75.4401C48.0026 75.2897 48.2174 75.1629 48.4448 75.0625L48.5792 75.0209C48.8671 74.9697 49.1617 74.9697 49.4496 75.0209C49.7059 75.076 49.9709 75.076 50.2272 75.0209C50.4397 74.9107 50.6212 74.749 50.7552 74.5505C50.9129 74.3317 51.1159 74.1495 51.3504 74.0161C51.3909 73.9955 51.4325 73.9773 51.4752 73.9617C51.7279 73.8825 51.9888 73.8321 52.2528 73.8113C52.4696 73.7978 52.6843 73.7603 52.8928 73.6993C52.937 73.685 52.979 73.6645 53.0176 73.6385C53.178 73.5014 53.2902 73.3163 53.3376 73.1105C53.4002 72.8777 53.5253 72.6664 53.6992 72.4993C53.8611 72.3765 54.043 72.2823 54.2368 72.2209C54.3264 72.1857 54.4224 72.1537 54.5152 72.1217L54.7872 72.0289C54.9437 71.9829 55.0887 71.9044 55.2128 71.7985C55.2624 71.7187 55.2953 71.6296 55.3096 71.5366C55.3239 71.4437 55.3193 71.3488 55.296 71.2577C55.2557 71.0452 55.2884 70.8254 55.3888 70.6337C55.5722 70.4208 55.7963 70.2467 56.048 70.1217C56.2691 70.023 56.4625 69.8713 56.6112 69.6801C56.672 69.5329 56.56 69.3601 56.4544 69.1809C56.3187 69.0208 56.2499 68.8145 56.2624 68.6049C56.3484 68.371 56.494 68.1637 56.6848 68.0033Z" fill="#E49145" stroke="#263238" stroke-miterlimit="10"/>
<path d="M55.5008 68.1185C55.664 67.9553 55.8208 67.7985 55.8208 67.6609C55.8208 67.5233 55.6576 67.4241 55.5008 67.3057C55.344 67.1873 55.1424 67.0593 55.1008 66.8897C55.0887 66.6971 55.1404 66.5059 55.248 66.3457C55.3376 66.1665 55.4336 65.9777 55.3696 65.8625C55.3056 65.7473 55.0816 65.6801 54.8608 65.6161C54.6464 65.5737 54.4461 65.4779 54.2784 65.3377C54.1786 65.1822 54.1431 64.9941 54.1792 64.8129C54.1792 64.6273 54.2016 64.4513 54.0896 64.3681C53.894 64.2801 53.6794 64.2427 53.4656 64.2593C53.2213 64.2705 52.9773 64.2313 52.7488 64.1441C52.5878 64.0394 52.4679 63.8823 52.4096 63.6993C52.3392 63.5393 52.2656 63.3793 52.1152 63.3217C51.8897 63.2873 51.6595 63.3015 51.44 63.3633C51.1827 63.4268 50.9161 63.4441 50.6528 63.4145C50.4463 63.3624 50.2594 63.2512 50.1152 63.0945C49.9884 62.9581 49.8233 62.8632 49.6416 62.8225C49.4927 62.8264 49.3461 62.859 49.2096 62.9185L48.976 63.0081C48.8928 63.0433 48.8096 63.0785 48.7232 63.1073C48.5572 63.1764 48.381 63.2175 48.2016 63.2289C47.9644 63.223 47.7311 63.1674 47.5168 63.0657C47.3298 62.9698 47.1221 62.9215 46.912 62.9249C46.8705 62.9316 46.8298 62.9423 46.7904 62.9569C46.6256 63.0305 46.4699 63.1228 46.3264 63.2321C46.1511 63.3646 45.9583 63.4723 45.7536 63.5521C45.7162 63.5678 45.6777 63.5806 45.6384 63.5905C45.3843 63.6353 45.1244 63.6353 44.8704 63.5905C44.6465 63.545 44.4158 63.545 44.192 63.5905C44.0024 63.6869 43.8405 63.8301 43.7216 64.0065C43.5848 64.1981 43.4079 64.3575 43.2032 64.4737C43.1676 64.4935 43.1301 64.5096 43.0912 64.5217C42.871 64.5914 42.6432 64.6344 42.4128 64.6497C42.2241 64.664 42.0374 64.6983 41.856 64.7521C41.8178 64.7646 41.7812 64.7818 41.7472 64.8033C41.6036 64.9236 41.5035 65.0878 41.4624 65.2705C41.4073 65.4748 41.2965 65.6599 41.1424 65.8049C41.0044 65.91 40.8497 65.9911 40.6848 66.0449L40.4256 66.1345L40.1888 66.2145C40.0508 66.2554 39.9232 66.3252 39.8144 66.4193C39.77 66.4888 39.7402 66.5667 39.727 66.6482C39.7138 66.7296 39.7174 66.8129 39.7376 66.8929C39.7771 67.079 39.7487 67.2731 39.6576 67.4401C39.4995 67.6286 39.3032 67.7813 39.0816 67.8881C38.8672 68.0193 38.6432 68.1505 38.5888 68.2785C38.5344 68.4065 38.6304 68.5633 38.7264 68.7169C38.843 68.8588 38.9023 69.0391 38.8928 69.2225C38.8114 69.4255 38.6805 69.6048 38.512 69.7441C38.352 69.9073 38.192 70.0641 38.192 70.2017C38.192 70.3393 38.3552 70.4385 38.512 70.5569C38.6688 70.6753 38.8672 70.8033 38.912 70.9729C38.9244 71.1655 38.8726 71.3568 38.7648 71.5169C38.6752 71.6961 38.5824 71.8849 38.6432 72.0001C38.704 72.1153 38.9312 72.1825 39.152 72.2497C39.3661 72.2894 39.5665 72.383 39.7344 72.5217C39.8322 72.6792 39.8676 72.8675 39.8336 73.0497C39.8336 73.2353 39.8144 73.4113 39.92 73.4945C40.1208 73.5838 40.3409 73.6212 40.56 73.6033C40.8045 73.5934 41.0484 73.6337 41.2768 73.7217C41.4391 73.825 41.5594 73.9826 41.616 74.1665C41.6864 74.3233 41.76 74.4865 41.9104 74.5409C42.1369 74.5758 42.3682 74.5616 42.5888 74.4993C42.8451 74.4365 43.1103 74.4181 43.3728 74.4449C43.5781 74.4999 43.7641 74.6107 43.9104 74.7649C44.0354 74.9035 44.2013 74.9988 44.384 75.0369C44.5328 75.0359 44.6799 75.0043 44.816 74.9441C44.8928 74.9185 44.9696 74.8865 45.0464 74.8545L45.2864 74.7585C45.4584 74.6905 45.6396 74.6484 45.824 74.6337C46.0616 74.6387 46.2953 74.6955 46.5088 74.8001C46.6961 74.8949 46.9038 74.9421 47.1136 74.9377C47.154 74.9311 47.1937 74.9204 47.232 74.9057C47.3988 74.833 47.5558 74.7394 47.6992 74.6273C47.8768 74.4984 48.0691 74.391 48.272 74.3073L48.3904 74.2721C48.6423 74.2273 48.9001 74.2273 49.152 74.2721C49.3778 74.3193 49.611 74.3193 49.8368 74.2721C50.0245 74.1769 50.1843 74.0347 50.3008 73.8593C50.4388 73.6677 50.6168 73.5083 50.8224 73.3921C50.8578 73.3742 50.8941 73.3582 50.9312 73.3441C51.1528 73.275 51.3814 73.231 51.6128 73.2129C51.8026 73.2011 51.9905 73.1678 52.1728 73.1137C52.211 73.1012 52.2476 73.084 52.2816 73.0625C52.4238 72.9416 52.5227 72.7775 52.5632 72.5953C52.6195 72.3915 52.7301 72.2068 52.8832 72.0609C53.0249 71.9535 53.184 71.8712 53.3536 71.8177C53.4336 71.7857 53.5168 71.7601 53.6 71.7313L53.8368 71.6513C53.9747 71.6105 54.1024 71.5406 54.2112 71.4465C54.2558 71.3771 54.2854 71.2991 54.2981 71.2175C54.3107 71.1359 54.3062 71.0526 54.2848 70.9729C54.2466 70.7854 54.2761 70.5904 54.368 70.4225C54.5284 70.2365 54.7242 70.0843 54.944 69.9745C55.1584 69.8465 55.3824 69.7153 55.4368 69.5873C55.4912 69.4593 55.3952 69.3025 55.3024 69.1521C55.1821 69.0108 55.1213 68.8285 55.1328 68.6433C55.2078 68.4394 55.3346 68.2585 55.5008 68.1185Z" fill="white"/>
<path d="M47.2096 69.6832C47.2096 69.7088 46.9088 72.0032 45.4496 72.5408C45.3432 72.5845 45.2328 72.6177 45.12 72.64C44.7112 72.7065 44.2925 72.6782 43.8964 72.5572C43.5002 72.4363 43.1372 72.2259 42.8352 71.9424C42.5632 71.6384 42.5152 71.328 42.7264 71.0912C43.2256 70.5152 45.1552 69.5424 45.2352 69.4912H45.2512C46.2112 69.1552 46.7008 69.0624 46.9792 69.1712C47.2576 69.28 47.2288 69.4912 47.2096 69.6832ZM46.72 68.6304L46.624 68.672C46.3819 68.7374 46.1269 68.7374 45.8848 68.672C45.8528 68.672 42.4448 67.9584 43.0496 66.752C43.3024 66.2368 44.0096 65.792 44.7008 65.5392C44.8868 65.4704 45.0771 65.4137 45.2704 65.3696C45.8336 65.2416 46.2752 65.2736 46.4832 65.4496C46.9856 65.8848 47.2384 67.3376 47.2512 67.3984V67.4208C47.1936 68.1184 47.04 68.48 46.72 68.6304ZM52.8 68.448C52.7372 68.6159 52.6398 68.7688 52.5141 68.8967C52.3884 69.0246 52.2372 69.1247 52.0704 69.1904C52.0417 69.2033 52.0117 69.213 51.9808 69.2192C51.1008 69.456 49.0112 69.3056 48.9216 69.2992H48.8896C48.0064 69.104 47.632 68.9312 47.5904 68.6944C47.5488 68.4576 47.792 68.288 48.0032 68.1344C48.7607 67.6211 49.5719 67.192 50.4224 66.8544C51.104 66.6016 51.7856 66.48 52.2464 66.72C52.5429 66.882 52.7673 67.1501 52.8747 67.4705C52.9821 67.7909 52.9646 68.14 52.8256 68.448H52.8Z" fill="#E49145"/>
<path d="M76.608 112.682C76.8672 112.714 77.136 112.746 77.248 112.653C77.36 112.56 77.6224 112.544 77.7728 112.215C77.8752 111.994 77.3056 111.607 77.4272 111.45C77.5912 111.305 77.7981 111.219 78.016 111.203C78.3405 111.132 78.6439 110.986 78.9024 110.778C78.96 110.64 79.0016 110.618 78.9024 110.375C78.8032 110.131 78.1984 109.824 78.2368 109.626C78.3067 109.427 78.4513 109.263 78.64 109.168C78.8128 109.043 78.9792 108.931 78.976 108.775C78.9191 108.535 78.8011 108.315 78.6336 108.135C78.4535 107.922 78.3185 107.675 78.2368 107.408C78.2163 107.19 78.2742 106.973 78.4 106.794C78.5123 106.641 78.5594 106.45 78.5312 106.263C78.4019 106.036 78.2263 105.84 78.016 105.687C77.7795 105.5 77.577 105.273 77.4176 105.018C77.3208 104.794 77.2897 104.548 77.328 104.307C77.3618 104.098 77.3305 103.884 77.2384 103.693C77.1311 103.562 76.9996 103.454 76.8512 103.373L76.608 103.229C76.5184 103.178 76.4256 103.127 76.3392 103.072C76.1617 102.969 76.001 102.84 75.8624 102.688C75.7059 102.47 75.5969 102.221 75.5424 101.959C75.4968 101.724 75.3947 101.504 75.2448 101.319C75.2098 101.285 75.1711 101.257 75.1296 101.232C74.9486 101.134 74.7562 101.059 74.5568 101.008C74.3125 100.945 74.0771 100.851 73.856 100.73L73.7408 100.65C73.5202 100.456 73.336 100.224 73.1968 99.9649C73.081 99.731 72.9162 99.5248 72.7136 99.3601C72.4942 99.26 72.2534 99.216 72.0128 99.2321C71.7446 99.2435 71.4771 99.1966 71.2288 99.0945C71.1866 99.0753 71.146 99.0528 71.1072 99.0273C70.8897 98.8778 70.69 98.7039 70.512 98.5089C70.3697 98.3473 70.2086 98.2034 70.032 98.0801C69.9938 98.0535 69.9517 98.033 69.9072 98.0193C69.6992 97.9737 69.482 97.9984 69.2896 98.0897C69.0684 98.1864 68.8243 98.2186 68.5856 98.1825C68.3943 98.1314 68.2127 98.0492 68.048 97.9393L67.7888 97.7697L67.5488 97.6129C67.4158 97.5182 67.2642 97.4528 67.104 97.4209C67.0102 97.4303 66.9192 97.4587 66.8367 97.5043C66.7541 97.55 66.6818 97.612 66.624 97.6865C66.485 97.8543 66.2912 97.9677 66.0768 98.0065C65.8432 98.0257 65.2384 97.3665 64.96 97.2641C64.6816 97.1617 64.5696 97.6033 64.416 97.6449C64.2624 97.6865 64.3456 97.8689 64.2784 98.0641C64.2321 98.2681 64.1125 98.448 63.9424 98.5697C63.7536 98.6593 63.328 98.3649 63.0592 98.3329C62.7904 98.3009 62.6784 98.5313 62.5632 98.6241C62.448 98.7169 62.4672 98.9441 62.4832 99.1713C62.5206 99.3891 62.4881 99.6132 62.3904 99.8113C62.272 99.9649 62.0704 99.6961 61.8272 99.7441C61.584 99.7921 61.3408 100.154 61.28 100.288C61.2192 100.423 61.3184 100.679 61.4144 100.928C61.5283 101.148 61.5834 101.394 61.5744 101.642C61.5046 101.842 61.3601 102.007 61.1712 102.103C60.9984 102.221 60.8352 102.336 60.8352 102.493C60.8952 102.73 61.0115 102.95 61.1744 103.133C61.3584 103.344 61.4948 103.591 61.5744 103.859C61.5923 104.076 61.5359 104.293 61.4144 104.474C61.3573 104.548 61.3161 104.633 61.2936 104.724C61.271 104.815 61.2675 104.909 61.2832 105.002C61.4109 105.229 61.5854 105.426 61.7952 105.581C62.0336 105.764 62.2382 105.987 62.4 106.24C62.4938 106.463 62.5247 106.708 62.4896 106.947C62.4531 107.156 62.4833 107.371 62.576 107.562C62.6832 107.692 62.8147 107.801 62.9632 107.882L63.2064 108.023L63.4624 108.173C63.6443 108.278 63.8085 108.41 63.9488 108.567C64.1124 108.784 64.2271 109.034 64.2848 109.299C64.3298 109.534 64.432 109.754 64.5824 109.939C64.6172 109.97 64.6547 109.998 64.6944 110.023C64.8771 110.122 65.0718 110.197 65.2736 110.247C65.518 110.311 65.7535 110.405 65.9744 110.528L66.0896 110.605C66.3083 110.8 66.4913 111.032 66.6304 111.29C66.7463 111.525 66.9124 111.731 67.1168 111.895C67.3349 111.995 67.5748 112.039 67.8144 112.023C68.0836 112.011 68.3521 112.058 68.6016 112.16L68.72 112.224C68.9376 112.375 69.1373 112.55 69.3152 112.746C69.4601 112.908 69.6221 113.054 69.7984 113.181C69.8366 113.205 69.8774 113.224 69.92 113.239C70.1284 113.282 70.3452 113.256 70.5376 113.165C70.7582 113.07 71.001 113.039 71.2384 113.075C71.4362 113.125 71.6237 113.21 71.792 113.325L72.0384 113.485L72.2784 113.642C72.4123 113.737 72.5651 113.803 72.7264 113.834C72.8198 113.824 72.9103 113.796 72.9923 113.75C73.0743 113.705 73.146 113.643 73.2032 113.568C73.3426 113.399 73.5379 113.286 73.7536 113.248C74.0333 113.26 74.3076 113.329 74.56 113.45C74.7737 113.563 75.0124 113.622 75.2544 113.619C75.4776 113.533 75.6626 113.369 75.776 113.159C75.8496 112.954 75.7024 112.778 75.888 112.685C76.1238 112.622 76.3717 112.621 76.608 112.682Z" fill="#E49145" stroke="#263238" stroke-miterlimit="10"/>
<path d="M77.0464 112.272C77.3088 112.304 77.5744 112.336 77.6864 112.243C77.7984 112.15 77.7856 111.923 77.7696 111.696C77.7277 111.59 77.7139 111.475 77.7293 111.362C77.7448 111.25 77.7891 111.143 77.8579 111.052C77.9267 110.961 78.0178 110.89 78.1223 110.845C78.2268 110.799 78.3411 110.782 78.4544 110.794C78.6816 110.749 78.9152 110.701 78.976 110.563C79.0368 110.426 78.9344 110.176 78.8384 109.923C78.7239 109.702 78.6687 109.455 78.6784 109.206C78.72 108.998 78.9056 108.886 79.0816 108.749C79.2576 108.611 79.4208 108.512 79.4176 108.355C79.3585 108.117 79.2408 107.897 79.0752 107.715C78.8942 107.503 78.7581 107.256 78.6752 106.989C78.6567 106.771 78.7143 106.554 78.8384 106.374C78.8946 106.3 78.9354 106.215 78.9585 106.124C78.9815 106.033 78.9864 105.939 78.9728 105.846C78.8427 105.62 78.6673 105.423 78.4576 105.267C78.2195 105.082 78.0168 104.856 77.8592 104.598C77.7619 104.376 77.7297 104.131 77.7664 103.891C77.8031 103.682 77.7729 103.467 77.68 103.277C77.5733 103.146 77.4417 103.037 77.2928 102.957L77.0464 102.813C76.9568 102.762 76.8672 102.71 76.7808 102.656C76.6029 102.554 76.442 102.424 76.304 102.272C76.1459 102.054 76.0367 101.804 75.984 101.539C75.9386 101.304 75.8352 101.084 75.6832 100.899C75.6493 100.866 75.6117 100.837 75.5712 100.813C75.3894 100.718 75.1972 100.643 74.9984 100.592C74.7538 100.528 74.5183 100.434 74.2976 100.31C74.2574 100.286 74.219 100.26 74.1824 100.23C73.9611 100.037 73.7767 99.805 73.6384 99.5457C73.5204 99.3131 73.3547 99.1082 73.152 98.9441C72.9346 98.8411 72.6943 98.7959 72.4544 98.8129C72.1865 98.8241 71.9193 98.7783 71.6704 98.6785L71.5488 98.6113C71.3312 98.4606 71.1315 98.2856 70.9536 98.0897C70.8089 97.9304 70.6481 97.7867 70.4736 97.6609C70.4347 97.6355 70.3928 97.6151 70.3488 97.6001C70.1398 97.5537 69.9213 97.5784 69.728 97.6705C69.5077 97.7666 69.2649 97.7987 69.0272 97.7633C68.8352 97.7142 68.6532 97.6319 68.4896 97.5201L68.2304 97.3505L67.9904 97.1969C67.8581 97.1008 67.7062 97.0353 67.5456 97.0049C67.4518 97.0129 67.3606 97.0404 67.278 97.0855C67.1953 97.1307 67.123 97.1926 67.0656 97.2673C66.9271 97.4357 66.7331 97.5492 66.5184 97.5873C66.2387 97.5756 65.9643 97.507 65.712 97.3857C65.4965 97.2739 65.2572 97.2157 65.0144 97.2161C64.8608 97.2577 64.7872 97.4529 64.72 97.6449C64.6737 97.8497 64.5528 98.03 64.3808 98.1505C64.1416 98.2215 63.8883 98.2303 63.6448 98.1761C63.3856 98.1441 63.12 98.1121 63.0048 98.2049C62.8896 98.2977 62.9088 98.5249 62.9248 98.7521C62.9627 98.9699 62.9302 99.194 62.832 99.3921C62.6682 99.5398 62.4599 99.6288 62.24 99.6449C62.0128 99.6897 61.7792 99.7377 61.7216 99.8721C61.664 100.006 61.76 100.262 61.856 100.512C61.9686 100.733 62.0237 100.978 62.016 101.226C61.9442 101.424 61.8003 101.589 61.6128 101.686C61.4368 101.805 61.2768 101.92 61.2736 102.077C61.3347 102.315 61.4522 102.534 61.616 102.717C61.797 102.93 61.9331 103.177 62.016 103.443C62.0346 103.661 61.9782 103.879 61.856 104.061C61.799 104.134 61.7578 104.219 61.7353 104.309C61.7127 104.4 61.7091 104.494 61.7248 104.586C61.8532 104.813 62.0275 105.012 62.2368 105.168C62.4738 105.353 62.6764 105.578 62.8352 105.834C62.9312 106.056 62.9633 106.301 62.928 106.541C62.8894 106.75 62.9198 106.965 63.0144 107.155C63.12 107.288 63.2518 107.396 63.4016 107.475L63.6448 107.619C63.7312 107.667 63.8144 107.718 63.8976 107.77C64.0796 107.874 64.2447 108.006 64.3872 108.16C64.5466 108.378 64.6558 108.628 64.7072 108.893C64.7532 109.128 64.8565 109.348 65.008 109.533C65.0427 109.565 65.0802 109.594 65.12 109.619C65.3026 109.715 65.4959 109.79 65.696 109.84C65.9412 109.905 66.1776 110 66.4 110.122C66.4384 110.147 66.4768 110.173 66.512 110.202C66.7313 110.395 66.9144 110.626 67.0528 110.883C67.1708 111.118 67.3378 111.324 67.5424 111.488C67.7605 111.589 68.0004 111.633 68.24 111.616C68.5091 111.607 68.7772 111.654 69.0272 111.754C69.0656 111.776 69.104 111.795 69.1424 111.821C69.3624 111.97 69.5634 112.145 69.7408 112.342C69.8849 112.504 70.047 112.649 70.224 112.774C70.2629 112.798 70.3035 112.818 70.3456 112.835C70.5541 112.875 70.7699 112.849 70.9632 112.762C71.1834 112.666 71.4263 112.633 71.664 112.669C71.8596 112.722 72.0454 112.806 72.2144 112.918L72.464 113.082L72.704 113.235C72.837 113.333 72.99 113.399 73.152 113.43C73.3312 113.43 73.472 113.299 73.6288 113.162C73.7674 112.993 73.9614 112.88 74.176 112.842C74.4557 112.854 74.73 112.922 74.9824 113.043C75.1978 113.156 75.437 113.215 75.68 113.216C75.8336 113.174 75.904 112.976 75.9744 112.787C76.0175 112.58 76.1391 112.398 76.3136 112.278C76.5533 112.214 76.8056 112.212 77.0464 112.272Z" fill="#E49145" stroke="#263238" stroke-miterlimit="10"/>
<path d="M76.2272 111.411C76.4544 111.437 76.688 111.466 76.7872 111.386C76.8864 111.306 76.8736 111.111 76.8608 110.903C76.8237 110.81 76.8113 110.709 76.8248 110.61C76.8383 110.511 76.8773 110.417 76.9378 110.337C76.9984 110.257 77.0786 110.195 77.1705 110.156C77.2624 110.116 77.363 110.101 77.4624 110.112C77.6576 110.074 77.8624 110.032 77.9168 109.911C77.9712 109.789 77.8816 109.571 77.7984 109.357C77.6974 109.159 77.6489 108.939 77.6576 108.717C77.6928 108.538 77.856 108.426 78.0096 108.317C78.1632 108.208 78.3072 108.109 78.304 107.971C78.2521 107.763 78.1499 107.571 78.0064 107.411C77.8458 107.225 77.7259 107.007 77.6544 106.771C77.6374 106.581 77.6884 106.39 77.7984 106.234C77.8961 106.099 77.9374 105.931 77.9136 105.767C77.8 105.568 77.6463 105.396 77.4624 105.261C77.2555 105.097 77.078 104.899 76.9376 104.675C76.8534 104.479 76.8257 104.263 76.8576 104.051C76.8889 103.869 76.862 103.681 76.7808 103.514C76.6872 103.398 76.572 103.301 76.4416 103.229L76.2272 103.104L75.9904 102.967C75.836 102.876 75.6958 102.762 75.5744 102.631C75.4326 102.44 75.3323 102.222 75.28 101.991C75.2415 101.784 75.1513 101.59 75.0176 101.427C74.9871 101.4 74.9539 101.375 74.9184 101.354C74.7597 101.268 74.5909 101.202 74.416 101.159C74.2014 101.103 73.9949 101.021 73.8016 100.912C73.7662 100.891 73.732 100.867 73.6992 100.842C73.5054 100.672 73.3438 100.468 73.2224 100.24C73.1199 100.036 72.9748 99.8557 72.7968 99.7122C72.605 99.6227 72.3936 99.583 72.1824 99.597C71.9473 99.6067 71.7128 99.5663 71.4944 99.4786L71.3888 99.421C71.1987 99.288 71.0238 99.1346 70.8672 98.9634C70.7408 98.8223 70.5991 98.6956 70.4448 98.5858C70.4112 98.5636 70.3745 98.5463 70.336 98.5346C70.153 98.4932 69.9614 98.5146 69.792 98.5954C69.5991 98.6805 69.3858 98.7083 69.1776 98.6754C69.0093 98.6312 68.8493 98.5599 68.704 98.4642L68.4768 98.3138L68.2656 98.1794C68.1493 98.0952 68.0161 98.0373 67.8752 98.0098C67.7933 98.0175 67.7138 98.0419 67.6417 98.0815C67.5696 98.1211 67.5064 98.1751 67.456 98.2402C67.3344 98.3867 67.1639 98.4845 66.976 98.5154C66.7305 98.5073 66.4894 98.4474 66.2688 98.3394C66.0792 98.2406 65.8682 98.1901 65.6544 98.1922C65.52 98.2274 65.456 98.397 65.3952 98.5666C65.3547 98.7458 65.25 98.9041 65.1008 99.0114C64.8927 99.072 64.6727 99.0797 64.4608 99.0338C64.275 98.9835 64.0781 98.9924 63.8976 99.0594C63.8016 99.1362 63.8144 99.3314 63.8272 99.5394C63.8632 99.7339 63.8351 99.9349 63.7472 100.112C63.6028 100.242 63.4192 100.32 63.2256 100.333C63.0304 100.371 62.8256 100.413 62.7712 100.531C62.7168 100.65 62.8064 100.874 62.8896 101.088C62.9913 101.286 63.0398 101.506 63.0304 101.728C62.9662 101.902 62.8396 102.046 62.6752 102.131C62.5248 102.234 62.3808 102.336 62.3808 102.474C62.4341 102.681 62.5362 102.873 62.6784 103.034C62.8396 103.22 62.9596 103.438 63.0304 103.674C63.0464 103.865 62.9968 104.056 62.8896 104.215C62.8402 104.28 62.8045 104.355 62.7847 104.435C62.765 104.515 62.7614 104.597 62.7744 104.679C62.8877 104.878 63.0414 105.051 63.2256 105.187C63.4323 105.35 63.6098 105.547 63.7504 105.77C63.8344 105.966 63.8621 106.182 63.8304 106.394C63.7973 106.577 63.8243 106.765 63.9072 106.931C63.9993 107.049 64.1148 107.146 64.2464 107.216L64.4608 107.341L64.6816 107.472C64.8416 107.564 64.9862 107.681 65.1104 107.818C65.2544 108.007 65.3549 108.225 65.4048 108.458C65.4439 108.664 65.5341 108.858 65.6672 109.021C65.6977 109.049 65.7309 109.073 65.7664 109.095C65.9264 109.18 66.0962 109.245 66.272 109.29C66.4862 109.348 66.6925 109.431 66.8864 109.539C66.9217 109.56 66.9559 109.582 66.9888 109.607C67.1807 109.777 67.341 109.979 67.4624 110.205C67.5655 110.411 67.7117 110.592 67.8912 110.736C68.0817 110.826 68.2924 110.865 68.5024 110.848C68.7388 110.84 68.9743 110.881 69.1936 110.97C69.2294 110.986 69.2637 111.005 69.296 111.027C69.4886 111.158 69.6648 111.312 69.8208 111.485C69.9472 111.627 70.0888 111.755 70.2432 111.866C70.2778 111.886 70.3142 111.903 70.352 111.917C70.5345 111.954 70.724 111.931 70.8928 111.853C71.0862 111.77 71.2989 111.742 71.5072 111.773C71.6841 111.818 71.8512 111.895 72 112L72.2208 112.141L72.432 112.275C72.5472 112.361 72.6809 112.42 72.8224 112.445C72.9824 112.445 73.1136 112.333 73.2416 112.211C73.3648 112.067 73.5347 111.971 73.7216 111.939C73.9676 111.951 74.2089 112.011 74.432 112.115C74.6191 112.215 74.828 112.267 75.04 112.266C75.1776 112.231 75.2384 112.055 75.3024 111.888C75.3395 111.708 75.4451 111.55 75.5968 111.447C75.8003 111.38 76.0176 111.368 76.2272 111.411Z" fill="white"/>
<path d="M69.8848 105.843C69.8624 105.843 67.872 107.037 66.5504 106.218C66.449 106.155 66.3546 106.083 66.2688 106C65.9618 105.719 65.7243 105.37 65.5749 104.981C65.4255 104.593 65.3684 104.175 65.408 103.76C65.4816 103.36 65.6992 103.136 66.0128 103.152C66.7744 103.19 68.7264 104.112 68.8096 104.147H68.8256C69.6768 104.685 70.0576 105.024 70.1408 105.312C70.224 105.6 70.048 105.741 69.8848 105.843ZM70.4224 104.819C70.3905 104.804 70.3595 104.787 70.3296 104.768C70.1252 104.623 69.9638 104.425 69.8624 104.195C69.8624 104.166 68.304 101.046 69.632 100.774C70.1952 100.659 70.9728 100.934 71.6064 101.328C71.7749 101.431 71.9363 101.546 72.0896 101.67C72.5376 102.038 72.7872 102.403 72.7744 102.678C72.7424 103.341 71.7536 104.435 71.712 104.483C71.1104 104.867 70.7424 104.96 70.4224 104.819ZM74.3168 109.507C74.1459 109.56 73.9658 109.577 73.788 109.557C73.6102 109.538 73.4383 109.481 73.2832 109.392L73.2032 109.338C72.4768 108.79 71.3088 107.05 71.2576 106.976L71.2416 106.95C70.8512 106.134 70.7552 105.731 70.9216 105.552C71.088 105.373 71.3664 105.462 71.616 105.533C72.4914 105.809 73.3338 106.18 74.128 106.64C74.7456 107.021 75.2608 107.485 75.3568 107.994C75.4078 108.331 75.3287 108.675 75.1356 108.956C74.9425 109.237 74.6498 109.434 74.3168 109.507Z" fill="#E49145"/>
<path d="M136.4 13.6447C134.432 7.3599 130.957 2.8479 128.64 3.5743C128.436 3.63891 128.246 3.74211 128.08 3.8783L84.1024 22.7583L91.2288 45.5295L135.766 26.3295C138.083 25.6191 138.368 19.9327 136.4 13.6447Z" fill="#E49145" stroke="#263238" stroke-miterlimit="10"/>
<path d="M91.2298 45.5334C93.5472 44.8081 93.8305 39.1229 91.8624 32.8351C89.8944 26.5474 86.4203 22.0382 84.1029 22.7635C81.7855 23.4889 81.5022 29.1741 83.4703 35.4619C85.4383 41.7496 88.9124 46.2588 91.2298 45.5334Z" fill="#263238" stroke="#263238" stroke-miterlimit="10"/>
<path d="M90.0992 33.7246C88.8192 29.587 86.5184 26.6206 84.9952 27.0974C84.8604 27.1403 84.7346 27.2076 84.624 27.2958L81.6 28.675L82.1056 30.2974C81.9872 31.8366 82.2592 33.9038 82.9408 36.0798C83.6224 38.2558 84.576 40.1086 85.552 41.3054L86.288 43.6574L89.6896 42.0798C91.2 41.5998 91.3952 37.859 90.0992 33.7246Z" fill="#E49145" stroke="#263238" stroke-miterlimit="10"/>
<path d="M86.6976 35.3023C87.9936 39.4399 87.808 43.1807 86.2816 43.6575C84.7552 44.1343 82.4704 41.1679 81.1616 37.0303C79.8528 32.8927 80.0672 29.1519 81.6 28.6751C83.1328 28.1983 85.4048 31.1647 86.6976 35.3023Z" fill="#263238" stroke="#263238" stroke-miterlimit="10"/>
<path d="M84.6688 29.1616L84.1824 29.3952" stroke="#263238" stroke-miterlimit="10"/>
<path d="M86.8736 28.1023L85.104 28.9535" stroke="#263238" stroke-miterlimit="10"/>
<path d="M88.3104 29.7151L85.6192 31.0079" stroke="#263238" stroke-miterlimit="10"/>
<path d="M89.232 31.7664L86.5408 33.0592" stroke="#263238" stroke-miterlimit="10"/>
<path d="M88.1792 35.427L87.3856 35.8078" stroke="#263238" stroke-miterlimit="10"/>
<path d="M90.0768 34.5151L88.8224 35.1167" stroke="#263238" stroke-miterlimit="10"/>
<path d="M84.4576 36.2336C83.9712 34.6816 83.1136 33.568 82.5376 33.7472C82.487 33.7632 82.4402 33.7893 82.4 33.824L76.64 38.3264L77.2512 40.2752L84.3008 39.36C84.8736 39.1936 84.944 37.7888 84.4576 36.2336Z" fill="#E49145" stroke="#263238" stroke-miterlimit="10"/>
<path d="M77.296 39.1872C77.4656 39.728 77.44 40.2144 77.2416 40.2752C77.0432 40.336 76.7456 39.9552 76.576 39.4144C76.4064 38.8736 76.432 38.3872 76.6304 38.3264C76.8288 38.2656 77.12 38.6496 77.296 39.1872Z" fill="#E49145" stroke="#263238" stroke-miterlimit="10"/>
<path d="M52.5312 88.0415C52.5312 88.0415 52.5536 86.7615 53.8112 87.0271C55.0688 87.2927 55.7312 89.7055 56.3904 91.2127C57.0496 92.7199 59.552 95.1775 61.8624 94.5247C64.1728 93.8719 63.9904 91.1039 65.84 90.6847C67.6896 90.2655 68.5856 91.7663 69.36 93.2767C70.1344 94.7871 70.4608 96.9599 72.32 96.7647C74.1792 96.5695 74.7584 95.4207 74.7584 95.4207C74.7584 95.4207 71.8304 96.5407 71.1136 93.0591C70.1824 88.5567 66.72 87.4943 65.5456 88.9727C64.3712 90.4511 64.224 91.9135 62.8288 92.6975C61.4336 93.4815 59.6032 92.9887 58.5888 91.5935C57.5744 90.1983 55.9328 85.4399 54.8608 84.7999C53.7888 84.1599 53.5808 84.7839 53.5808 84.7839C53.5808 84.7839 51.52 85.9519 52.5312 88.0415Z" fill="#263238" stroke="#263238" stroke-linecap="round" stroke-linejoin="round"/>
<path d="M73.2352 97.139C72.7777 97.1374 72.3271 97.0277 71.92 96.819C71.008 96.3454 70.6816 95.219 70.2656 93.8014C69.6 91.5134 68.9536 89.7534 67.2128 89.619C66.5728 89.5678 66.2816 89.939 65.6128 91.219C64.9728 92.435 64.0832 94.099 61.9872 94.1342C58.3264 94.2078 57.1168 91.2286 56.2272 89.0686C55.6256 87.5998 55.1072 86.3326 54.1344 86.0574C53.4944 85.8782 53.3344 85.8302 52.7648 87.6222C52.4096 88.739 52.0064 90.003 50.8736 90.6878C49.8336 91.3278 48.5568 91.1966 47.4624 90.3678C45.9808 89.2542 44.752 86.6878 45.5424 83.6894C45.579 83.5528 45.6421 83.4248 45.7281 83.3126C45.8141 83.2004 45.9214 83.1063 46.0439 83.0356C46.1663 82.9648 46.3014 82.9189 46.4416 82.9004C46.5818 82.8819 46.7242 82.8912 46.8608 82.9278C46.9974 82.9644 47.1254 83.0275 47.2376 83.1135C47.3498 83.1996 47.4439 83.3068 47.5146 83.4293C47.5854 83.5517 47.6313 83.6869 47.6498 83.827C47.6683 83.9672 47.659 84.1096 47.6224 84.2462C47.1008 86.1886 47.7952 87.9326 48.7456 88.6462C49.0144 88.851 49.408 89.0462 49.7536 88.8382C50.192 88.5726 50.4544 87.7534 50.7136 86.963C51.136 85.6446 51.9168 83.187 54.72 83.9806C56.7008 84.5406 57.5072 86.5086 58.2208 88.2462C59.1808 90.579 59.8688 92.0126 61.952 91.9742C62.6976 91.9742 63.0592 91.427 63.7088 90.2014C64.3584 88.9758 65.2544 87.2862 67.392 87.4558C70.7552 87.715 71.712 91.0046 72.3456 93.1806C72.5184 93.779 72.7808 94.675 72.9856 94.915C73.1241 94.973 73.2751 94.9943 73.4242 94.9769C73.5733 94.9596 73.7154 94.9041 73.8368 94.8158C74.1568 94.5982 75.1744 93.6126 74.7968 90.0414C74.2272 84.419 76.1024 42.1822 76.1184 41.155C76.1184 40.8574 76.256 39.7278 76.7584 39.5262L76.9696 39.4558C77.264 39.4558 77.2224 39.5134 77.2192 39.811C77.2192 40.0606 76.384 84.3262 76.9408 89.8238C77.3696 94.0606 76.1408 95.8462 75.0208 96.5982C74.4957 96.9585 73.872 97.1474 73.2352 97.139Z" fill="white" stroke="#263238" stroke-linecap="round" stroke-linejoin="round"/>
<path d="M72.9216 96.3903C72.9216 96.3903 74.1056 97.0303 75.4816 95.3791C76.4416 94.1887 76.4416 92.5855 76.4416 91.5391" stroke="#263238" stroke-linecap="round" stroke-linejoin="round"/>
<path d="M76.4544 90.5503L76.3424 88.7263" stroke="#263238" stroke-linecap="round" stroke-linejoin="round"/>
<path d="M48.4928 90.2144C48.7089 90.293 48.9317 90.3519 49.1584 90.3904C50.8608 90.688 51.7184 89.1104 51.7184 89.1104" stroke="#263238" stroke-linecap="round" stroke-linejoin="round"/>
<path d="M46.72 88.8096C46.8792 89.0626 47.0731 89.292 47.296 89.4912" stroke="#263238" stroke-linecap="round" stroke-linejoin="round"/>
<path d="M61.072 93.4175C61.2352 93.4463 61.4112 93.4719 61.6064 93.4879C62.976 93.6127 63.6416 93.0208 63.6416 93.0208" stroke="#263238" stroke-linecap="round" stroke-linejoin="round"/>
<path d="M59.6448 92.8767C59.7888 92.9827 59.9458 93.0699 60.112 93.1359" stroke="#263238" stroke-linecap="round" stroke-linejoin="round"/>
<path d="M125.536 58.2879C125.536 58.2879 127.654 57.6479 128.381 57.5423C129.107 57.4367 130.822 57.5135 131.03 56.8607C131.238 56.2079 128.15 55.0975 127.434 55.0879C127.166 55.0662 126.899 55.129 126.669 55.2674C126.44 55.4057 126.259 55.6127 126.154 55.8591C125.952 56.2495 124.928 58.3423 124.928 58.3423L125.536 58.2879Z" fill="#E49145" stroke="#263238" stroke-miterlimit="10"/>
<path d="M142.934 74.784C142.678 74.384 139.462 73.5424 139.136 73.4048C138.81 73.2672 136.198 71.5104 135.027 70.6368C133.856 69.7632 129.622 66.4608 128.192 65.1968C126.762 63.9328 123.814 62.7552 123.814 62.7552C123.814 62.7552 128.029 54.8448 129.286 50.5952C130.544 46.3456 130.4 42.832 130.157 41.5776C130.157 41.5776 125.357 41.0368 122.336 40.0672C120.513 39.4763 118.825 38.5301 117.37 37.2832L116.368 38.1248C116.368 38.1248 114.16 40.1312 110.576 45.8048C108.27 49.4441 106.766 53.5326 106.163 57.7984C106.083 58.5888 108.234 60.0736 109.363 60.224C110.493 60.3744 115.046 59.264 115.248 59.1968C115.45 59.1296 117.293 58.9664 117.293 58.9664C117.293 58.9664 116.211 64.816 116.854 65.8144C117.498 66.8128 119.136 67.3024 119.136 67.3024C119.136 67.3024 134.966 74.8768 135.882 75.4848C136.797 76.0928 138.477 78.0448 138.477 78.0448C138.477 78.0448 139.872 81.4272 140.397 82.688C140.922 83.9488 141.014 85.1392 141.677 84.9504C142.339 84.7616 143.168 82.3904 143.277 80.4288C143.386 78.4672 143.194 75.2 142.934 74.784ZM118 55.4624L114.246 55.1424L119.014 49.68L119.654 50.6144L118 55.4624Z" fill="#263238" stroke="#263238" stroke-linecap="round" stroke-linejoin="round"/>
<path d="M118.573 49.3569L116.541 47.0657" stroke="#6E6E6E" stroke-linecap="round" stroke-linejoin="round"/>
<path d="M118 55.4624L117.427 58.288" stroke="#6E6E6E" stroke-linecap="round" stroke-linejoin="round"/>
<path d="M114.24 55.1392C114.24 55.1392 112.426 57.4176 111.68 57.9328" stroke="#6E6E6E" stroke-linecap="round" stroke-linejoin="round"/>
<path d="M142.934 74.7841C142.678 74.3841 139.462 73.5425 139.136 73.4049C138.88 73.2993 137.258 72.2209 135.994 71.3313C135.968 72.6154 135.472 73.8455 134.598 74.7873C135.28 75.1329 135.738 75.3729 135.878 75.4625C136.79 76.0705 138.474 78.0225 138.474 78.0225C138.474 78.0225 139.869 81.4049 140.394 82.6657C140.918 83.9265 141.011 85.1169 141.674 84.9281C142.336 84.7393 143.165 82.3681 143.274 80.4065C143.382 78.4449 143.194 75.2001 142.934 74.7841Z" fill="white" stroke="#263238" stroke-linecap="round" stroke-linejoin="round"/>
<path d="M139.619 73.5583C139.875 74.2687 140.234 75.4304 140.083 75.8592C139.875 76.448 139.28 76.704 138.678 77.2224C138.484 77.3745 138.356 77.5957 138.32 77.84L138.467 78.0096C138.467 78.0096 139.862 81.392 140.387 82.6528C140.912 83.9136 141.005 85.1039 141.667 84.9151C142.33 84.7263 143.158 82.3551 143.267 80.3935C143.376 78.4319 143.219 75.184 142.947 74.784C142.72 74.464 140.614 73.8559 139.619 73.5583Z" fill="#E49145" stroke="#263238" stroke-miterlimit="10"/>
<path d="M122.691 9.78885C122.691 9.78885 119.19 6.66245 118.368 6.35525C117.546 6.04805 115.488 6.96645 113.45 7.82405C111.411 8.68165 104.49 13.2064 104.49 13.2064C104.49 13.2064 101.248 14.5696 100.486 14.8064C100.075 14.9539 99.7055 15.1971 99.4072 15.516C99.1089 15.8348 98.8909 16.2202 98.7712 16.64C98.6016 17.4144 98.192 17.4912 98.8608 17.4496C99.5296 17.408 100.579 16.5472 100.781 16.5088C100.982 16.4704 103.539 16.2784 103.539 16.2784C103.539 16.2784 102.595 17.3504 102.544 17.7408C102.493 18.1312 103.309 17.9776 104.013 17.2064C104.717 16.4352 105.344 16.1888 105.677 15.7024C105.953 15.2432 106.195 14.764 106.4 14.2688C106.4 14.2688 113.149 12.0288 113.642 11.8464C114.134 11.664 116.707 10.7936 116.707 10.7936C116.707 10.7936 118.605 13.6736 119.699 15.4144C120.794 17.1552 120.902 18.4 120.902 18.4C120.902 18.4 119.325 22.1344 118.755 24.7616C118.186 27.3888 118.627 32.6688 118.611 33.7888C118.595 34.9088 116.442 37.4464 116.371 38.1056C116.301 38.7648 117.523 40.2337 119.35 41.3825C121.178 42.5312 124.326 43.44 125.91 43.4656C127.494 43.4912 130.269 42.8769 130.547 42.0257C130.826 41.1744 130.886 37.2832 130.902 36.2944C130.918 35.3056 130.694 32.9952 131.05 31.4208C131.405 29.8464 132.109 27.0208 131.091 24.6304C130.074 22.24 129.062 19.6544 129.062 19.6544C129.062 19.6544 123.514 12.1824 123.453 11.9744C123.392 11.7664 122.691 9.78885 122.691 9.78885Z" fill="white" stroke="#263238" stroke-linecap="round" stroke-linejoin="round"/>
<path d="M98.8256 16.8448C98.8256 16.8448 99.8912 15.7024 100.128 15.5296C100.365 15.3568 101.936 14.9792 101.936 14.9792" stroke="#263238" stroke-linecap="round" stroke-linejoin="round"/>
<path d="M131.088 24.64C130.074 22.2496 129.059 19.664 129.059 19.664C129.059 19.664 123.51 12.192 123.45 11.984C123.389 11.776 122.691 9.79837 122.691 9.79837C122.691 9.79837 119.19 6.67197 118.368 6.36477C117.546 6.05757 115.488 6.97597 113.45 7.83357C112.368 8.28797 109.93 9.76957 107.853 11.0624L109.181 13.3536C111.101 12.7136 113.366 11.9616 113.645 11.8496C114.138 11.648 116.71 10.7968 116.71 10.7968C116.71 10.7968 118.608 13.6768 119.702 15.4176C120.797 17.1584 120.906 18.4032 120.906 18.4032C120.906 18.4032 119.328 22.1376 118.758 24.7648C118.189 27.392 118.63 32.672 118.614 33.792C118.598 34.912 116.445 37.4496 116.374 38.1088C116.304 38.768 117.526 40.2368 119.354 41.3856C121.181 42.5344 124.33 43.4432 125.914 43.4688C127.498 43.4944 130.272 42.88 130.55 42.0288C130.829 41.1776 130.89 37.2864 130.906 36.2976C130.922 35.3088 130.698 32.9984 131.053 31.424C131.408 29.8496 132.106 27.0144 131.088 24.64Z" fill="#E4CB45" stroke="#263238" stroke-linecap="round" stroke-linejoin="round"/>
<path d="M119.635 31.2385C119.635 31.2385 121.693 35.0337 122.902 36.4897L119.635 31.2385Z" fill="white"/>
<path d="M119.635 31.2385C119.635 31.2385 121.693 35.0337 122.902 36.4897" stroke="#263238" stroke-linecap="round" stroke-linejoin="round"/>
<path d="M122.88 37.6514C123.034 37.8018 123.2 37.9426 123.344 38.0706L122.88 37.6514Z" fill="white"/>
<path d="M122.88 37.6514C123.034 37.8018 123.2 37.9426 123.344 38.0706" stroke="#263238" stroke-linecap="round" stroke-linejoin="round"/>
<path d="M120.941 35.0913C121.395 35.8457 121.913 36.5598 122.49 37.2257L120.941 35.0913Z" fill="white"/>
<path d="M120.941 35.0913C121.395 35.8457 121.913 36.5598 122.49 37.2257" stroke="#263238" stroke-linecap="round" stroke-linejoin="round"/>
<path d="M121.856 16.7617C121.856 16.7617 122.144 15.1201 121.632 14.2017C121.12 13.2833 120.701 10.6273 121.632 9.32169C122.563 8.01609 125.075 8.45449 125.075 8.45449C125.075 8.45449 126.16 6.49609 128.336 6.53449C130.512 6.57289 131.795 8.69769 131.795 8.69769C131.795 8.69769 134.883 5.17769 139.197 7.50089C143.51 9.82409 142.752 15.9969 142.752 15.9969C142.752 15.9969 146.24 17.7505 145.92 20.8417C145.6 23.9329 144.579 26.2817 140.688 26.3617C136.797 26.4417 137.702 23.3601 136.083 21.4081C134.464 19.4561 132.301 18.9089 131.165 19.8081C130.456 20.3937 129.883 21.1263 129.485 21.9553C129.485 21.9553 129.805 18.6657 127.706 17.7729C125.606 16.8801 123.546 17.5073 123.354 17.7729C123.112 18.0161 122.844 18.2309 122.554 18.4129L121.856 16.7617Z" fill="#263238" stroke="#263238" stroke-linecap="round" stroke-linejoin="round"/>
<path d="M126.285 14.9666C126.56 15.3719 126.738 15.835 126.806 16.3202" stroke="#787878" stroke-linecap="round" stroke-linejoin="round"/>
<path d="M125.088 8.44165C124.458 9.41811 124.14 10.5632 124.176 11.7249C124.243 12.8929 125.162 13.5744 125.901 14.4544" stroke="#787878" stroke-linecap="round" stroke-linejoin="round"/>
<path d="M138.17 17.5295C138.24 17.6095 138.314 17.6831 138.384 17.7535C139.683 19.0335 142.125 18.8031 142.544 16.9631" stroke="#787878" stroke-linecap="round" stroke-linejoin="round"/>
<path d="M128.272 15.3602C128.272 15.3602 129.488 13.469 132.653 13.5842C135.165 13.677 136.493 15.4562 137.571 16.8226" stroke="#787878" stroke-linecap="round" stroke-linejoin="round"/>
<path d="M144.781 19.84C144.704 19.5935 144.584 19.3627 144.426 19.1584" stroke="#787878" stroke-linecap="round" stroke-linejoin="round"/>
<path d="M131.546 16.7201C131.546 16.7201 134.474 15.1201 136.726 18.3201C138.979 21.5201 137.894 23.7601 141.645 24.0801C144.051 24.2881 144.912 22.7105 144.966 21.2353" stroke="#787878" stroke-linecap="round" stroke-linejoin="round"/>
<path d="M128.554 11.9968C128.466 11.9175 128.391 11.8259 128.33 11.7248C127.818 10.8608 127.981 8.95037 129.61 9.24157" stroke="#787878" stroke-linecap="round" stroke-linejoin="round"/>
<path d="M131.933 9.08154C131.933 9.08154 132.573 10.5407 131.562 11.6415C131.306 11.9223 130.987 12.1379 130.632 12.2704C130.276 12.4029 129.894 12.4484 129.517 12.4031" stroke="#787878" stroke-linecap="round" stroke-linejoin="round"/>
<path d="M122.56 22.6401C122.56 22.6401 121.85 25.7921 123.085 26.9345C124.32 28.0769 126.253 26.6561 127.344 24.3745L122.56 22.6401Z" fill="white" stroke="#263238" stroke-linecap="round" stroke-linejoin="round"/>
<path d="M130.218 20.6625C130.218 20.6625 131.069 19.4305 131.478 19.7025C131.888 19.9745 131.184 20.9441 130.618 21.5585C130.051 22.1729 129.779 22.1665 129.779 22.1665L130.218 20.6625Z" fill="white" stroke="#263238" stroke-linecap="round" stroke-linejoin="round"/>
<path d="M129.891 19.4784L130.48 17.28C130.499 16.1024 129.274 15.8208 128.368 16C127.838 16.1121 127.324 16.2906 126.838 16.5312C126.838 16.5312 125.738 15.2896 124.784 15.1136C123.686 14.9088 122.829 15.344 122.816 16.0352C122.777 16.5579 122.652 17.0704 122.445 17.552L122.189 16.3712C122.189 16.3712 121.987 20.2464 122.109 21.2864C122.23 22.3264 122.826 26 125.149 25.9712C127.085 25.9488 129.494 22.5824 129.853 21.8944C130.061 21.4944 130.23 20.3904 130.342 19.3056L129.891 19.4784Z" fill="white" stroke="#263238" stroke-linecap="round" stroke-linejoin="round"/>
<path d="M122.176 17.1392C122.176 17.1392 121.93 15.1968 121.43 16.2272C120.931 17.2576 122.07 18.9376 122.07 18.9376L122.176 17.1392Z" fill="white" stroke="#263238" stroke-linecap="round" stroke-linejoin="round"/>
<path d="M124.65 22.5793C124.65 22.5793 124.778 23.1361 126.096 23.0177" stroke="#263238" stroke-width="0.3" stroke-linecap="round" stroke-linejoin="round"/>
<path d="M124.083 23.3313C124.316 23.6452 124.659 23.8591 125.043 23.9298C125.428 24.0005 125.824 23.9227 126.154 23.7121" stroke="#263238" stroke-width="0.3" stroke-linecap="round" stroke-linejoin="round"/>
<path d="M123.245 19.5808C123.42 19.9047 123.695 20.1635 124.028 20.3186C124.362 20.4737 124.737 20.5168 125.098 20.4416" stroke="#263238" stroke-width="0.3" stroke-linecap="round" stroke-linejoin="round"/>
<path d="M126.966 21.0593C127.197 21.3511 127.516 21.5595 127.876 21.6525C128.236 21.7455 128.617 21.7181 128.96 21.5745" stroke="#263238" stroke-width="0.3" stroke-linecap="round" stroke-linejoin="round"/>
<path d="M125.606 19.2768C125.606 19.2768 125.03 18.1472 123.491 18.4032" stroke="#263238" stroke-width="0.3" stroke-linecap="round" stroke-linejoin="round"/>
<path d="M127.136 19.6481C127.136 19.6481 128.608 19.3601 129.392 20.5569" stroke="#263238" stroke-width="0.3" stroke-linecap="round" stroke-linejoin="round"/>
<path d="M126.614 32.2656L124.266 38.9504C124.266 38.9504 114.198 37.7344 113.542 37.5904C112.886 37.4464 109.859 36.9504 109.203 36.8608C108.547 36.7712 107.421 36.8992 107.088 37.0912C106.755 37.2832 105.558 38.0512 105.168 38.1152C104.778 38.1792 103.981 38.2272 104.237 38.5632C104.493 38.8992 105.421 38.8448 105.421 38.8448C105.165 39.0769 104.835 39.2117 104.49 39.2256C103.965 39.2256 102.307 39.7824 102.89 39.8656C103.472 39.9488 105.13 40.1632 105.981 40.2432C106.832 40.3232 110.093 38.7936 110.093 38.7936C110.093 38.7936 115.213 40.592 118.221 41.4976C121.229 42.4032 125.901 43.4656 126.694 43.4784C127.488 43.4912 130.576 35.8304 131.194 34.1984C131.811 32.5664 132.662 29.0784 132.349 28.0864C132.035 27.0944 130.88 26.2688 130.88 26.2688" fill="#E4CB45"/>
<path d="M126.614 32.2656L124.266 38.9504C124.266 38.9504 114.198 37.7344 113.542 37.5904C112.886 37.4464 109.859 36.9504 109.203 36.8608C108.547 36.7712 107.421 36.8992 107.088 37.0912C106.755 37.2832 105.558 38.0512 105.168 38.1152C104.778 38.1792 103.981 38.2272 104.237 38.5632C104.493 38.8992 105.421 38.8448 105.421 38.8448C105.165 39.0769 104.835 39.2117 104.49 39.2256C103.965 39.2256 102.307 39.7824 102.89 39.8656C103.472 39.9488 105.13 40.1632 105.981 40.2432C106.832 40.3232 110.093 38.7936 110.093 38.7936C110.093 38.7936 115.213 40.592 118.221 41.4976C121.229 42.4032 125.901 43.4656 126.694 43.4784C127.488 43.4912 130.576 35.8304 131.194 34.1984C131.811 32.5664 132.662 29.0784 132.349 28.0864C132.035 27.0944 130.88 26.2688 130.88 26.2688" stroke="#263238" stroke-linecap="round" stroke-linejoin="round"/>
<path d="M116.262 40.877L117.072 38.0642C115.274 37.8402 113.782 37.645 113.552 37.5906C112.896 37.4498 109.869 36.9506 109.213 36.861C108.557 36.7714 107.43 36.8994 107.098 37.0914C106.765 37.2834 105.568 38.0514 105.178 38.1154C104.787 38.1794 103.99 38.2274 104.246 38.5634C104.502 38.8994 105.43 38.845 105.43 38.845C105.174 39.0771 104.845 39.2119 104.499 39.2258C103.974 39.2258 102.317 39.7826 102.899 39.8658C103.482 39.949 105.139 40.1634 105.99 40.2434C106.842 40.3234 110.102 38.7938 110.102 38.7938C110.102 38.7938 113.398 39.949 116.262 40.877Z" fill="white" stroke="#263238" stroke-linecap="round" stroke-linejoin="round"/>
<path d="M105.414 38.8449C105.414 38.8449 105.805 39.0497 106.672 38.5249L105.414 38.8449Z" fill="white"/>
<path d="M105.414 38.8449C105.414 38.8449 105.805 39.0497 106.672 38.5249" stroke="#263238" stroke-linecap="round" stroke-linejoin="round"/>
</svg>
